<?xml version="1.0" standalone="no"?>
<!DOCTYPE svg PUBLIC "-//W3C//DTD SVG 1.1//EN" "http://www.w3.org/Graphics/SVG/1.1/DTD/svg11.dtd" >
<svg>
<metadata>
Created by FontForge 20090914 at Sat Jan 29 11:21:21 2022
 By www-data
&#194;&#169; 2010 - 2020 Adobe Systems Incorporated (http://www.adobe.com/), with Reserved Font Name &#226;&#128;&#152;Source&#226;&#128;&#153;.
</metadata>
<defs>
<font id="SourceCodePro-Light" horiz-adv-x="600" >
  <font-face 
    font-family="Source Code Pro Light"
    font-weight="300"
    font-stretch="normal"
    units-per-em="1000"
    panose-1="2 11 3 9 3 4 3 2 2 4"
    ascent="800"
    descent="-200"
    x-height="479.998"
    cap-height="659"
    bbox="-183 -454.001 783 1060"
    underline-thickness="50"
    underline-position="-50"
    unicode-range="U+0020-U+1F916"
  />
<missing-glyph 
d="M78 0v660h444v-660h-444zM142 39h312l-93 164l-59 105h-4l-61 -105zM123 84l147 256l-147 260v-516zM298 372h4l53 92l86 155h-284l87 -155zM330 340l145 -256v516z" />
    <glyph glyph-name=".notdef" 
d="M78 0v660h444v-660h-444zM142 39h312l-93 164l-59 105h-4l-61 -105zM123 84l147 256l-147 260v-516zM298 372h4l53 92l86 155h-284l87 -155zM330 340l145 -256v516z" />
    <glyph glyph-name="space" unicode=" " 
 />
    <glyph glyph-name="exclam" unicode="!" 
d="M284 219l-5 380v71h42v-71l-5 -380h-32zM300 -12c-14.667 0 -28 5.5 -40 16.5s-18 26.5 -18 46.5c0 20.667 6 36.334 18 47.001s25.333 16 40 16c15.333 0 28.833 -5.33301 40.5 -16s17.5 -26.334 17.5 -47.001c0 -20 -5.83301 -35.5 -17.5 -46.5
s-25.167 -16.5 -40.5 -16.5z" />
    <glyph glyph-name="quotedbl" unicode="&#x22;" 
d="M178 381l-20 218l1 89h74l1 -89l-20 -218h-36zM386 381l-20 218l1 89h74l1 -89l-20 -218h-36z" />
    <glyph glyph-name="numbersign" unicode="#" 
d="M338 0l80 650h35l-80 -650h-35zM154 0l80 650h34l-79 -650h-35zM116 420v36h393v-36h-393zM96 214v36h393v-36h-393z" />
    <glyph glyph-name="dollar" unicode="$" 
d="M97 112l23.998 32.0039c21.333 -17.333 48 -33.5 80 -48.5s68.667 -22.5 110 -22.5c48 0 84.667 10.5 110 31.5s38 47.5 38 79.5c0 24.667 -8 45.167 -24 61.5s-36.5 30.333 -61.5 42s-51.667 22.667 -80 33s-55.166 22.166 -80.499 35.499s-46 29.166 -62 47.499
s-24 41.5 -24 69.5c0 30 8 55.833 24 77.5s37.833 38.334 65.5 50.001s58.5 17.5 92.5 17.5c43.333 0 78 -7 104 -21s49.667 -31 71 -51l-26 -28c-22.667 19.333 -44.5 34.333 -65.5 45s-50.167 16 -87.5 16c-40 0 -72.167 -9.33301 -96.5 -28s-36.5 -44 -36.5 -76
c0 -22 8 -40.333 24 -55s36.667 -27.334 62 -38.001s52.166 -21.334 80.499 -32.001s55 -22.834 80 -36.501s45.667 -30.5 62 -50.5s24.5 -45.333 24.5 -76c0 -31.333 -9 -58.5 -27 -81.5s-41.667 -40.667 -71 -53s-62.333 -18.5 -99 -18.5
c-29.333 0 -57.166 3.83301 -83.499 11.5s-50.166 17.5 -71.499 29.5s-40 24.333 -56 37zM287.998 597.004v152h39v-152h-39zM287.998 45.0039h39v-155h-39v155z" />
    <glyph glyph-name="percent" unicode="%" 
d="M162 326c-26 0 -49 6.33301 -69 19s-35.833 31.5 -47.5 56.5s-17.5 54.833 -17.5 89.5c0 52 12.5 91.667 37.5 119s57.167 41 96.5 41c40 0 72.333 -13.667 97 -41s37 -67 37 -119c0 -34.667 -5.83301 -64.5 -17.5 -89.5s-27.5 -43.833 -47.5 -56.5s-43 -19 -69 -19z
M162 358c27.333 0 50 11.5 68 34.5s27 55.833 27 98.5c0 43.333 -9 75.5 -27 96.5s-40.667 31.5 -68 31.5c-26.667 0 -49.167 -10.5 -67.5 -31.5s-27.5 -53.167 -27.5 -96.5c0 -42.667 9.16699 -75.5 27.5 -98.5s40.833 -34.5 67.5 -34.5zM67 35l-32 28l181 197l22 -20z
M384 399l-22 20l171 205l32 -28zM438 -12c-26 0 -49 6.33301 -69 19s-35.833 31.5 -47.5 56.5s-17.5 54.833 -17.5 89.5c0 52 12.5 91.667 37.5 119s57.167 41 96.5 41c40 0 72.333 -13.667 97 -41s37 -67 37 -119c0 -34.667 -5.83301 -64.5 -17.5 -89.5
s-27.5 -43.833 -47.5 -56.5s-43 -19 -69 -19zM438 20c27.333 0 50 11.5 68 34.5s27 55.833 27 98.5c0 43.333 -9 75.5 -27 96.5s-40.667 31.5 -68 31.5c-26.667 0 -49.167 -10.5 -67.5 -31.5s-27.5 -53.167 -27.5 -96.5c0 -42.667 9.16699 -75.5 27.5 -98.5
s40.833 -34.5 67.5 -34.5z" />
    <glyph glyph-name="ampersand" unicode="&#x26;" 
d="M242 -12c-34.667 0 -66.3311 7.33203 -94.998 21.999s-51.5 35.5 -68.5 62.5s-25.5 58.5 -25.5 94.5c0 30.667 7 58 21 82s32.167 45.833 54.5 65.5s46 38.5 71 56.5s48.5 36 70.5 54s40.167 37 54.5 57s21.5 42.333 21.5 67c0 21.333 -5.5 41 -16.5 59
s-29.5 27 -55.5 27c-28.667 0 -51.167 -10.667 -67.5 -32s-24.5 -47 -24.5 -77c0 -34 7.33301 -69.667 22 -107s34.167 -74.5 58.5 -111.5s51.333 -72.167 81 -105.5s59.5 -62.666 89.5 -87.999c25.333 -21.333 49.666 -39.333 72.999 -54s45 -25.667 65 -33l-15 -39
c-21.333 8 -44.666 19.667 -69.999 35s-51.666 34.666 -78.999 57.999c-32.667 28.667 -64.834 61 -96.501 97s-60.167 73.833 -85.5 113.5s-45.666 79.334 -60.999 119.001s-23 77.5 -23 113.5c0 28 5.66699 53.167 17 75.5s27.166 39.833 47.499 52.5s43.5 19 69.5 19
c36 0 63.333 -11.333 82 -34s28 -51.334 28 -86.001c0 -27.333 -6.83301 -52 -20.5 -74s-31.334 -42.667 -53.001 -62s-44.834 -38 -69.501 -56s-48 -36.5 -70 -55.5s-39.833 -39.333 -53.5 -61s-20.5 -45.834 -20.5 -72.501c0 -29.333 6.66699 -54.666 20 -75.999
s31.333 -38 54 -50s47.334 -18 74.001 -18c30 0 58 8 84 24s50 36 72 60c26.667 31.333 49.667 66.833 69 106.5s35 82.5 47 128.5h42c-13.333 -48.667 -30.5 -95.167 -51.5 -139.5s-46.167 -84.166 -75.5 -119.499c-25.333 -28.667 -53.333 -52.167 -84 -70.5
s-66.334 -27.5 -107.001 -27.5z" />
    <glyph glyph-name="quotesingle" unicode="'" 
d="M282 381l-20 218l1 89h74l1 -89l-20 -218h-36z" />
    <glyph glyph-name="parenleft" unicode="(" 
d="M456 -174c-71.333 52 -127.833 115.832 -169.5 191.499s-62.5 162.5 -62.5 260.5s20.833 185 62.5 261s98.167 139.667 169.5 191l25 -28c-72 -55.333 -125.333 -118.166 -160 -188.499s-52 -148.833 -52 -235.5s17.333 -165 52 -235s88 -133 160 -189z" />
    <glyph glyph-name="parenright" unicode=")" 
d="M144 -174l-25 28.001c72 56 125.333 119 160 189s52 148.333 52 235s-17.333 165.167 -52 235.5s-88 133.166 -160 188.499l25 28c72 -51.333 128.667 -115 170 -191s62 -163 62 -261s-20.667 -184.833 -62 -260.5s-98 -139.5 -170 -191.5z" />
    <glyph glyph-name="asterisk" unicode="*" 
d="M177 124l-29 20l116 171l-167 71l10 30l171 -61l6 195h32l6 -195l171 61l10 -30l-167 -71l116 -171l-29 -20l-123 168z" />
    <glyph glyph-name="plus" unicode="+" 
d="M279 110v201h-184v38h184v201h42v-201h184v-38h-184v-201h-42z" />
    <glyph glyph-name="comma" unicode="," 
d="M221 -211l-15.998 32.001c42 20.667 73.167 46.167 93.5 76.5s30.5 69.166 30.5 116.499l-27 76l54 -67c-7.33301 -9.33301 -15.333 -15.5 -24 -18.5s-17.334 -4.5 -26.001 -4.5c-11.333 0 -21.5 2.16699 -30.5 6.5s-16.167 10.833 -21.5 19.5s-8 19.667 -8 33
c0 20.667 6.16699 35.834 18.5 45.501s26.166 14.5 41.499 14.5c23.333 0 40.833 -9.33301 52.5 -28s17.5 -43.334 17.5 -74.001c0 -56 -14.333 -103 -43 -141s-66 -67 -112 -87z" />
    <glyph glyph-name="hyphen" unicode="-" 
d="M95 311v38h410v-38h-410z" />
    <glyph glyph-name="period" unicode="." 
d="M300 -12c-15.333 0 -29.166 5.83301 -41.499 17.5s-18.5 27.5 -18.5 47.5c0 21.333 6.16699 37.5 18.5 48.5s26.166 16.5 41.499 16.5c16 0 30 -5.5 42 -16.5s18 -27.167 18 -48.5c0 -20 -6 -35.833 -18 -47.5s-26 -17.5 -42 -17.5z" />
    <glyph glyph-name="slash" unicode="/" 
d="M114 -160l327 870h45l-327 -870h-45z" />
    <glyph glyph-name="zero" unicode="0" 
d="M300 -12c-46 0 -85.3311 13.333 -117.998 40s-57.667 64.834 -75 114.501s-26 109.5 -26 179.5c0 106 19.167 187.333 57.5 244s92.166 85 161.499 85c70 0 124 -28.333 162 -85s57 -138 57 -244c0 -70 -8.5 -129.833 -25.5 -179.5s-41.833 -87.834 -74.5 -114.501
s-72.334 -40 -119.001 -40zM300.002 26c34.667 0 65.167 11.167 91.5 33.5s46.833 55.5 61.5 99.5s22 98.333 22 163s-7.33301 118.667 -22 162s-35.167 75.666 -61.5 96.999s-56.833 32 -91.5 32s-65.167 -10.667 -91.5 -32s-46.833 -53.666 -61.5 -96.999
s-22 -97.333 -22 -162s7.33301 -119 22 -163s35.167 -77.167 61.5 -99.5s56.833 -33.5 91.5 -33.5zM300.002 271c-13.333 0 -25.833 5.16699 -37.5 15.5s-17.5 25.166 -17.5 44.499c0 20 5.83301 35 17.5 45s24.167 15 37.5 15c14 0 26.667 -5 38 -15s17 -25 17 -45
c0 -19.333 -5.66699 -34.166 -17 -44.499s-24 -15.5 -38 -15.5z" />
    <glyph glyph-name="one" unicode="1" 
d="M108 0l-0.000976562 39h191v530h-143v30c22.667 2.66699 43.334 6.16699 62.001 10.5s35.667 9 51 14s29 10.167 41 15.5h33v-600h180v-39h-415z" />
    <glyph glyph-name="two" unicode="2" 
d="M82 0l-0.000976562 28.001c78.667 71.333 144 132.833 196 184.5s91 98.167 117 139.5s39 81 39 119c0 40 -12.5 73.667 -37.5 101s-65.167 41 -120.5 41c-32.667 0 -63.334 -7.83301 -92.001 -23.5s-54 -35.834 -76 -60.501l-29 28c26.667 26.667 56.167 49 88.5 67
s69.833 27 112.5 27c41.333 0 76.833 -7.33301 106.5 -22s52.334 -35.5 68.001 -62.5s23.5 -58.5 23.5 -94.5c0 -42 -13.333 -84.667 -40 -128s-64.667 -89.833 -114 -139.5l-175 -169.5c20.667 1.33301 40.834 2.5 60.501 3.5s39.5 1.5 59.5 1.5h245v-40h-432z" />
    <glyph glyph-name="three" unicode="3" 
d="M292 -12c-37.333 0 -70.0029 4.49805 -98.0029 13.498s-52.5 20.333 -73.5 34s-38.833 27.834 -53.5 42.501l25 31c21.333 -20.667 48 -39.5 80 -56.5s72 -25.5 120 -25.5c32.667 0 62.167 5.83301 88.5 17.5s47 28 62 49s22.5 45.833 22.5 74.5
c0 29.333 -8.83301 55 -26.5 77s-45.167 39.333 -82.5 52s-86 19 -146 19v39c56 0 100.833 6.33301 134.5 19s58.167 29.334 73.5 50.001s23 44 23 70c0 36 -14 64.833 -42 86.5s-64.667 32.5 -110 32.5c-32.667 0 -64 -6.83301 -94 -20.5s-55 -30.167 -75 -49.5l-27 30
c24.667 22 53.5 40.5 86.5 55.5s69.833 22.5 110.5 22.5c36.667 0 69.834 -6 99.501 -18s53.334 -29.5 71.001 -52.5s26.5 -50.833 26.5 -83.5c0 -41.333 -13.833 -75 -41.5 -101s-62.167 -45 -103.5 -57v-4c30 -5.33301 57.833 -15.333 83.5 -30s46.334 -33.5 62.001 -56.5
s23.5 -49.5 23.5 -79.5c0 -37.333 -9.83301 -69.5 -29.5 -96.5s-46 -47.833 -79 -62.5s-69.833 -22 -110.5 -22z" />
    <glyph glyph-name="four" unicode="4" 
d="M384 0v481c1.33301 16 2.33301 32.333 3 49l2 48h-6l-30.5 -42.5l-31.5 -42.5l-219 -263h436v-39h-496v27l350 422h35v-640h-43z" />
    <glyph glyph-name="five" unicode="5" 
d="M287 -12c-38 0 -71.1699 4.33594 -99.5029 13.0029s-52.5 19.667 -72.5 33s-37.667 26.666 -53 39.999l25 31c14.667 -13.333 31 -26 49 -38s39.167 -21.667 63.5 -29s53.5 -11 87.5 -11c33.333 0 63.833 7.16699 91.5 21.5s49.834 34.5 66.501 60.5s25 56 25 90
c0 51.333 -16 91.666 -48 120.999s-76.333 44 -133 44c-29.333 0 -54.666 -3.83301 -75.999 -11.5s-43.666 -18.167 -66.999 -31.5l-31 19l24 299h344v-39h-304l-21 -231c20.667 10 41.667 18.167 63 24.5s46.333 9.5 75 9.5c42 0 79.667 -7.16699 113 -21.5
s59.5 -36.333 78.5 -66s28.5 -67.834 28.5 -114.501c0 -45.333 -10.833 -84 -32.5 -116s-50 -56.167 -85 -72.5s-72.167 -24.5 -111.5 -24.5z" />
    <glyph glyph-name="six" unicode="6" 
d="M323 -12c-36 0 -68.5029 6.66699 -97.5029 20s-53.833 32.666 -74.5 57.999s-36.667 56.833 -48 94.5s-17 80.834 -17 129.501c0 66.667 7.33301 123.167 22 169.5s34.167 83.5 58.5 111.5s52.5 48.333 84.5 61s65 19 99 19c35.333 0 66.166 -5.66699 92.499 -17
s49.833 -26.333 70.5 -45l-27 -30c-18 17.333 -38.5 30.5 -61.5 39.5s-47.833 13.5 -74.5 13.5c-38.667 0 -74.667 -10.167 -108 -30.5s-60.166 -54 -80.499 -101s-30.5 -110.5 -30.5 -190.5c0 -52 6.83301 -97.833 20.5 -137.5s34.834 -70.667 63.501 -93
s65.334 -33.5 110.001 -33.5c30 0 56.833 7.16699 80.5 21.5s42.334 33.666 56.001 57.999s20.5 51.833 20.5 82.5c0 50.667 -13.333 90 -40 118s-67 42 -121 42c-28.667 0 -60 -7.66699 -94 -23s-67.333 -42 -100 -80v47c28 28.667 58.833 51.5 92.5 68.5
s69.5 25.5 107.5 25.5c40.667 0 76 -7.66699 106 -23s53.167 -37.666 69.5 -66.999s24.5 -65.333 24.5 -108c0 -38.667 -9.33301 -73 -28 -103s-43.5 -53.667 -74.5 -71s-64.833 -26 -101.5 -26z" />
    <glyph glyph-name="seven" unicode="7" 
d="M245 0c2.66699 65.333 8.66699 124.668 18 178.001s23.166 103.333 41.499 150s41.333 92.167 69 136.5s60.5 89.5 98.5 135.5h-398v39h454v-26c-44 -50.667 -80.5 -99.5 -109.5 -146.5s-52.167 -94.333 -69.5 -142s-30.166 -97.834 -38.499 -150.501
s-13.833 -110.667 -16.5 -174h-49z" />
    <glyph glyph-name="eight" unicode="8" 
d="M304 -12c-47.333 0 -88.3311 7.66699 -122.998 23s-61.5 36.333 -80.5 63s-28.5 56.667 -28.5 90c0 31.333 7.5 58.333 22.5 81s33.833 42 56.5 58s45.667 29.333 69 40v4c-26.667 15.333 -50 35.333 -70 60s-30 54 -30 88c0 30.667 8.16699 57.834 24.5 81.501
s38.333 42 66 55s59.167 19.5 94.5 19.5c62 0 109.667 -15.833 143 -47.5s50 -71.5 50 -119.5c0 -30 -9.83301 -59.167 -29.5 -87.5s-43.834 -52.833 -72.501 -73.5v-4c24.667 -11.333 46.667 -23.833 66 -37.5s34.833 -30.334 46.5 -50.001s17.5 -45.167 17.5 -76.5
c0 -30.667 -8.83301 -58.667 -26.5 -84s-42.834 -45.5 -75.501 -60.5s-72.667 -22.5 -120 -22.5zM357.002 335c65.333 44.667 98 94 98 148c0 24 -5.66699 46 -17 66s-28.166 35.833 -50.499 47.5s-49.833 17.5 -82.5 17.5c-42.667 0 -77 -11.167 -103 -33.5
s-39 -50.833 -39 -85.5c0 -30 8.83301 -54.833 26.5 -74.5s41.167 -36.167 70.5 -49.5s61.666 -25.333 96.999 -36zM305.002 25c57.333 0 101.001 12.667 131.001 38s45 56.333 45 93c0 26.667 -6 48.834 -18 66.501s-28.5 32.5 -49.5 44.5s-45.167 22.667 -72.5 32
s-56.333 18.666 -87 27.999c-26.667 -12.667 -50.334 -26.5 -71.001 -41.5s-37 -32.167 -49 -51.5s-18 -42 -18 -68c0 -26.667 7.5 -50.5 22.5 -71.5s36.5 -37.833 64.5 -50.5s62 -19 102 -19z" />
    <glyph glyph-name="nine" unicode="9" 
d="M252 -12c-35.333 0 -66.166 5.83301 -92.499 17.5s-50.166 26.5 -71.499 44.5l27 30c18.667 -17.333 39.667 -30.5 63 -39.5s48 -13.5 74 -13.5c39.333 0 75.333 10.167 108 30.5s59.334 54 80.001 101s31 110.833 31 191.5c0 52 -6.83301 97.833 -20.5 137.5
s-34.834 70.5 -63.501 92.5s-65.334 33 -110.001 33c-30 0 -57 -7.16699 -81 -21.5s-42.833 -33.666 -56.5 -57.999s-20.5 -51.5 -20.5 -81.5c0 -50.667 13.5 -90.167 40.5 -118.5s67.167 -42.5 120.5 -42.5c28.667 0 60.167 8 94.5 24s67.5 42.333 99.5 79l1 -47
c-28 -28 -58.833 -50.5 -92.5 -67.5s-69.5 -25.5 -107.5 -25.5c-41.333 0 -76.833 7.5 -106.5 22.5s-52.667 37.167 -69 66.5s-24.5 65.666 -24.5 108.999c0 38.667 9.33301 73 28 103s43.667 53.5 75 70.5s64.666 25.5 99.999 25.5c36.667 0 69.334 -6.5 98.001 -19.5
s53.5 -32.333 74.5 -58s37 -57.334 48 -95.001s16.5 -80.5 16.5 -128.5c0 -67.333 -7.16699 -124.166 -21.5 -170.499s-33.833 -83.5 -58.5 -111.5s-52.834 -48.333 -84.501 -61s-64.5 -19 -98.5 -19z" />
    <glyph glyph-name="colon" unicode=":" 
d="M300 366c-15.333 0 -29.166 5.83301 -41.499 17.5s-18.5 27.5 -18.5 47.5c0 21.333 6.16699 37.5 18.5 48.5s26.166 16.5 41.499 16.5c16 0 30 -5.5 42 -16.5s18 -27.167 18 -48.5c0 -20 -6 -35.833 -18 -47.5s-26 -17.5 -42 -17.5zM300 -12
c-15.333 0 -29.166 5.83301 -41.499 17.5s-18.5 27.5 -18.5 47.5c0 21.333 6.16699 37.5 18.5 48.5s26.166 16.5 41.499 16.5c16 0 30 -5.5 42 -16.5s18 -27.167 18 -48.5c0 -20 -6 -35.833 -18 -47.5s-26 -17.5 -42 -17.5z" />
    <glyph glyph-name="semicolon" unicode=";" 
d="M300 366c-15.333 0 -29.166 5.83301 -41.499 17.5s-18.5 27.5 -18.5 47.5c0 21.333 6.16699 37.5 18.5 48.5s26.166 16.5 41.499 16.5c16 0 30 -5.5 42 -16.5s18 -27.167 18 -48.5c0 -20 -6 -35.833 -18 -47.5s-26 -17.5 -42 -17.5zM221 -211l-15.998 32.001
c42 20.667 73.167 46.167 93.5 76.5s30.5 69.166 30.5 116.499l-27 76l54 -67c-7.33301 -9.33301 -15.333 -15.5 -24 -18.5s-17.334 -4.5 -26.001 -4.5c-11.333 0 -21.5 2.16699 -30.5 6.5s-16.167 10.833 -21.5 19.5s-8 19.667 -8 33c0 20.667 6.16699 35.834 18.5 45.501
s26.166 14.5 41.499 14.5c23.333 0 40.833 -9.33301 52.5 -28s17.5 -43.334 17.5 -74.001c0 -56 -14.333 -103 -43 -141s-66 -67 -112 -87z" />
    <glyph glyph-name="less" unicode="&#x3c;" 
d="M488 58l-365 254v40l365 254v-48l-322 -224v-4l322 -224v-48z" />
    <glyph glyph-name="equal" unicode="=" 
d="M95 413v38h410v-38h-410zM95 209v38h410v-38h-410z" />
    <glyph glyph-name="greater" unicode="&#x3e;" 
d="M112 58v48l322 224v4l-322 224v48l365 -254v-40z" />
    <glyph glyph-name="question" unicode="?" 
d="M257 219c-5.33301 29.333 -3.16504 55.168 6.50195 77.501s23.167 42.5 40.5 60.5s35.166 35.5 53.499 52.5s33.833 34.833 46.5 53.5s19 39.667 19 63c0 32 -10.5 59.5 -31.5 82.5s-54.5 34.5 -100.5 34.5c-28 0 -54.5 -5.5 -79.5 -16.5s-47.167 -26.833 -66.5 -47.5
l-29 27c21.333 22 46.833 40.167 76.5 54.5s63.5 21.5 101.5 21.5c36 0 67 -6.66699 93 -20s46 -31.5 60 -54.5s21 -48.833 21 -77.5c0 -27.333 -6.33301 -51.333 -19 -72s-28.334 -39.834 -47.001 -57.501l-54 -52.5c-17.333 -17.333 -31.333 -36.333 -42 -57
s-13.667 -44.667 -9 -72h-40zM286.001 -11.998c-14.667 0 -28 5.5 -40 16.5s-18 26.5 -18 46.5c0 20.667 6 36.334 18 47.001s25.333 16 40 16c15.333 0 28.833 -5.33301 40.5 -16s17.5 -26.334 17.5 -47.001c0 -20 -5.83301 -35.5 -17.5 -46.5s-25.167 -16.5 -40.5 -16.5z
" />
    <glyph glyph-name="at" unicode="@" 
d="M342 -143c-39.333 0 -75.9971 8.66504 -109.997 25.998s-63.833 42.833 -89.5 76.5s-45.834 74.667 -60.501 123s-22 103.833 -22 166.5c0 81.333 12.667 150.333 38 207s59.833 99.834 103.5 129.501s93.167 44.5 148.5 44.5c43.333 0 79.166 -10.333 107.499 -31
s49.666 -48.5 63.999 -83.5s21.5 -74.833 21.5 -119.5v-296h-32l-5 62h-4c-16 -18 -36.833 -34.833 -62.5 -50.5s-51.167 -23.5 -76.5 -23.5c-23.333 0 -44.833 4.66699 -64.5 14s-35.5 23.333 -47.5 42s-18 42 -18 70c0 32.667 10.167 60.334 30.5 83.001
s50.833 41 91.5 55s91 24.667 151 32v13c0 36.667 -5.5 70 -16.5 100s-28 53.833 -51 71.5s-53.833 26.5 -92.5 26.5c-34 0 -66 -7.83301 -96 -23.5s-56.167 -38.334 -78.5 -68.001s-39.833 -66.167 -52.5 -109.5s-19 -92.666 -19 -147.999
c0 -72.667 10.333 -135.5 31 -188.5s49.167 -93.667 85.5 -122s78.166 -42.5 125.499 -42.5c30 0 57 4 81 12s45.667 20 65 36l20 -28c-24.667 -18 -50.667 -31.833 -78 -41.5s-56.666 -14.5 -87.999 -14.5zM370.003 123.998c20.667 0 42.499 6.66797 65.499 20.001
s45.833 33.333 68.5 60v147c-82 -11.333 -140.833 -28 -176.5 -50s-53.5 -51 -53.5 -87c0 -28.667 8.83301 -50.834 26.5 -66.501s40.834 -23.5 69.501 -23.5z" />
    <glyph glyph-name="A" unicode="A" 
d="M45 0l232 659h46l232 -659h-49l-131 388l-38 113.5c-12 36.333 -23.667 74.5 -35 114.5h-4l-35.5 -114.5l-37.5 -113.5l-134 -388h-46zM151 226v39h295v-39h-295z" />
    <glyph glyph-name="B" unicode="B" 
d="M114 0v659.002h167c45.333 0 84.166 -5.66699 116.499 -17s57 -28.833 74 -52.5s25.5 -53.834 25.5 -90.501c0 -34 -9.66699 -64 -29 -90s-48.666 -44 -87.999 -54v-4c49.333 -6.66699 88 -23.334 116 -50.001s42 -63 42 -109c0 -42 -9.83301 -77.333 -29.5 -106
s-47.667 -50.167 -84 -64.5s-79.833 -21.5 -130.5 -21.5h-180zM160 370.002h103c67.333 0 115.5 10.667 144.5 32s43.5 53 43.5 95c0 44 -15 75.5 -45 94.5s-76 28.5 -138 28.5h-108v-250zM160 39.002l122 0.00195312c67.333 0 119.166 12.167 155.499 36.5
s54.5 63.166 54.5 116.499c0 47.333 -18.167 82.166 -54.5 104.499s-88.166 33.5 -155.499 33.5h-122v-291z" />
    <glyph glyph-name="C" unicode="C" 
d="M348 -12c-40.667 0 -77.8311 7.99707 -111.498 23.9971s-62.834 39 -87.501 69s-43.667 66 -57 108s-20 89.333 -20 142c0 69.333 11.833 129.5 35.5 180.5s56.667 90.333 99 118s91.5 41.5 147.5 41.5c38.667 0 72.667 -8 102 -24s52.666 -34.333 69.999 -55l-28 -30
c-17.333 20.667 -38 37 -62 49s-51.333 18 -82 18c-48 0 -89.5 -12.167 -124.5 -36.5s-62 -58.666 -81 -102.999s-28.5 -97.166 -28.5 -158.499c0 -60.667 9.5 -113.667 28.5 -159s45.833 -80.333 80.5 -105s75.667 -37 123 -37c34 0 64.167 6.83301 90.5 20.5
s51.166 33.834 74.499 60.501l27 -29c-24.667 -28.667 -52.667 -51.5 -84 -68.5s-68.666 -25.5 -111.999 -25.5z" />
    <glyph glyph-name="D" unicode="D" 
d="M96 0l0.00195312 659h152c67.333 0 123.166 -13.333 167.499 -40s77.166 -64.667 98.499 -114s32 -107 32 -173c0 -66.667 -10.667 -125 -32 -175s-54 -88.667 -98 -116s-99.667 -41 -167 -41h-153zM142.002 39l102 0.000976562c59.333 0 107.666 12.5 144.999 37.5
s64.833 59.5 82.5 103.5s26.5 94.667 26.5 152s-8.83301 107.666 -26.5 150.999s-45.167 77 -82.5 101s-85.666 36 -144.999 36h-102v-581z" />
    <glyph glyph-name="E" unicode="E" 
d="M127 0v659h390v-40h-344v-249h290v-40h-290v-290h354v-40h-400z" />
    <glyph glyph-name="F" unicode="F" 
d="M150 0v659h384v-40h-338v-262h285v-40h-285v-317h-46z" />
    <glyph glyph-name="G" unicode="G" 
d="M334 -12c-54.667 0 -102.665 13.998 -143.998 41.998s-73.5 67.667 -96.5 119s-34.5 112 -34.5 182c0 69.333 11.833 129.5 35.5 180.5s56.834 90.333 99.501 118s92.334 41.5 149.001 41.5c43.333 0 79.166 -8.5 107.499 -25.5s50.833 -34.833 67.5 -53.5l-27 -30
c-16 18.667 -36 34.5 -60 47.5s-53.333 19.5 -88 19.5c-48.667 0 -90.5 -12.167 -125.5 -36.5s-62.167 -58.666 -81.5 -102.999s-29 -97.166 -29 -158.499c0 -60.667 9.16699 -113.667 27.5 -159s44.666 -80.333 78.999 -105s75.5 -37 123.5 -37
c29.333 0 56.666 4.33301 81.999 13s45.666 21 60.999 37v205h-152v39h197v-261c-20 -22 -46.167 -40 -78.5 -54s-69.833 -21 -112.5 -21z" />
    <glyph glyph-name="H" unicode="H" 
d="M88 0v659h47v-289h330v289h47v-659h-47v330h-330v-330h-47z" />
    <glyph glyph-name="I" unicode="I" 
d="M107 0v40h170v579h-170v40h386v-40h-170v-579h170v-40h-386z" />
    <glyph glyph-name="J" unicode="J" 
d="M277 -12c-36 0 -70.833 9.16699 -104.5 27.5s-60.167 45.833 -79.5 82.5l33 27c19.333 -32.667 42.5 -56.667 69.5 -72s54.167 -23 81.5 -23c54.667 0 94.5 14.667 119.5 44s37.5 74 37.5 134v413h-287v39h333v-457c0 -39.333 -6.16699 -75.333 -18.5 -108
s-33.333 -58.667 -63 -78s-70.167 -29 -121.5 -29z" />
    <glyph glyph-name="K" unicode="K" 
d="M115 0v659h47v-366h2l325 366h54l-381 -432v-227h-47zM518 0l-233 404l30 37l256 -441h-53z" />
    <glyph glyph-name="L" unicode="L" 
d="M150 0v659h44v-619h345v-40h-389z" />
    <glyph glyph-name="M" unicode="M" 
d="M81 0v659h61l115 -309l41 -115h4l39 115l117 309h61v-659h-45v450c0 11.333 0.333008 23.833 1 37.5l2 41l2 40.5c0.666992 13.333 1 25.666 1 36.999h-3l-36 -113l-124 -318h-36l-122 318l-39 113h-2c0 -11.333 0.5 -23.666 1.5 -36.999s1.83301 -26.833 2.5 -40.5
l2 -41c0.666992 -13.667 1 -26.167 1 -37.5v-450h-44z" />
    <glyph glyph-name="N" unicode="N" 
d="M92 0v659h49l257 -466l70 -130h2c-0.666992 31.333 -1.83398 63 -3.50098 95s-2.5 64 -2.5 96v405h44v-659h-49l-257 466l-70 130h-2c0.666992 -32 1.83398 -63.167 3.50098 -93.5s2.5 -61.5 2.5 -93.5v-409h-44z" />
    <glyph glyph-name="O" unicode="O" 
d="M300 -12c-48 0 -90.5 14 -127.5 42s-66 67.833 -87 119.5s-31.5 112.5 -31.5 182.5c0 69.333 10.5 129.5 31.5 180.5s50 90.167 87 117.5s79.5 41 127.5 41s90.5 -13.667 127.5 -41s66 -66.5 87 -117.5s31.5 -111.167 31.5 -180.5c0 -70 -10.5 -130.833 -31.5 -182.5
s-50 -91.5 -87 -119.5s-79.5 -42 -127.5 -42zM300 30c39.333 0 73.833 12.333 103.5 37s52.834 59.667 69.501 105s25 98.666 25 159.999c0 60.667 -8.33301 113.334 -25 158.001s-39.834 79 -69.501 103s-64.167 36 -103.5 36s-73.833 -12 -103.5 -36
s-52.834 -58.333 -69.501 -103s-25 -97.334 -25 -158.001c0 -61.333 8.33301 -114.666 25 -159.999s39.834 -80.333 69.501 -105s64.167 -37 103.5 -37z" />
    <glyph glyph-name="P" unicode="P" 
d="M118 0v658.999h179c49.333 0 91.5 -5.83301 126.5 -17.5s61.833 -31 80.5 -58s28 -63.167 28 -108.5c0 -42.667 -9.33301 -78.167 -28 -106.5s-45.5 -49.666 -80.5 -63.999s-77.167 -21.5 -126.5 -21.5h-133v-283h-46zM164 321.999l122 0.000976562
c67.333 0 117.333 12.167 150 36.5s49 63.166 49 116.499c0 55.333 -16.333 93.333 -49 114s-82.667 31 -150 31h-122v-298z" />
    <glyph glyph-name="Q" unicode="Q" 
d="M300 -12c-48 0 -90.5 14 -127.5 42s-66 67.833 -87 119.5s-31.5 112.5 -31.5 182.5c0 69.333 10.5 129.5 31.5 180.5s50 90.167 87 117.5s79.5 41 127.5 41s90.5 -13.667 127.5 -41s66 -66.5 87 -117.5s31.5 -111.167 31.5 -180.5c0 -70 -10.5 -130.833 -31.5 -182.5
s-50 -91.5 -87 -119.5s-79.5 -42 -127.5 -42zM300 27c40 0 74.667 12.333 104 37s52.333 59.834 69 105.501s25 99.834 25 162.501c0 60.667 -8.33301 113.334 -25 158.001s-39.667 79 -69 103s-64 36 -104 36s-74.667 -12 -104 -36s-52.333 -58.333 -69 -103
s-25 -97.334 -25 -158.001c0 -62.667 8.33301 -116.834 25 -162.501s39.667 -80.834 69 -105.501s64 -37 104 -37zM476 -153c-55.333 0 -99.499 14.332 -132.499 42.999s-56.5 64 -70.5 106l50 3c6.66699 -23.333 17 -43.166 31 -59.499s31.667 -28.666 53 -36.999
s46.333 -12.5 75 -12.5c10 0 19 0.666992 27 2s14.667 3.33301 20 6l9 -42c-10.667 -2.66699 -20.834 -4.83398 -30.501 -6.50098s-20.167 -2.5 -31.5 -2.5z" />
    <glyph glyph-name="R" unicode="R" 
d="M117 0v659h188c44 0 82.167 -5.66699 114.5 -17s57.5 -29.833 75.5 -55.5s27 -59.5 27 -101.5c0 -40 -9 -73.5 -27 -100.5s-43.167 -47.333 -75.5 -61s-70.5 -20.5 -114.5 -20.5h-142v-303h-46zM163 341h130c58.667 0 103.667 11.833 135 35.5s47 59.834 47 108.501
c0 49.333 -15.667 84.166 -47 104.499s-76.333 30.5 -135 30.5h-130v-279zM295 316l44 13l196 -329h-54z" />
    <glyph glyph-name="S" unicode="S" 
d="M309 -12c-50 0 -94.5029 9.33105 -133.503 27.998s-72.167 42.334 -99.5 71.001l30 32c25.333 -27.333 55.5 -49 90.5 -65s72.833 -24 113.5 -24c52.667 0 94.667 12.167 126 36.5s47 55.833 47 94.5c0 28 -5.83301 50.333 -17.5 67s-27.167 30.334 -46.5 41.001
s-41 21 -65 31l-99 45c-20.667 8.66699 -42.167 19.5 -64.5 32.5s-41.166 30 -56.499 51s-23 47.833 -23 80.5c0 32 8.66699 60.167 26 84.5s41.333 43.333 72 57s65 20.5 103 20.5c42 0 79.5 -7.83301 112.5 -23.5s60.167 -34.167 81.5 -55.5l-27 -30
c-20 20.667 -44 37 -72 49s-60 18 -96 18c-45.333 0 -82.333 -10.667 -111 -32s-43 -50 -43 -86c0 -25.333 6.83301 -46 20.5 -62s30 -29 49 -39s37.167 -18.667 54.5 -26l99 -44c26.667 -10.667 51.334 -23.167 74.001 -37.5s40.834 -32.333 54.501 -54
s20.5 -49.5 20.5 -83.5c0 -33.333 -9.16699 -63.5 -27.5 -90.5s-44 -48.167 -77 -63.5s-71.5 -23 -115.5 -23z" />
    <glyph glyph-name="T" unicode="T" 
d="M277 0v620h-229v39h504v-39h-229v-620h-46z" />
    <glyph glyph-name="U" unicode="U" 
d="M300 -12c-27.333 0 -53.667 4.16699 -79 12.5s-48 22.166 -68 41.499s-35.667 45.833 -47 79.5s-17 75.5 -17 125.5v412h46v-407c0 -56.667 7.66699 -101.167 23 -133.5s35.5 -55.166 60.5 -68.499s52.167 -20 81.5 -20c30 0 57.667 6.66699 83 20
s45.833 36.166 61.5 68.499s23.5 76.833 23.5 133.5v407h43v-412c0 -50 -5.66699 -91.833 -17 -125.5s-27 -60.167 -47 -79.5s-42.5 -33.166 -67.5 -41.499s-51.5 -12.5 -79.5 -12.5z" />
    <glyph glyph-name="V" unicode="V" 
d="M276 0l-217 659h49l122 -385l34 -110.5c10 -33.667 21.667 -70.5 35 -110.5h4c14 40 26.167 76.833 36.5 110.5l33.5 110.5l122 385h46l-215 -659h-50z" />
    <glyph glyph-name="W" unicode="W" 
d="M122 0l-108 660h46l70 -451c2 -17.333 4.16699 -34.5 6.5 -51.5s4.83301 -33.833 7.5 -50.5s4.66699 -34.667 6 -54h3l15 54l14.5 50.5c5 17 9.5 34.167 13.5 51.5l82 279h47l82 -279l14 -51.5l14 -51l15 -53.5h4c2 18.667 4.16699 36.5 6.5 53.5l7 51
c2.33301 17 4.5 34.167 6.5 51.5l67 451h45l-106 -660h-59l-91 313l-14 57.5l-14 57.5h-3l-14 -57.5c-4.66699 -19 -10 -38.167 -16 -57.5l-88 -313h-59z" />
    <glyph glyph-name="X" unicode="X" 
d="M75 0l199 340.998l-185 318h50l109 -194l26 -42.5l28 -47.5h4l25 47.5c7.33301 13.667 15.333 27.834 24 42.501l109 194h47l-185 -320l199 -339h-50l-116 202c-8.66699 16.667 -18 33.334 -28 50.001l-32 55h-4l-30 -55l-27 -50l-116 -202h-47z" />
    <glyph glyph-name="Y" unicode="Y" 
d="M277 0v242l-226 417h47l118 -218l41.5 -76l42.5 -79h4l44 79l42 77l114 217h45l-226 -417v-242h-46z" />
    <glyph glyph-name="Z" unicode="Z" 
d="M70 0v27l403 594h-369v39h424v-28l-403 -592h410v-40h-465z" />
    <glyph glyph-name="bracketleft" unicode="[" 
d="M240 -152v860h265v-29h-226v-802h226v-29h-265z" />
    <glyph glyph-name="backslash" unicode="\" 
d="M441 -160l-327 870h45l327 -870h-45z" />
    <glyph glyph-name="bracketright" unicode="]" 
d="M95 -152v29h226v802h-226v29h265v-860h-265z" />
    <glyph glyph-name="asciicircum" unicode="^" 
d="M126 290l151 380h46l151 -380h-43l-78 203l-51 133h-4l-51 -133l-78 -203h-43z" />
    <glyph glyph-name="underscore" unicode="_" 
d="M60 -125v46h480v-46h-480z" />
    <glyph glyph-name="grave" unicode="`" 
d="M331 572l-144 151l34 31l134 -159z" />
    <glyph glyph-name="a" unicode="a" 
d="M259 -12c-28.667 0 -55.667 4.83398 -81 14.501s-46 24.167 -62 43.5s-24 43.666 -24 72.999c0 54 28.833 94.833 86.5 122.5s151.5 47.5 281.5 59.5c0 26 -4.33301 50.667 -13 74s-23.334 42.166 -44.001 56.499s-49.334 21.5 -86.001 21.5
c-24 0 -47.333 -3.33301 -70 -10s-43.667 -15.167 -63 -25.5s-35.666 -20.166 -48.999 -29.499l-20 33c12.667 9.33301 29.834 19.5 51.501 30.5s46 20.5 73 28.5s54.5 12 82.5 12c43.333 0 78.333 -8.33301 105 -25s46.167 -39 58.5 -67s18.5 -59 18.5 -93v-307h-37l-5 72
h-2c-28 -22 -59.5 -41.5 -94.5 -58.5s-70.5 -25.5 -106.5 -25.5zM267 26.001c30.667 0 61.998 7.33203 93.998 21.999s65 36.334 99 65.001v154c-81.333 -7.33301 -145.666 -17.5 -192.999 -30.5s-80.833 -29 -100.5 -48s-29.5 -41.167 -29.5 -66.5
c0 -23.333 6.33301 -42 19 -56s28.834 -24.167 48.501 -30.5s40.5 -9.5 62.5 -9.5z" />
    <glyph glyph-name="b" unicode="b" 
d="M310 -12c-24.667 0 -51.5 6 -80.5 18s-55.833 28 -80.5 48h-2l-5 -54h-37v719h45v-208l-3 -103h2c24.667 24.667 53.167 44.834 85.5 60.501s63.833 23.5 94.5 23.5c45.333 0 83 -10 113 -30s52.667 -48.333 68 -85s23 -80 23 -130c0 -54 -10.333 -100.333 -31 -139
s-48 -68.334 -82 -89.001s-70.667 -31 -110 -31zM308 27c34 0 64.5 9.33301 91.5 28s48.167 44.5 63.5 77.5s23 71.167 23 114.5c0 39.333 -5.5 74.5 -16.5 105.5s-28.333 55.5 -52 73.5s-55.5 27 -95.5 27c-25.333 0 -52.833 -7.16699 -82.5 -21.5s-59.5 -36.5 -89.5 -66.5
v-267c28 -25.333 56.333 -43.5 85 -54.5s53 -16.5 73 -16.5z" />
    <glyph glyph-name="c" unicode="c" 
d="M347 -12c-49.333 0 -93.665 9.83105 -132.998 29.498s-70.333 48.334 -93 86.001s-34 82.834 -34 135.501c0 53.333 11.833 99 35.5 137s55.334 66.833 95.001 86.5s83.5 29.5 131.5 29.5c40 0 73.833 -7.33301 101.5 -22s51.167 -31.667 70.5 -51l-25 -30
c-20.667 19.333 -42.834 34.833 -66.501 46.5s-50.167 17.5 -79.5 17.5c-42.667 0 -80.334 -9 -113.001 -27s-58 -43.167 -76 -75.5s-27 -69.5 -27 -111.5s8.83301 -79 26.5 -111s42.667 -56.833 75 -74.5s70.166 -26.5 113.499 -26.5c32.667 0 62.5 6.5 89.5 19.5
s51.167 29.5 72.5 49.5l23 -31c-24.667 -22.667 -52.5 -41.167 -83.5 -55.5s-65.5 -21.5 -103.5 -21.5z" />
    <glyph glyph-name="d" unicode="d" 
d="M279 -12c-62.667 0 -113.664 21.666 -152.997 64.999s-59 105.333 -59 186c0 52 10.667 96.833 32 134.5s49.166 66.834 83.499 87.501s71.166 31 110.499 31c30.667 0 58.667 -6 84 -18s50 -28.667 74 -50h2l-3 97v198h45v-719h-38l-5 71h-2
c-20.667 -22 -45.834 -41.333 -75.501 -58s-61.5 -25 -95.5 -25zM285.003 26.999c28 0 55.8311 7.66699 83.498 23s54.834 37 81.501 65v267c-26.667 26 -52.667 44.333 -78 55s-50.666 16 -75.999 16c-34 0 -64.667 -9.33301 -92 -28s-49.166 -44.167 -65.499 -76.5
s-24.5 -68.833 -24.5 -109.5c0 -63.333 15.167 -114.5 45.5 -153.5s72.166 -58.5 125.499 -58.5z" />
    <glyph glyph-name="e" unicode="e" 
d="M330 -12c-46 0 -88.334 10.001 -127.001 30.001s-69.334 48.833 -92.001 86.5s-34 82.834 -34 135.501c0 52 11.333 96.833 34 134.5s52.334 66.667 89.001 87s75.667 30.5 117 30.5c44 0 82 -8.83301 114 -26.5s56.833 -43.167 74.5 -76.5s26.5 -73 26.5 -119v-18.5
c0 -6.33301 -0.666992 -12.5 -2 -18.5h-431v38h411l-18 -18c0 68 -16.167 118.5 -48.5 151.5s-74.166 49.5 -125.499 49.5c-33.333 0 -64.833 -8.33301 -94.5 -25s-54 -40.834 -73 -72.501s-28.5 -70.167 -28.5 -115.5c0 -46 9.66699 -85 29 -117s45 -56.333 77 -73
s67 -25 105 -25c32.667 0 62 4.83301 88 14.5s50.333 22.167 73 37.5l18 -33c-21.333 -14.667 -46.5 -27.834 -75.5 -39.501s-64.5 -17.5 -106.5 -17.5z" />
    <glyph glyph-name="f" unicode="f" 
d="M260 0v537.999c0 40.667 6.66699 75.334 20 104.001s33.166 50.667 59.499 66s59.5 23 99.5 23c22 0 43.833 -2 65.5 -6s44.834 -11.667 69.501 -23l-14 -34c-22 10.667 -41.5 17.5 -58.5 20.5s-36.833 4.5 -59.5 4.5c-50.667 0 -86.667 -13.833 -108 -41.5
s-32 -64.167 -32 -109.5v-542h-42zM115 441.999v34l145 4h265v-38h-410z" />
    <glyph glyph-name="g" unicode="g" 
d="M308 -231c-50 0 -91.499 5.83398 -124.499 17.501s-57.833 28 -74.5 49s-25 45.167 -25 72.5c0 18.667 7 38.167 21 58.5s34 38.5 60 54.5v4c-12 6 -23.333 15.333 -34 28s-16 29 -16 49c0 15.333 5 31.166 15 47.499s24.333 30.833 43 43.5v4
c-15.333 12.667 -28.666 29.334 -39.999 50.001s-17 45.334 -17 74.001c0 32.667 8.16699 62 24.5 88s38 46.333 65 61s56.833 22 89.5 22c25.333 0 47.333 -4 66 -12h200v-38h-145c14.667 -14 27.667 -31.5 39 -52.5s17 -44.167 17 -69.5
c0 -32.667 -7.83301 -61.667 -23.5 -87s-37 -45 -64 -59s-56.833 -21 -89.5 -21c-14.667 0 -29.834 1.83301 -45.501 5.5s-30.834 9.16699 -45.501 16.5c-14 -8.66699 -25.333 -18.834 -34 -30.501s-13 -23.834 -13 -36.501c0 -23.333 10 -40.333 30 -51s47 -16 81 -16h119
c61.333 0 105.833 -8.33301 133.5 -25s41.5 -44.334 41.5 -83.001c0 -27.333 -10.5 -53.666 -31.5 -78.999s-50.333 -45.833 -88 -61.5s-82.5 -23.5 -134.5 -23.5zM295.001 188.001c24 0 46.167 5.66699 66.5 17s36.5 27 48.5 47s18 43 18 69s-6 49.167 -18 69.5
s-28.167 36.166 -48.5 47.499s-42.5 17 -66.5 17c-24.667 0 -47 -5.66699 -67 -17s-36.167 -27.166 -48.5 -47.499s-18.5 -43.5 -18.5 -69.5s6.16699 -49 18.5 -69s28.5 -35.667 48.5 -47s42.333 -17 67 -17zM305.001 -194.999c44 0 81.833 6 113.5 18
s55.834 27.5 72.501 46.5s25 38.5 25 58.5c0 27.333 -10.333 46 -31 56s-52 15 -94 15h-114c-12 0 -24.5 0.666992 -37.5 2s-24.833 3.66602 -35.5 6.99902c-28.667 -15.333 -48.834 -31.666 -60.501 -48.999s-17.5 -34.666 -17.5 -51.999
c0 -28.667 14.833 -52.834 44.5 -72.501s74.5 -29.5 134.5 -29.5z" />
    <glyph glyph-name="h" unicode="h" 
d="M105 0v719.001h45v-208l-3 -126h2c28.667 31.333 58.167 57 88.5 77s64.833 30 103.5 30c58.667 0 102.167 -16 130.5 -48s42.5 -80.333 42.5 -145v-299h-45v293c0 54 -10.5 94 -31.5 120s-55.5 39 -103.5 39c-34 0 -64.5 -8.83301 -91.5 -26.5
s-57.833 -44.834 -92.5 -81.501v-344h-45z" />
    <glyph glyph-name="i" unicode="i" 
d="M338 0v442h-241v38h285v-480h-44zM349 597c-12.667 0 -23.667 4.33301 -33 13s-14 20.334 -14 35.001s4.66699 26.334 14 35.001s20.333 13 33 13c13.333 0 24.5 -4.33301 33.5 -13s13.5 -20.334 13.5 -35.001s-4.5 -26.334 -13.5 -35.001s-20.167 -13 -33.5 -13z" />
    <glyph glyph-name="j" unicode="j" 
d="M194 -229c-22.667 0 -45.6689 3.16895 -69.002 9.50195s-44 13.833 -62 22.5l18 35c15.333 -8 33.333 -14.833 54 -20.5s41.334 -8.5 62.001 -8.5c38 0 67 6.16699 87 18.5s34 29.666 42 51.999s12 48.166 12 77.499v485h-241v38h285v-517
c0 -29.333 -3.16699 -55.833 -9.5 -79.5s-16.666 -44 -30.999 -61s-33.5 -29.833 -57.5 -38.5s-54 -13 -90 -13zM348.998 597.002c-12.667 0 -23.667 4.33301 -33 13s-14 20.334 -14 35.001s4.66699 26.334 14 35.001s20.333 13 33 13c13.333 0 24.5 -4.33301 33.5 -13
s13.5 -20.334 13.5 -35.001s-4.5 -26.334 -13.5 -35.001s-20.167 -13 -33.5 -13z" />
    <glyph glyph-name="k" unicode="k" 
d="M123 0v719h45v-528h4l308 289h55l-367 -344v-136h-45zM516 0l-218 279l29 30l240 -309h-51z" />
    <glyph glyph-name="l" unicode="l" 
d="M413 -12c-44.667 0 -79.498 12.499 -104.498 37.499s-37.5 64.833 -37.5 119.5v536h-181v38h225v-580c0 -38 9 -66.167 27 -84.5s44 -27.5 78 -27.5c15.333 0 31.166 2 47.499 6s33.5 10.333 51.5 19l14 -34c-20 -9.33301 -38.833 -16.666 -56.5 -21.999
s-38.834 -8 -63.501 -8z" />
    <glyph glyph-name="m" unicode="m" 
d="M74 0l0.000976562 480h37l5 -65h2c14 23.333 29.167 42 45.5 56s38.166 21 65.499 21c26 0 46.667 -7 62 -21s26.333 -35.333 33 -64c17.333 27.333 34.5 48.333 51.5 63s39.167 22 66.5 22c33.333 0 59 -12 77 -36s27 -60 27 -108v-348h-44v343
c0 72.667 -23 109 -69 109c-21.333 0 -39.5 -7.5 -54.5 -22.5s-30.833 -37.5 -47.5 -67.5v-362h-42v343c0 36.667 -5.5 64 -16.5 82s-28.167 27 -51.5 27c-22 0 -40.667 -7.5 -56 -22.5s-31 -37.5 -47 -67.5v-362h-44z" />
    <glyph glyph-name="n" unicode="n" 
d="M105 0v480.001h38l5 -92h4c27.333 30 56 54.833 86 74.5s64.333 29.5 103 29.5c58.667 0 102.167 -16 130.5 -48s42.5 -80.333 42.5 -145v-299h-45v293c0 54 -10.5 94 -31.5 120s-55.5 39 -103.5 39c-34 0 -64.5 -8.83301 -91.5 -26.5s-57.833 -44.834 -92.5 -81.501
v-344h-45z" />
    <glyph glyph-name="o" unicode="o" 
d="M300 -12c-42 0 -80.667 9.83301 -116 29.5s-63.666 48.334 -84.999 86.001s-32 82.834 -32 135.501c0 53.333 10.667 99 32 137s49.666 66.833 84.999 86.5s74 29.5 116 29.5s80.667 -9.83301 116 -29.5s63.666 -48.5 84.999 -86.5s32 -83.667 32 -137
c0 -52.667 -10.667 -97.834 -32 -135.501s-49.666 -66.334 -84.999 -86.001s-74 -29.5 -116 -29.5zM300 27c36 0 68.167 8.83301 96.5 26.5s50.333 42.5 66 74.5s23.5 69 23.5 111s-7.83301 79.167 -23.5 111.5s-37.667 57.5 -66 75.5s-60.5 27 -96.5 27s-68 -9 -96 -27
s-50 -43.167 -66 -75.5s-24 -69.5 -24 -111.5s8 -79 24 -111s38 -56.833 66 -74.5s60 -26.5 96 -26.5z" />
    <glyph glyph-name="p" unicode="p" 
d="M105 -217v697.002h38l5 -69h2c24 23.333 52 42.666 84 57.999s63.667 23 95 23c46 0 83.833 -10 113.5 -30s52.167 -48.5 67.5 -85.5s23 -80.167 23 -129.5c0 -54 -10.5 -100.333 -31.5 -139s-48.5 -68.334 -82.5 -89.001s-71 -31 -111 -31c-22.667 0 -48.667 6 -78 18
s-56.333 28.667 -81 50h-2l3 -98v-175h-45zM306 27.002c34.667 0 65.667 9.33301 93 28s48.666 44.5 63.999 77.5s23 71.167 23 114.5c0 39.333 -5.5 74.5 -16.5 105.5s-28.333 55.5 -52 73.5s-55.5 27 -95.5 27c-25.333 0 -52.833 -7.16699 -82.5 -21.5
s-59.5 -36.5 -89.5 -66.5v-267c28 -25.333 56.333 -43.5 85 -54.5s52.334 -16.5 71.001 -16.5z" />
    <glyph glyph-name="q" unicode="q" 
d="M450 -217l0.000976562 193l3 96h-2c-22 -22.667 -47.667 -42.334 -77 -59.001s-61 -25 -95 -25c-62.667 0 -113.667 21.667 -153 65s-59 105.333 -59 186c0 52 10.667 96.833 32 134.5s49.166 66.834 83.499 87.501s71.166 31 110.499 31
c31.333 0 59.333 -5.83301 84 -17.5s49.334 -28.167 74.001 -49.5h2l5 55h37v-697h-45zM285.001 27c28 0 55.8311 7.66699 83.498 23s54.834 37 81.501 65v267c-26.667 26 -52.667 44.333 -78 55s-50.666 16 -75.999 16c-34 0 -64.667 -9.33301 -92 -28
s-49.166 -44.167 -65.499 -76.5s-24.5 -68.833 -24.5 -109.5c0 -63.333 15.167 -114.5 45.5 -153.5s72.166 -58.5 125.499 -58.5z" />
    <glyph glyph-name="r" unicode="r" 
d="M163 0l-0.00195312 480.001h38l5 -118h2c26 38 58.167 69.167 96.5 93.5s81.5 36.5 129.5 36.5c16 0 32.333 -1.33301 49 -4s32.334 -8 47.001 -16l-12 -39c-18 6 -32.833 10.333 -44.5 13s-27.167 4 -46.5 4c-40 0 -78.167 -11.333 -114.5 -34
s-71.166 -61.334 -104.499 -116.001v-300h-45z" />
    <glyph glyph-name="s" unicode="s" 
d="M319 -12c-49.333 0 -93.9961 7.66406 -133.996 22.9971s-74.333 33 -103 53l23 32c26.667 -20.667 57 -37.5 91 -50.5s76.333 -19.5 127 -19.5c49.333 0 86.333 9.5 111 28.5s37 41.167 37 66.5c0 10.667 -1.83301 21 -5.5 31s-11 19.5 -22 28.5s-27.833 17.5 -50.5 25.5
s-53 16 -91 24c-60.667 12 -107.834 28.667 -141.501 50s-50.5 49.333 -50.5 84c0 35.333 15.333 65.5 46 90.5s78 37.5 142 37.5c32 0 65 -5.5 99 -16.5s62.333 -25.167 85 -42.5l-24 -32c-20.667 16 -44.834 28.833 -72.501 38.5s-57.834 14.5 -90.501 14.5
c-35.333 0 -63 -4 -83 -12s-34.333 -18.667 -43 -32s-13 -27.666 -13 -42.999c0 -25.333 12.833 -45.333 38.5 -60s65.5 -27.667 119.5 -39c55.333 -11.333 97.666 -23.666 126.999 -36.999s49.333 -28.666 60 -45.999s16 -38 16 -62s-7.66699 -46.167 -23 -66.5
s-37.833 -36.833 -67.5 -49.5s-65.5 -19 -107.5 -19z" />
    <glyph glyph-name="t" unicode="t" 
d="M397 -12c-44 0 -78.4971 8.00195 -103.497 24.002s-42.667 38.333 -53 67s-15.5 62.334 -15.5 101.001v262h-145v34l146 4l6 159h37v-159h256v-38h-256v-266c0 -30.667 3.66699 -57.334 11 -80.001s20.666 -39.834 39.999 -51.501s47 -17.5 83 -17.5
c25.333 0 48.166 2.16699 68.499 6.5s40.166 10.5 59.499 18.5l12 -34c-22 -8.66699 -44.5 -15.834 -67.5 -21.501s-49.167 -8.5 -78.5 -8.5z" />
    <glyph glyph-name="u" unicode="u" 
d="M259 -12c-58.667 0 -101.999 16 -129.999 48s-42 80.333 -42 145v299h44v-293c0 -54 10.5 -94 31.5 -120s55.5 -39 103.5 -39c34 0 65 8.83301 93 26.5s58.333 45.167 91 82.5v343h44v-480h-37l-5 93h-4c-26 -30 -54.333 -55 -85 -75s-65.334 -30 -104.001 -30z" />
    <glyph glyph-name="v" unicode="v" 
d="M278 0l-216 480h46l132 -301l32 -70.5c10 -23 19.333 -45.5 28 -67.5h4l28.5 67.5l29.5 70.5l133 301h43l-213 -480h-47z" />
    <glyph glyph-name="w" unicode="w" 
d="M134 0l-123.001 479.998h47l76 -311l15.5 -64c5 -20.667 9.5 -42 13.5 -64h4c4.66699 22 9.66699 43.333 15 64l16 64l77 303h53l76 -303c5.33301 -22 10.833 -43.333 16.5 -64s10.834 -42 15.501 -64h4l15.5 64c5 20.667 9.83301 42 14.5 64l75 311h44l-121 -480h-60
l-75 290c-5.33301 22 -10.333 44.333 -15 67s-10 46.334 -16 71.001h-4c-4.66699 -24.667 -9.5 -48.667 -14.5 -72s-10.5 -45.666 -16.5 -66.999l-73 -289h-60z" />
    <glyph glyph-name="x" unicode="x" 
d="M80 0l192 249l-176 231h50l93 -122l29.5 -40l30.5 -41h4l32.5 42l30.5 41l90 120h48l-178 -233l194 -247h-51l-102 130l-33 44l-35 45h-4l-33.5 -44l-33.5 -46l-99 -129h-49z" />
    <glyph glyph-name="y" unicode="y" 
d="M124 -219c-9.33301 0 -19.332 0.998047 -29.999 2.99805s-19.667 4.33301 -27 7l12 39c6 -2 13.167 -3.83301 21.5 -5.5s16.833 -2.5 25.5 -2.5c37.333 0 68.166 12.167 92.499 36.5s43.5 54.5 57.5 90.5l17 42l-233 489h46l140 -302l31 -66.5
c11.333 -24.333 23 -47.166 35 -68.499h4l28.5 68.5l27.5 66.5l125 302h43l-226 -540c-9.33301 -26.667 -22.333 -52.167 -39 -76.5s-37.5 -44.166 -62.5 -59.499s-54.5 -23 -88.5 -23z" />
    <glyph glyph-name="z" unicode="z" 
d="M72 0v24l376 418h-336v38h403v-23l-376 -418h387v-39h-454z" />
    <glyph glyph-name="braceleft" unicode="{" 
d="M453 -152c-61.333 0 -107.333 8.83105 -138 26.498s-46 51.5 -46 101.5c0 24.667 0.666992 48.334 2 71.001s2.83301 45.167 4.5 67.5s2.5 44.833 2.5 67.5c0 14 -3.83301 27 -11.5 39s-22.167 21.833 -43.5 29.5s-52.666 11.5 -93.999 11.5v32
c41.333 0 72.666 3.83301 93.999 11.5s35.833 17.667 43.5 30s11.5 25.166 11.5 38.499c0 21.333 -0.833008 43.5 -2.5 66.5s-3.16699 46.333 -4.5 70s-2 46.834 -2 69.501c0 50 15.333 83.833 46 101.5s76.667 26.5 138 26.5h52v-29h-58c-37.333 0 -66 -3.66699 -86 -11
s-33.5 -18.5 -40.5 -33.5s-10.5 -34.5 -10.5 -58.5c0 -30 1.16699 -61.5 3.5 -94.5s3.5 -65.5 3.5 -97.5c0 -28.667 -5.83301 -51.667 -17.5 -69s-34.167 -29 -67.5 -35v-4c33.333 -6 55.833 -17.667 67.5 -35s17.5 -40.333 17.5 -69c0 -36 -1.16699 -68.833 -3.5 -98.5
s-3.5 -60.834 -3.5 -93.501c0 -23.333 3.5 -42.666 10.5 -57.999s20.5 -26.666 40.5 -33.999s48.667 -11 86 -11h58v-29h-52z" />
    <glyph glyph-name="bar" unicode="|" 
d="M280 -250v1000h40v-1000h-40z" />
    <glyph glyph-name="braceright" unicode="}" 
d="M95 -152v29.002h58c38 0 67 3.66699 87 11s33.667 18.666 41 33.999s11 34.666 11 57.999c0 32.667 -1.33301 63.834 -4 93.501s-4 62.5 -4 98.5c0 28.667 5.66699 51.667 17 69s34 29 68 35v4c-34 6 -56.667 17.667 -68 35s-17 40.333 -17 69c0 32 1.33301 64.5 4 97.5
s4 64.5 4 94.5c0 24 -3.66699 43.5 -11 58.5s-21 26.167 -41 33.5s-49 11 -87 11h-58v29h52c61.333 0 107.166 -8.83301 137.499 -26.5s45.5 -51.5 45.5 -101.5c0 -22.667 -0.666992 -45.834 -2 -69.501l-4 -70c-1.33301 -23 -2 -45.167 -2 -66.5
c0 -13.333 3.83301 -26.166 11.5 -38.499s22.167 -22.333 43.5 -30s52.333 -11.5 93 -11.5v-32c-40.667 0 -71.667 -3.83301 -93 -11.5s-35.833 -17.5 -43.5 -29.5s-11.5 -25 -11.5 -39c0 -22.667 0.666992 -45.167 2 -67.5l4 -67.5c1.33301 -22.667 2 -46.334 2 -71.001
c0 -50 -15.167 -83.833 -45.5 -101.5s-76.166 -26.5 -137.499 -26.5h-52z" />
    <glyph glyph-name="asciitilde" unicode="~" 
d="M389 266c-18.667 0 -36.001 4.66504 -52.001 13.998s-31 19.833 -45 31.5s-27.833 22 -41.5 31s-27.5 13.5 -41.5 13.5c-11.333 0 -22 -2 -32 -6s-19.5 -12.333 -28.5 -25s-17.833 -32 -26.5 -58l-31 12c14.667 44.667 32.834 75 54.501 91s43.5 24 65.5 24
c19.333 0 36.833 -4.66699 52.5 -14s30.5 -19.833 44.5 -31.5s27.833 -22 41.5 -31s27.5 -13.5 41.5 -13.5c11.333 0 22 1.83301 32 5.5s19.5 11.834 28.5 24.501s17.833 32.334 26.5 59.001l31 -14c-14.667 -43.333 -32.667 -73 -54 -89s-43.333 -24 -66 -24z" />
    <glyph glyph-name="uni00A0" unicode="&#xa0;" 
 />
    <glyph glyph-name="exclamdown" unicode="&#xa1;" 
d="M279 -190v71l5 380h32l5 -380v-71h-42zM300 366c-14.667 0 -28 5.5 -40 16.5s-18 26.5 -18 46.5c0 20.667 6 36.334 18 47.001s25.333 16 40 16c15.333 0 28.833 -5.33301 40.5 -16s17.5 -26.334 17.5 -47.001c0 -20 -5.83301 -35.5 -17.5 -46.5
s-25.167 -16.5 -40.5 -16.5z" />
    <glyph glyph-name="cent" unicode="&#xa2;" 
d="M342 80c-42 0 -79.498 8.99707 -112.498 26.9971s-59.167 44.167 -78.5 78.5s-29 76.166 -29 125.499c0 50 10.333 92.333 31 127s47.667 60.834 81 78.501s70 26.5 110 26.5c32.667 0 60.167 -6.16699 82.5 -18.5s41.5 -26.166 57.5 -41.499l-24 -28
c-15.333 14.667 -32.5 26.5 -51.5 35.5s-40.167 13.5 -63.5 13.5c-34 0 -64.333 -8 -91 -24s-47.667 -38.5 -63 -67.5s-23 -62.833 -23 -101.5c0 -57.333 16 -103.666 48 -138.999s74.667 -53 128 -53c26 0 50 5.33301 72 16s41 23.334 57 38.001l23 -29
c-20.667 -18.667 -43.834 -34 -69.501 -46s-53.834 -18 -84.501 -18zM315.002 -28.0029v680h35v-680h-35z" />
    <glyph glyph-name="sterling" unicode="&#xa3;" 
d="M85 0v26.9951c45.333 20.667 77.833 48.667 97.5 84s29.5 72 29.5 110c0 22.667 -3 44.834 -9 66.501s-13.333 43 -22 64s-16 42.333 -22 64s-9 43.5 -9 65.5c0 34.667 8 64.834 24 90.501s38.833 45.334 68.5 59.001s65.167 20.5 106.5 20.5s75.5 -7 102.5 -21
s49.167 -30.667 66.5 -50l-29 -27c-16 16.667 -35.333 30.667 -58 42s-50.667 17 -84 17c-50.667 0 -89.167 -12.5 -115.5 -37.5s-39.5 -56.167 -39.5 -93.5c0 -21.333 3 -42.166 9 -62.499s13 -40.833 21 -61.5s15 -42.167 21 -64.5s9 -46.166 9 -71.499
c0 -41.333 -6.83301 -75.5 -20.5 -102.5s-34.5 -51.833 -62.5 -74.5v-4h351v-40h-435zM81 292.995v33l112 3h240v-36h-352z" />
    <glyph glyph-name="currency" unicode="&#xa4;" 
d="M98 94l-27.0029 28.001l86 87c-12 16 -21.333 34 -28 54s-10 41.667 -10 65c0 24.667 3.33301 47.167 10 67.5s15.667 38.5 27 54.5l-85 88l27 28l86 -89c32.667 29.333 71.334 44 116.001 44c44 0 82.667 -14.667 116 -44l86 89l27 -28l-86 -88
c11.333 -16 20.5 -34.167 27.5 -54.5s10.5 -42.833 10.5 -67.5c0 -23.333 -3.5 -45 -10.5 -65s-16.167 -38 -27.5 -54l86 -87l-27 -28l-86 88c-15.333 -14.667 -33.166 -25.834 -53.499 -33.501s-41.166 -11.5 -62.499 -11.5c-44.667 0 -83.667 15 -117 45zM299.997 174.001
c24.667 0 47.5 6.5 68.5 19.5s37.667 31 50 54s18.5 49.833 18.5 80.5s-6.16699 57.667 -18.5 81s-29 41.666 -50 54.999s-43.833 20 -68.5 20s-47.334 -6.66699 -68.001 -20s-37.334 -31.666 -50.001 -54.999s-19 -50.333 -19 -81s6.33301 -57.5 19 -80.5
s29.334 -41 50.001 -54s43.334 -19.5 68.001 -19.5z" />
    <glyph glyph-name="yen" unicode="&#xa5;" 
d="M277 0v165h-189v34h189v71h-189v33h175l-198 336h47l110 -193l37.5 -66.5l38.5 -70.5h4l39 70.5l39 66.5l111 193h44l-200 -336h177v-33h-191v-71h191v-34h-191v-165h-44z" />
    <glyph glyph-name="brokenbar" unicode="&#xa6;" 
d="M280 -250v440h40v-440h-40zM280 310v440h40v-440h-40z" />
    <glyph glyph-name="section" unicode="&#xa7;" 
d="M294 -52c-36 0 -68.167 6 -96.5 18s-52.833 27 -73.5 45l30 28c18 -16 37.5 -29 58.5 -39s48.167 -15 81.5 -15c30.667 0 55 8.5 73 25.5s27 36.833 27 59.5s-7 41.167 -21 55.5s-32.167 26.833 -54.5 37.5s-46 21 -71 31s-48.5 21.333 -70.5 34s-40 29 -54 49
s-21 45 -21 75c0 35.333 11.167 64 33.5 86s49.166 39.667 80.499 53l20 -28c-27.333 -13.333 -49.666 -28 -66.999 -44s-26 -37.333 -26 -64c0 -24.667 7.16699 -45.167 21.5 -61.5s32.5 -30.166 54.5 -41.499s45.5 -22 70.5 -32s48.667 -21 71 -33
s40.5 -27.167 54.5 -45.5s21 -41.5 21 -69.5c0 -24 -6.5 -45.333 -19.5 -64s-30.333 -33.334 -52 -44.001s-45.167 -16 -70.5 -16zM355 173c32.667 12.667 57.8311 26.332 75.498 40.999s26.5 37 26.5 67c0 26 -7 47.333 -21 64s-32.167 30.834 -54.5 42.501
s-45.666 22.5 -69.999 32.5s-47.666 20.833 -69.999 32.5s-40.5 26.5 -54.5 44.5s-21 40.333 -21 67c0 19.333 5 38 15 56s25 32.667 45 44s45.333 17 76 17c29.333 0 56.5 -5 81.5 -15s47.5 -22.667 67.5 -38l-24 -31c-17.333 13.333 -35.666 24.333 -54.999 33
s-42.333 13 -69 13c-34 0 -58.167 -8 -72.5 -24s-21.5 -33.333 -21.5 -52c0 -22 6.83301 -40 20.5 -54s31.667 -26.167 54 -36.5s45.666 -20.5 69.999 -30.5s47.5 -21.833 69.5 -35.5s40 -30.334 54 -50.001s21 -45.167 21 -76.5c0 -25.333 -5.33301 -46.666 -16 -63.999
s-25 -32 -43 -44s-38.333 -23 -61 -33z" />
    <glyph glyph-name="dieresis" unicode="&#xa8;" 
d="M211 598c-11.333 0 -20.833 4 -28.5 12s-11.5 18 -11.5 30c0 11.333 3.83301 21 11.5 29s17.167 12 28.5 12c12 0 21.667 -4 29 -12s11 -17.667 11 -29c0 -12 -3.83301 -22 -11.5 -30s-17.167 -12 -28.5 -12zM389 598c-12 0 -21.667 4 -29 12s-11 18 -11 30
c0 11.333 3.83301 21 11.5 29s17.167 12 28.5 12s20.833 -4 28.5 -12s11.5 -17.667 11.5 -29c0 -12 -3.83301 -22 -11.5 -30s-17.167 -12 -28.5 -12z" />
    <glyph glyph-name="copyright" unicode="&#xa9;" 
d="M300 -12c-51.333 0 -96.666 13.833 -135.999 41.5s-70.333 66.5 -93 116.5s-34 108.667 -34 176c0 68 11.333 126.667 34 176s53.667 87.333 93 114s84.666 40 135.999 40s96.666 -13.333 135.999 -40s70.333 -64.667 93 -114s34 -108 34 -176
c0 -67.333 -11.333 -126 -34 -176s-53.667 -88.833 -93 -116.5s-84.666 -41.5 -135.999 -41.5zM300 19c46 0 86 12.5 120 37.5s60.5 60.5 79.5 106.5s28.5 99 28.5 159c0 60.667 -9.5 113.334 -28.5 158.001s-45.5 79.5 -79.5 104.5s-74 37.5 -120 37.5
s-86 -12.5 -120 -37.5s-60.5 -59.833 -79.5 -104.5s-28.5 -97.334 -28.5 -158.001c0 -60 9.5 -113 28.5 -159s45.5 -81.5 79.5 -106.5s74 -37.5 120 -37.5zM305 124c-28 0 -53.6719 7.83105 -77.0049 23.498s-42.166 38.167 -56.499 67.5s-21.5 65 -21.5 107
c0 38.667 7.5 72 22.5 100s34.667 49.5 59 64.5s50.5 22.5 78.5 22.5c22.667 0 41.834 -4.16699 57.501 -12.5s29.834 -19.166 42.501 -32.499l-22 -26c-12.667 10.667 -24.834 19 -36.501 25s-25.5 9 -41.5 9c-34 0 -62 -13.667 -84 -41s-33 -63.666 -33 -108.999
c0 -50 10.5 -89.333 31.5 -118s48.5 -43 82.5 -43c20.667 0 38.334 4 53.001 12s28.334 17.333 41.001 28l19 -28c-14.667 -13.333 -30.667 -24.833 -48 -34.5s-39.666 -14.5 -66.999 -14.5z" />
    <glyph glyph-name="ordfeminine" unicode="&#xaa;" 
d="M277 398c-27.333 0 -51.332 7.50293 -71.999 22.5029s-31 36.833 -31 65.5c0 35.333 18.333 62.166 55 80.499s92.667 31.166 168 38.499c-0.666992 16.667 -3.33398 32 -8.00098 46s-12.667 25.333 -24 34s-27.666 13 -48.999 13c-22 0 -42.5 -4 -61.5 -12
s-35.167 -16 -48.5 -24l-17 28c13.333 8.66699 32 17.667 56 27s49.333 14 76 14c42 0 71.833 -11.667 89.5 -35s26.5 -53.333 26.5 -90v-200h-34l-3 40h-1c-17.333 -12.667 -36.333 -23.834 -57 -33.501s-42.334 -14.5 -65.001 -14.5zM286.001 431.003
c18.667 0 36.834 4.16699 54.501 12.5s36.5 19.833 56.5 34.5v99c-66 -6.66699 -113 -17 -141 -31s-42 -33 -42 -57c0 -20.667 7.16699 -35.5 21.5 -44.5s31.166 -13.5 50.499 -13.5z" />
    <glyph glyph-name="guillemotleft" unicode="&#xab;" 
d="M248 68l-142 163v42l142 163l25 -23l-126 -161l126 -163zM456 68l-142 163v42l142 163l25 -23l-126 -161l126 -163z" />
    <glyph glyph-name="logicalnot" unicode="&#xac;" 
d="M464 110v201h-369v38h410v-239h-41z" />
    <glyph glyph-name="uni00AD" unicode="&#xad;" 
d="M95 311v38h410v-38h-410z" />
    <glyph glyph-name="registered" unicode="&#xae;" 
d="M300 324c-33.333 0 -63.833 8.16699 -91.5 24.5s-49.667 38.833 -66 67.5s-24.5 62.334 -24.5 101.001c0 39.333 8.16699 73.5 24.5 102.5s38.333 51.667 66 68s58.167 24.5 91.5 24.5s63.833 -8.16699 91.5 -24.5s49.667 -39 66 -68s24.5 -63.167 24.5 -102.5
c0 -38.667 -8.16699 -72.334 -24.5 -101.001s-38.333 -51.167 -66 -67.5s-58.167 -24.5 -91.5 -24.5zM300 353c28 0 53.333 7 76 21s40.834 33.5 54.501 58.5s20.5 53.167 20.5 84.5c0 32 -6.83301 60.5 -20.5 85.5s-31.834 44.833 -54.501 59.5s-48 22 -76 22
s-53.5 -7.33301 -76.5 -22s-41.167 -34.5 -54.5 -59.5s-20 -53.5 -20 -85.5c0 -31.333 6.66699 -59.5 20 -84.5s31.5 -44.5 54.5 -58.5s48.5 -21 76.5 -21zM232 418l-0.000976562 206h69c20 0 37.667 -4.33301 53 -13s23 -25.667 23 -51c0 -12 -3.66699 -23.333 -11 -34
s-16.666 -18 -27.999 -22l49 -86h-37l-39 76h-47v-76h-32zM263.999 521h28c16 0 28.667 2.83301 38 8.5s14 15.167 14 28.5c0 11.333 -3.5 20.5 -10.5 27.5s-19.5 10.5 -37.5 10.5h-32v-75z" />
    <glyph glyph-name="macron" unicode="&#xaf;" 
d="M177 606v36h246v-36h-246z" />
    <glyph glyph-name="degree" unicode="&#xb0;" 
d="M300 447c-19.333 0 -37.666 4.66699 -54.999 14s-31.5 22.833 -42.5 40.5s-16.5 38.834 -16.5 63.501s5.5 46 16.5 64s25.167 31.667 42.5 41s35.666 14 54.999 14c20 0 38.5 -4.66699 55.5 -14s31 -23 42 -41s16.5 -39.333 16.5 -64s-5.5 -45.834 -16.5 -63.501
s-25 -31.167 -42 -40.5s-35.5 -14 -55.5 -14zM300 479c23.333 0 42.5 8.16699 57.5 24.5s22.5 36.833 22.5 61.5c0 25.333 -7.5 46.333 -22.5 63s-34.167 25 -57.5 25s-42.5 -8.33301 -57.5 -25s-22.5 -37.667 -22.5 -63c0 -24.667 7.5 -45.167 22.5 -61.5
s34.167 -24.5 57.5 -24.5z" />
    <glyph glyph-name="plusminus" unicode="&#xb1;" 
d="M279 109v201h-184v37h184v203h42v-203h184v-37h-184v-201h-42zM95 0v37h410v-37h-410z" />
    <glyph glyph-name="uni00B2" unicode="&#xb2;" 
d="M166 406l-1.00293 24.9971l119.5 109c31.667 28.667 55.167 53.834 70.5 75.501s23 43.5 23 65.5c0 28.667 -8.66699 51.334 -26 68.001s-40.666 25 -69.999 25c-20 0 -39 -6 -57 -18s-32.667 -26.667 -44 -44l-25 23c12.667 20 30.834 37.167 54.501 51.5
s48.834 21.5 75.501 21.5c39.333 0 71 -10.167 95 -30.5s36 -51.166 36 -92.499c0 -27.333 -8.16699 -53 -24.5 -77s-38.833 -49.333 -67.5 -76l-97 -92h212v-34h-274z" />
    <glyph glyph-name="uni00B3" unicode="&#xb3;" 
d="M296 394c-32 0 -61 7.33105 -87 21.998s-46 32.334 -60 53.001l29 22c12.667 -19.333 29.667 -34.833 51 -46.5s44 -17.5 68 -17.5c27.333 0 51 7.16699 71 21.5s30 34.833 30 61.5c0 26 -12.167 45.833 -36.5 59.5s-61.5 20.5 -111.5 20.5v28
c46.667 0 80.334 8.5 101.001 25.5s31 36.5 31 58.5s-8.33301 39.667 -25 53s-39.334 20 -68.001 20c-17.333 0 -35 -4.66699 -53 -14s-33.333 -22 -46 -38l-25 22c14.667 18.667 33 33.834 55 45.501s46.333 17.5 73 17.5c23.333 0 44.666 -4 63.999 -12
s34.833 -19.833 46.5 -35.5s17.5 -34.167 17.5 -55.5c0 -24 -7 -44 -21 -60s-35.333 -29 -64 -39c30.667 -4 55.167 -14.333 73.5 -31s27.5 -38.667 27.5 -66c0 -24 -6.16699 -44.667 -18.5 -62s-29.166 -30.5 -50.499 -39.5s-45.333 -13.5 -72 -13.5z" />
    <glyph glyph-name="acute" unicode="&#xb4;" 
d="M269 572l-24 23l134 159l34 -31z" />
    <glyph glyph-name="uni00B5" unicode="&#xb5;" 
d="M96 -182l-0.000976562 662.002h44v-293c0 -50 9.66699 -89 29 -117s51 -42 95 -42c18.667 0 37.5 2.66699 56.5 8s38.5 16.666 58.5 33.999s40.667 43.666 62 78.999v331h44c0 -46.667 -0.166992 -93.667 -0.5 -141s-0.833008 -94.5 -1.5 -141.5s-1 -93.5 -1 -139.5
c0 -10.667 2.33301 -18.5 7 -23.5s10.334 -7.5 17.001 -7.5c2 0 4.33301 0.166992 7 0.5s6.33398 0.833008 11.001 1.5l7 -36c-4 -1.33301 -8.5 -2.5 -13.5 -3.5s-10.833 -1.5 -17.5 -1.5c-22 0 -37.333 7.5 -46 22.5s-12.334 44.5 -11.001 88.5h-2
c-23.333 -38 -50 -65.833 -80 -83.5s-61.333 -26.5 -94 -26.5c-28 0 -53 4.5 -75 13.5s-41 27.5 -57 55.5c0 -38 0.166992 -69.5 0.5 -94.5s0.833008 -48.5 1.5 -70.5s1.66699 -47 3 -75h-44z" />
    <glyph glyph-name="paragraph" unicode="&#xb6;" 
d="M336 244c-49.333 0 -92.667 6.83105 -130 20.498s-66.5 35.834 -87.5 66.501s-31.5 70.667 -31.5 120c0 50 9.83301 90.333 29.5 121s47 52.834 82 66.501s75.167 20.5 120.5 20.5h44v-415h-27zM418.999 -80.002v739h42v-739h-42z" />
    <glyph glyph-name="periodcentered" unicode="&#xb7;" 
d="M300 278c-15.333 0 -29.166 5.83301 -41.499 17.5s-18.5 27.5 -18.5 47.5c0 21.333 6.16699 37.5 18.5 48.5s26.166 16.5 41.499 16.5c16 0 30 -5.5 42 -16.5s18 -27.167 18 -48.5c0 -20 -6 -35.833 -18 -47.5s-26 -17.5 -42 -17.5z" />
    <glyph glyph-name="cedilla" unicode="&#xb8;" 
d="M223 -219l-7.00098 29.9971c43.333 3.33301 73 9.33301 89 18s24 20.334 24 35.001s-6.16699 25.834 -18.5 33.501s-32.166 13.5 -59.499 17.5l34 92h35l-23 -72c22 -5.33301 39.333 -13.166 52 -23.499s19 -25.5 19 -45.5c0 -26 -12.333 -45.833 -37 -59.5
s-60.667 -22.167 -108 -25.5z" />
    <glyph glyph-name="uni00B9" unicode="&#xb9;" 
d="M305 406v324h-102v27c24 4 44.5 9 61.5 15s32.167 14 45.5 24h33v-390h-38zM180 406v34h281v-34h-281z" />
    <glyph glyph-name="ordmasculine" unicode="&#xba;" 
d="M300 398c-27.333 0 -52.5 6.5 -75.5 19.5s-41.5 32 -55.5 57s-21 54.833 -21 89.5c0 36 7 66.333 21 91s32.5 43.5 55.5 56.5s48.167 19.5 75.5 19.5s52.5 -6.5 75.5 -19.5s41.5 -31.833 55.5 -56.5s21 -55 21 -91c0 -34.667 -7 -64.5 -21 -89.5s-32.5 -44 -55.5 -57
s-48.167 -19.5 -75.5 -19.5zM300 432c32.667 0 59.167 12.333 79.5 37s30.5 56.667 30.5 96s-10.167 71.333 -30.5 96s-46.833 37 -79.5 37s-59.167 -12.333 -79.5 -37s-30.5 -56.667 -30.5 -96s10.167 -71.333 30.5 -96s46.833 -37 79.5 -37z" />
    <glyph glyph-name="guillemotright" unicode="&#xbb;" 
d="M144 68l-25 21l126 163l-126 161l25 23l142 -163v-42zM352 68l-25 21l126 163l-126 161l25 23l142 -163v-42z" />
    <glyph glyph-name="onequarter" unicode="&#xbc;" 
d="M157 338v241.001h-82v29c20.667 3.33301 37.5 7.66602 50.5 12.999s25.833 11.333 38.5 18h31v-301h-38zM67 35.001l-32 28l181 197l22 -20zM384 399.001l-22 20l171 205l32 -28zM479 0.000976562v212h36v-212h-36zM316 81.001v20l124 212l28 -15l-109 -188h205v-29h-248
z" />
    <glyph glyph-name="onehalf" unicode="&#xbd;" 
d="M157 338v241.001h-82v29c20.667 3.33301 37.5 7.66602 50.5 12.999s25.833 11.333 38.5 18h31v-301h-38zM67 35.001l-32 28l181 197l22 -20zM384 399.001l-22 20l171 205l32 -28zM330 0.000976562l0.000976562 23.998c39.333 31.333 71.5 58 96.5 80s43.5 41.333 55.5 58
s18 33.334 18 50.001c0 21.333 -6.16699 38 -18.5 50s-29.5 18 -51.5 18c-16 0 -31 -4.33301 -45 -13s-26 -19.667 -36 -33l-27 21c13.333 16 29.5 29.667 48.5 41s39.5 17 61.5 17c34 0 60.333 -8.5 79 -25.5s28 -41.833 28 -74.5c0 -19.333 -6.33301 -38.166 -19 -56.499
s-29.834 -37.5 -51.501 -57.5l-73.5 -66h161v-33h-226z" />
    <glyph glyph-name="threequarters" unicode="&#xbe;" 
d="M158 326c-24 0 -46.999 5.99805 -68.999 17.998s-39.667 26.333 -53 43l26 24c10.667 -14.667 24.5 -27.167 41.5 -37.5s35.5 -15.5 55.5 -15.5c22 0 39.667 4.66699 53 14s20 24 20 44c0 20.667 -9 36 -27 46s-45.333 15 -82 15v28c32.667 0 56.5 6 71.5 18
s22.5 26.667 22.5 44c0 16 -5.16699 28.667 -15.5 38s-26.833 14 -49.5 14c-12 0 -25.5 -3.16699 -40.5 -9.5s-27.5 -15.833 -37.5 -28.5l-23 23c12 14.667 27.5 26.167 46.5 34.5s38.833 12.5 59.5 12.5c29.333 0 53.166 -7 71.499 -21s27.5 -34 27.5 -60
c0 -19.333 -4.83301 -35.166 -14.5 -47.499s-24.167 -22.166 -43.5 -29.499c20.667 -4 38 -12.5 52 -25.5s21 -30.5 21 -52.5c0 -20 -4.83301 -36.5 -14.5 -49.5s-23 -22.833 -40 -29.5s-36.5 -10 -58.5 -10zM103.001 34.998l-32 28l181 197l22 -20zM420.001 398.998l-22 20
l171 205l32 -28zM479.001 -0.00195312v212h36v-212h-36zM316.001 80.998v20l124 212l28 -15l-109 -188h205v-29h-248z" />
    <glyph glyph-name="questiondown" unicode="&#xbf;" 
d="M306 -202c-36 0 -67.001 6.8291 -93.001 20.4961s-46 31.834 -60 54.501s-21 48.334 -21 77.001c0 27.333 6.33301 51.5 19 72.5s28.334 40.167 47.001 57.5l54 52c17.333 17.333 31.333 36.333 42 57s13.667 44.667 9 72h40
c5.33301 -29.333 3.16602 -55.166 -6.50098 -77.499s-23.167 -42.5 -40.5 -60.5s-35.166 -35.5 -53.499 -52.5s-33.833 -34.833 -46.5 -53.5s-19 -39.667 -19 -63c0 -31.333 10.667 -58.666 32 -81.999s54.666 -35 99.999 -35c28.667 0 55.334 5.66699 80.001 17
s46.667 27 66 47l29 -27c-20.667 -21.333 -46 -39.333 -76 -54s-64 -22 -102 -22zM313.999 365.996c-14.667 0 -28 5.5 -40 16.5s-18 26.5 -18 46.5c0 20.667 6 36.334 18 47.001s25.333 16 40 16c15.333 0 28.833 -5.33301 40.5 -16s17.5 -26.334 17.5 -47.001
c0 -20 -5.83301 -35.5 -17.5 -46.5s-25.167 -16.5 -40.5 -16.5z" />
    <glyph glyph-name="Agrave" unicode="&#xc0;" 
d="M45 0l232 659h46l232 -659h-49l-131 388l-38 113.5c-12 36.333 -23.667 74.5 -35 114.5h-4l-35.5 -114.5l-37.5 -113.5l-134 -388h-46zM151 226v39h295v-39h-295zM324 706l-133 113l29 33l124 -123z" />
    <glyph glyph-name="Aacute" unicode="&#xc1;" 
d="M45 0l232 659h46l232 -659h-49l-131 388l-38 113.5c-12 36.333 -23.667 74.5 -35 114.5h-4l-35.5 -114.5l-37.5 -113.5l-134 -388h-46zM151 226v39h295v-39h-295zM276 706l-20 23l124 123l29 -33z" />
    <glyph glyph-name="Acircumflex" unicode="&#xc2;" 
d="M45 0l232 659h46l232 -659h-49l-131 388l-38 113.5c-12 36.333 -23.667 74.5 -35 114.5h-4l-35.5 -114.5l-37.5 -113.5l-134 -388h-46zM151 226v39h295v-39h-295zM185 707l-20 19l113 113h44l113 -113l-20 -19l-113 98h-4z" />
    <glyph glyph-name="Atilde" unicode="&#xc3;" 
d="M45 0l232 659h46l232 -659h-49l-131 388l-38 113.5c-12 36.333 -23.667 74.5 -35 114.5h-4l-35.5 -114.5l-37.5 -113.5l-134 -388h-46zM151 226v39h295v-39h-295zM377 718c-18.667 0 -34.8359 4.16602 -48.5029 12.499s-25.834 17.5 -36.501 27.5s-21.334 19 -32.001 27
s-23 12 -37 12c-14.667 0 -27 -6.83301 -37 -20.5s-16 -32.167 -18 -55.5l-33 3c2 31.333 10.333 57.5 25 78.5s35.667 31.5 63 31.5c18.667 0 34.834 -4 48.501 -12s25.834 -17.167 36.501 -27.5s21.334 -19.5 32.001 -27.5s23 -12 37 -12c14.667 0 26.834 7 36.501 21
s15.834 32.667 18.501 56l33 -3c-1.33301 -31.333 -9.5 -57.666 -24.5 -78.999s-36.167 -32 -63.5 -32z" />
    <glyph glyph-name="Adieresis" unicode="&#xc4;" 
d="M45 0l232 659h46l232 -659h-49l-131 388l-38 113.5c-12 36.333 -23.667 74.5 -35 114.5h-4l-35.5 -114.5l-37.5 -113.5l-134 -388h-46zM151 226v39h295v-39h-295zM220 725c-10 0 -18.667 3.33301 -26 10s-11 15.667 -11 27s3.66699 20.333 11 27s16 10 26 10
c10.667 0 19.5 -3.33301 26.5 -10s10.5 -15.667 10.5 -27s-3.5 -20.333 -10.5 -27s-15.833 -10 -26.5 -10zM380 725c-10 0 -18.667 3.33301 -26 10s-11 15.667 -11 27s3.66699 20.333 11 27s16 10 26 10c10.667 0 19.5 -3.33301 26.5 -10s10.5 -15.667 10.5 -27
s-3.5 -20.333 -10.5 -27s-15.833 -10 -26.5 -10z" />
    <glyph glyph-name="Aring" unicode="&#xc5;" 
d="M45 0l232 659h46l232 -659h-49l-131 388l-38 113.5c-12 36.333 -23.667 74.5 -35 114.5h-4l-35.5 -114.5l-37.5 -113.5l-134 -388h-46zM151 226v39h295v-39h-295zM300 700c-24.667 0 -45.5 7.83301 -62.5 23.5s-25.5 36.167 -25.5 61.5c0 26 8.5 46.833 25.5 62.5
s37.833 23.5 62.5 23.5c24 0 44.667 -7.83301 62 -23.5s26 -36.5 26 -62.5c0 -25.333 -8.66699 -45.833 -26 -61.5s-38 -23.5 -62 -23.5zM300 726c14.667 0 27.667 5 39 15s17 24.667 17 44c0 18.667 -5.66699 33.334 -17 44.001s-24.333 16 -39 16
c-16 0 -29.667 -5.33301 -41 -16s-17 -25.334 -17 -44.001c0 -19.333 5.66699 -34 17 -44s25 -15 41 -15z" />
    <glyph glyph-name="AE" unicode="&#xc6;" 
d="M0 0l291 659h288v-40h-214v-249h163v-40h-163v-290h224v-40h-268v619h-4l-49.5 -113.5l-50.5 -116.5l-167 -389h-50zM130 217v38h220v-38h-220z" />
    <glyph glyph-name="Ccedilla" unicode="&#xc7;" 
d="M348 -12c-40.667 0 -77.8311 7.99707 -111.498 23.9971s-62.834 39 -87.501 69s-43.667 66 -57 108s-20 89.333 -20 142c0 69.333 11.833 129.5 35.5 180.5s56.667 90.333 99 118s91.5 41.5 147.5 41.5c38.667 0 72.667 -8 102 -24s52.666 -34.333 69.999 -55l-28 -30
c-17.333 20.667 -38 37 -62 49s-51.333 18 -82 18c-48 0 -89.5 -12.167 -124.5 -36.5s-62 -58.666 -81 -102.999s-28.5 -97.166 -28.5 -158.499c0 -60.667 9.5 -113.667 28.5 -159s45.833 -80.333 80.5 -105s75.667 -37 123 -37c34 0 64.167 6.83301 90.5 20.5
s51.166 33.834 74.499 60.501l27 -29c-24.667 -28.667 -52.667 -51.5 -84 -68.5s-68.666 -25.5 -111.999 -25.5zM277.003 -219.003l-7.00098 29.9971c43.333 3.33301 73 9.33301 89 18s24 20.334 24 35.001s-6.16699 25.834 -18.5 33.501s-32.166 13.5 -59.499 17.5l34 92
h35l-23 -72c22 -5.33301 39.333 -13.166 52 -23.499s19 -25.5 19 -45.5c0 -26 -12.333 -45.833 -37 -59.5s-60.667 -22.167 -108 -25.5z" />
    <glyph glyph-name="Egrave" unicode="&#xc8;" 
d="M127 0v659h390v-40h-344v-249h290v-40h-290v-290h354v-40h-400zM360 706l-133 113l29 33l124 -123z" />
    <glyph glyph-name="Eacute" unicode="&#xc9;" 
d="M127 0v659h390v-40h-344v-249h290v-40h-290v-290h354v-40h-400zM312 706l-20 23l124 123l29 -33z" />
    <glyph glyph-name="Ecircumflex" unicode="&#xca;" 
d="M127 0v659h390v-40h-344v-249h290v-40h-290v-290h354v-40h-400zM221 707l-20 19l113 113h44l113 -113l-20 -19l-113 98h-4z" />
    <glyph glyph-name="Edieresis" unicode="&#xcb;" 
d="M127 0v659h390v-40h-344v-249h290v-40h-290v-290h354v-40h-400zM256 725c-10 0 -18.667 3.33301 -26 10s-11 15.667 -11 27s3.66699 20.333 11 27s16 10 26 10c10.667 0 19.5 -3.33301 26.5 -10s10.5 -15.667 10.5 -27s-3.5 -20.333 -10.5 -27s-15.833 -10 -26.5 -10z
M416 725c-10 0 -18.667 3.33301 -26 10s-11 15.667 -11 27s3.66699 20.333 11 27s16 10 26 10c10.667 0 19.5 -3.33301 26.5 -10s10.5 -15.667 10.5 -27s-3.5 -20.333 -10.5 -27s-15.833 -10 -26.5 -10z" />
    <glyph glyph-name="Igrave" unicode="&#xcc;" 
d="M107 0v40h170v579h-170v40h386v-40h-170v-579h170v-40h-386zM324 706l-133 113l29 33l124 -123z" />
    <glyph glyph-name="Iacute" unicode="&#xcd;" 
d="M107 0v40h170v579h-170v40h386v-40h-170v-579h170v-40h-386zM276 706l-20 23l124 123l29 -33z" />
    <glyph glyph-name="Icircumflex" unicode="&#xce;" 
d="M107 0v40h170v579h-170v40h386v-40h-170v-579h170v-40h-386zM185 707l-20 19l113 113h44l113 -113l-20 -19l-113 98h-4z" />
    <glyph glyph-name="Idieresis" unicode="&#xcf;" 
d="M107 0v40h170v579h-170v40h386v-40h-170v-579h170v-40h-386zM220 725c-10 0 -18.667 3.33301 -26 10s-11 15.667 -11 27s3.66699 20.333 11 27s16 10 26 10c10.667 0 19.5 -3.33301 26.5 -10s10.5 -15.667 10.5 -27s-3.5 -20.333 -10.5 -27s-15.833 -10 -26.5 -10z
M380 725c-10 0 -18.667 3.33301 -26 10s-11 15.667 -11 27s3.66699 20.333 11 27s16 10 26 10c10.667 0 19.5 -3.33301 26.5 -10s10.5 -15.667 10.5 -27s-3.5 -20.333 -10.5 -27s-15.833 -10 -26.5 -10z" />
    <glyph glyph-name="Eth" unicode="&#xd0;" 
d="M96 0l0.00195312 331h-77v33l77 5v290h152c67.333 0 123.166 -13.333 167.499 -40s77.166 -64.667 98.499 -114s32 -107 32 -173c0 -66.667 -10.667 -125 -32 -175s-54 -88.667 -98 -116s-99.667 -41 -167 -41h-153zM142.002 39l102 0.000976562
c59.333 0 107.666 12.5 144.999 37.5s64.833 59.5 82.5 103.5s26.5 94.667 26.5 152s-8.83301 107.666 -26.5 150.999s-45.167 77 -82.5 101s-85.666 36 -144.999 36h-102v-251h165v-38h-165v-292z" />
    <glyph glyph-name="Ntilde" unicode="&#xd1;" 
d="M92 0v659h49l257 -466l70 -130h2c-0.666992 31.333 -1.83398 63 -3.50098 95s-2.5 64 -2.5 96v405h44v-659h-49l-257 466l-70 130h-2c0.666992 -32 1.83398 -63.167 3.50098 -93.5s2.5 -61.5 2.5 -93.5v-409h-44zM387 718c-18.667 0 -34.8359 4.16602 -48.5029 12.499
s-25.834 17.5 -36.501 27.5s-21.334 19 -32.001 27s-23 12 -37 12c-14.667 0 -27 -6.83301 -37 -20.5s-16 -32.167 -18 -55.5l-33 3c2 31.333 10.333 57.5 25 78.5s35.667 31.5 63 31.5c18.667 0 34.834 -4 48.501 -12s25.834 -17.167 36.501 -27.5
s21.334 -19.5 32.001 -27.5s23 -12 37 -12c14.667 0 26.834 7 36.501 21s15.834 32.667 18.501 56l33 -3c-1.33301 -31.333 -9.5 -57.666 -24.5 -78.999s-36.167 -32 -63.5 -32z" />
    <glyph glyph-name="Ograve" unicode="&#xd2;" 
d="M300 -12c-48 0 -90.5 14 -127.5 42s-66 67.833 -87 119.5s-31.5 112.5 -31.5 182.5c0 69.333 10.5 129.5 31.5 180.5s50 90.167 87 117.5s79.5 41 127.5 41s90.5 -13.667 127.5 -41s66 -66.5 87 -117.5s31.5 -111.167 31.5 -180.5c0 -70 -10.5 -130.833 -31.5 -182.5
s-50 -91.5 -87 -119.5s-79.5 -42 -127.5 -42zM300 30c39.333 0 73.833 12.333 103.5 37s52.834 59.667 69.501 105s25 98.666 25 159.999c0 60.667 -8.33301 113.334 -25 158.001s-39.834 79 -69.501 103s-64.167 36 -103.5 36s-73.833 -12 -103.5 -36
s-52.834 -58.333 -69.501 -103s-25 -97.334 -25 -158.001c0 -61.333 8.33301 -114.666 25 -159.999s39.834 -80.333 69.501 -105s64.167 -37 103.5 -37zM324 706l-133 113l29 33l124 -123z" />
    <glyph glyph-name="Oacute" unicode="&#xd3;" 
d="M300 -12c-48 0 -90.5 14 -127.5 42s-66 67.833 -87 119.5s-31.5 112.5 -31.5 182.5c0 69.333 10.5 129.5 31.5 180.5s50 90.167 87 117.5s79.5 41 127.5 41s90.5 -13.667 127.5 -41s66 -66.5 87 -117.5s31.5 -111.167 31.5 -180.5c0 -70 -10.5 -130.833 -31.5 -182.5
s-50 -91.5 -87 -119.5s-79.5 -42 -127.5 -42zM300 30c39.333 0 73.833 12.333 103.5 37s52.834 59.667 69.501 105s25 98.666 25 159.999c0 60.667 -8.33301 113.334 -25 158.001s-39.834 79 -69.501 103s-64.167 36 -103.5 36s-73.833 -12 -103.5 -36
s-52.834 -58.333 -69.501 -103s-25 -97.334 -25 -158.001c0 -61.333 8.33301 -114.666 25 -159.999s39.834 -80.333 69.501 -105s64.167 -37 103.5 -37zM276 706l-20 23l124 123l29 -33z" />
    <glyph glyph-name="Ocircumflex" unicode="&#xd4;" 
d="M300 -12c-48 0 -90.5 14 -127.5 42s-66 67.833 -87 119.5s-31.5 112.5 -31.5 182.5c0 69.333 10.5 129.5 31.5 180.5s50 90.167 87 117.5s79.5 41 127.5 41s90.5 -13.667 127.5 -41s66 -66.5 87 -117.5s31.5 -111.167 31.5 -180.5c0 -70 -10.5 -130.833 -31.5 -182.5
s-50 -91.5 -87 -119.5s-79.5 -42 -127.5 -42zM300 30c39.333 0 73.833 12.333 103.5 37s52.834 59.667 69.501 105s25 98.666 25 159.999c0 60.667 -8.33301 113.334 -25 158.001s-39.834 79 -69.501 103s-64.167 36 -103.5 36s-73.833 -12 -103.5 -36
s-52.834 -58.333 -69.501 -103s-25 -97.334 -25 -158.001c0 -61.333 8.33301 -114.666 25 -159.999s39.834 -80.333 69.501 -105s64.167 -37 103.5 -37zM185 707l-20 19l113 113h44l113 -113l-20 -19l-113 98h-4z" />
    <glyph glyph-name="Otilde" unicode="&#xd5;" 
d="M300 -12c-48 0 -90.5 14 -127.5 42s-66 67.833 -87 119.5s-31.5 112.5 -31.5 182.5c0 69.333 10.5 129.5 31.5 180.5s50 90.167 87 117.5s79.5 41 127.5 41s90.5 -13.667 127.5 -41s66 -66.5 87 -117.5s31.5 -111.167 31.5 -180.5c0 -70 -10.5 -130.833 -31.5 -182.5
s-50 -91.5 -87 -119.5s-79.5 -42 -127.5 -42zM300 30c39.333 0 73.833 12.333 103.5 37s52.834 59.667 69.501 105s25 98.666 25 159.999c0 60.667 -8.33301 113.334 -25 158.001s-39.834 79 -69.501 103s-64.167 36 -103.5 36s-73.833 -12 -103.5 -36
s-52.834 -58.333 -69.501 -103s-25 -97.334 -25 -158.001c0 -61.333 8.33301 -114.666 25 -159.999s39.834 -80.333 69.501 -105s64.167 -37 103.5 -37zM377 718c-18.667 0 -34.8359 4.16602 -48.5029 12.499s-25.834 17.5 -36.501 27.5s-21.334 19 -32.001 27
s-23 12 -37 12c-14.667 0 -27 -6.83301 -37 -20.5s-16 -32.167 -18 -55.5l-33 3c2 31.333 10.333 57.5 25 78.5s35.667 31.5 63 31.5c18.667 0 34.834 -4 48.501 -12s25.834 -17.167 36.501 -27.5s21.334 -19.5 32.001 -27.5s23 -12 37 -12c14.667 0 26.834 7 36.501 21
s15.834 32.667 18.501 56l33 -3c-1.33301 -31.333 -9.5 -57.666 -24.5 -78.999s-36.167 -32 -63.5 -32z" />
    <glyph glyph-name="Odieresis" unicode="&#xd6;" 
d="M300 -12c-48 0 -90.5 14 -127.5 42s-66 67.833 -87 119.5s-31.5 112.5 -31.5 182.5c0 69.333 10.5 129.5 31.5 180.5s50 90.167 87 117.5s79.5 41 127.5 41s90.5 -13.667 127.5 -41s66 -66.5 87 -117.5s31.5 -111.167 31.5 -180.5c0 -70 -10.5 -130.833 -31.5 -182.5
s-50 -91.5 -87 -119.5s-79.5 -42 -127.5 -42zM300 30c39.333 0 73.833 12.333 103.5 37s52.834 59.667 69.501 105s25 98.666 25 159.999c0 60.667 -8.33301 113.334 -25 158.001s-39.834 79 -69.501 103s-64.167 36 -103.5 36s-73.833 -12 -103.5 -36
s-52.834 -58.333 -69.501 -103s-25 -97.334 -25 -158.001c0 -61.333 8.33301 -114.666 25 -159.999s39.834 -80.333 69.501 -105s64.167 -37 103.5 -37zM220 725c-10 0 -18.667 3.33301 -26 10s-11 15.667 -11 27s3.66699 20.333 11 27s16 10 26 10
c10.667 0 19.5 -3.33301 26.5 -10s10.5 -15.667 10.5 -27s-3.5 -20.333 -10.5 -27s-15.833 -10 -26.5 -10zM380 725c-10 0 -18.667 3.33301 -26 10s-11 15.667 -11 27s3.66699 20.333 11 27s16 10 26 10c10.667 0 19.5 -3.33301 26.5 -10s10.5 -15.667 10.5 -27
s-3.5 -20.333 -10.5 -27s-15.833 -10 -26.5 -10z" />
    <glyph glyph-name="multiply" unicode="&#xd7;" 
d="M139 135l-27 28l162 167l-162 167l27 28l161 -169l161 169l27 -28l-162 -167l162 -167l-27 -28l-161 168z" />
    <glyph glyph-name="Oslash" unicode="&#xd8;" 
d="M52 -2l461 684l31 -21l-461 -684zM300 -12c-48 0 -90.5 14 -127.5 42s-66 67.833 -87 119.5s-31.5 112.5 -31.5 182.5c0 69.333 10.5 129.5 31.5 180.5s50 90.167 87 117.5s79.5 41 127.5 41s90.5 -13.667 127.5 -41s66 -66.5 87 -117.5s31.5 -111.167 31.5 -180.5
c0 -70 -10.5 -130.833 -31.5 -182.5s-50 -91.5 -87 -119.5s-79.5 -42 -127.5 -42zM300 30c39.333 0 73.833 12.333 103.5 37s52.834 59.667 69.501 105s25 98.666 25 159.999c0 60.667 -8.33301 113.334 -25 158.001s-39.834 79 -69.501 103s-64.167 36 -103.5 36
s-73.833 -12 -103.5 -36s-52.834 -58.333 -69.501 -103s-25 -97.334 -25 -158.001c0 -61.333 8.33301 -114.666 25 -159.999s39.834 -80.333 69.501 -105s64.167 -37 103.5 -37z" />
    <glyph glyph-name="Ugrave" unicode="&#xd9;" 
d="M300 -12c-27.333 0 -53.667 4.16699 -79 12.5s-48 22.166 -68 41.499s-35.667 45.833 -47 79.5s-17 75.5 -17 125.5v412h46v-407c0 -56.667 7.66699 -101.167 23 -133.5s35.5 -55.166 60.5 -68.499s52.167 -20 81.5 -20c30 0 57.667 6.66699 83 20
s45.833 36.166 61.5 68.499s23.5 76.833 23.5 133.5v407h43v-412c0 -50 -5.66699 -91.833 -17 -125.5s-27 -60.167 -47 -79.5s-42.5 -33.166 -67.5 -41.499s-51.5 -12.5 -79.5 -12.5zM323.999 706l-133 113l29 33l124 -123z" />
    <glyph glyph-name="Uacute" unicode="&#xda;" 
d="M300 -12c-27.333 0 -53.667 4.16699 -79 12.5s-48 22.166 -68 41.499s-35.667 45.833 -47 79.5s-17 75.5 -17 125.5v412h46v-407c0 -56.667 7.66699 -101.167 23 -133.5s35.5 -55.166 60.5 -68.499s52.167 -20 81.5 -20c30 0 57.667 6.66699 83 20
s45.833 36.166 61.5 68.499s23.5 76.833 23.5 133.5v407h43v-412c0 -50 -5.66699 -91.833 -17 -125.5s-27 -60.167 -47 -79.5s-42.5 -33.166 -67.5 -41.499s-51.5 -12.5 -79.5 -12.5zM275.999 706l-20 23l124 123l29 -33z" />
    <glyph glyph-name="Ucircumflex" unicode="&#xdb;" 
d="M300 -12c-27.333 0 -53.667 4.16699 -79 12.5s-48 22.166 -68 41.499s-35.667 45.833 -47 79.5s-17 75.5 -17 125.5v412h46v-407c0 -56.667 7.66699 -101.167 23 -133.5s35.5 -55.166 60.5 -68.499s52.167 -20 81.5 -20c30 0 57.667 6.66699 83 20
s45.833 36.166 61.5 68.499s23.5 76.833 23.5 133.5v407h43v-412c0 -50 -5.66699 -91.833 -17 -125.5s-27 -60.167 -47 -79.5s-42.5 -33.166 -67.5 -41.499s-51.5 -12.5 -79.5 -12.5zM184.999 707l-20 19l113 113h44l113 -113l-20 -19l-113 98h-4z" />
    <glyph glyph-name="Udieresis" unicode="&#xdc;" 
d="M300 -12c-27.333 0 -53.667 4.16699 -79 12.5s-48 22.166 -68 41.499s-35.667 45.833 -47 79.5s-17 75.5 -17 125.5v412h46v-407c0 -56.667 7.66699 -101.167 23 -133.5s35.5 -55.166 60.5 -68.499s52.167 -20 81.5 -20c30 0 57.667 6.66699 83 20
s45.833 36.166 61.5 68.499s23.5 76.833 23.5 133.5v407h43v-412c0 -50 -5.66699 -91.833 -17 -125.5s-27 -60.167 -47 -79.5s-42.5 -33.166 -67.5 -41.499s-51.5 -12.5 -79.5 -12.5zM219.999 725c-10 0 -18.667 3.33301 -26 10s-11 15.667 -11 27s3.66699 20.333 11 27
s16 10 26 10c10.667 0 19.5 -3.33301 26.5 -10s10.5 -15.667 10.5 -27s-3.5 -20.333 -10.5 -27s-15.833 -10 -26.5 -10zM379.999 725c-10 0 -18.667 3.33301 -26 10s-11 15.667 -11 27s3.66699 20.333 11 27s16 10 26 10c10.667 0 19.5 -3.33301 26.5 -10
s10.5 -15.667 10.5 -27s-3.5 -20.333 -10.5 -27s-15.833 -10 -26.5 -10z" />
    <glyph glyph-name="Yacute" unicode="&#xdd;" 
d="M277 0v242l-226 417h47l118 -218l41.5 -76l42.5 -79h4l44 79l42 77l114 217h45l-226 -417v-242h-46zM276 706l-20 23l124 123l29 -33z" />
    <glyph glyph-name="Thorn" unicode="&#xde;" 
d="M118 0v659h46v-117h134c48.667 0 90.667 -6 126 -18s62.333 -31.333 81 -58s28 -62.667 28 -108c0 -43.333 -9.33301 -79 -28 -107s-45.667 -49.167 -81 -63.5s-77.333 -21.5 -126 -21.5h-134v-166h-46zM164 205h122c68 0 118.167 12 150.5 36s48.5 63 48.5 117
c0 55.333 -16.333 93.333 -49 114s-82.667 31 -150 31h-122v-298z" />
    <glyph glyph-name="germandbls" unicode="&#xdf;" 
d="M403 -12c-28.667 0 -55.1699 4.49902 -79.5029 13.499s-46.5 21.167 -66.5 36.5l23 33c20.667 -15.333 40.5 -26.666 59.5 -33.999s40.167 -11 63.5 -11c37.333 0 65.333 10.167 84 30.5s28 42.833 28 67.5c0 23.333 -5.5 42.5 -16.5 57.5s-25.167 27.5 -42.5 37.5
s-35.666 19.333 -54.999 28s-37.666 18 -54.999 28s-31.5 22.833 -42.5 38.5s-16.5 35.5 -16.5 59.5c0 24.667 5.33301 45.834 16 63.501s23.167 34 37.5 49s27 31 38 48s16.5 36.5 16.5 58.5c0 28.667 -9.16699 52.667 -27.5 72s-44.833 29 -79.5 29
c-41.333 0 -75 -14.333 -101 -43s-39 -72.334 -39 -131.001v-519h-44v533c0 40.667 7.83301 75.834 23.5 105.501s37.667 52.5 66 68.5s60.5 24 96.5 24c30.667 0 57.167 -6 79.5 -18s39.5 -28.333 51.5 -49s18 -43.667 18 -69c0 -26 -5.33301 -48.333 -16 -67
s-23.167 -35.667 -37.5 -51s-26.833 -30.833 -37.5 -46.5s-16 -33.5 -16 -53.5c0 -19.333 5.33301 -35.166 16 -47.499s24.834 -22.833 42.501 -31.5l55 -26.5c19 -9 37.333 -19.333 55 -31s32 -26.334 43 -44.001s16.5 -40.834 16.5 -69.501
c0 -26 -6.83301 -49.5 -20.5 -70.5s-32.167 -37.667 -55.5 -50s-50.333 -18.5 -81 -18.5z" />
    <glyph glyph-name="agrave" unicode="&#xe0;" 
d="M259 -12c-28.667 0 -55.667 4.83398 -81 14.501s-46 24.167 -62 43.5s-24 43.666 -24 72.999c0 54 28.833 94.833 86.5 122.5s151.5 47.5 281.5 59.5c0 26 -4.33301 50.667 -13 74s-23.334 42.166 -44.001 56.499s-49.334 21.5 -86.001 21.5
c-24 0 -47.333 -3.33301 -70 -10s-43.667 -15.167 -63 -25.5s-35.666 -20.166 -48.999 -29.499l-20 33c12.667 9.33301 29.834 19.5 51.501 30.5s46 20.5 73 28.5s54.5 12 82.5 12c43.333 0 78.333 -8.33301 105 -25s46.167 -39 58.5 -67s18.5 -59 18.5 -93v-307h-37l-5 72
h-2c-28 -22 -59.5 -41.5 -94.5 -58.5s-70.5 -25.5 -106.5 -25.5zM267 26.001c30.667 0 61.998 7.33203 93.998 21.999s65 36.334 99 65.001v154c-81.333 -7.33301 -145.666 -17.5 -192.999 -30.5s-80.833 -29 -100.5 -48s-29.5 -41.167 -29.5 -66.5
c0 -23.333 6.33301 -42 19 -56s28.834 -24.167 48.501 -30.5s40.5 -9.5 62.5 -9.5zM350.998 572l-144 151l34 31l134 -159z" />
    <glyph glyph-name="aacute" unicode="&#xe1;" 
d="M259 -12c-28.667 0 -55.667 4.83398 -81 14.501s-46 24.167 -62 43.5s-24 43.666 -24 72.999c0 54 28.833 94.833 86.5 122.5s151.5 47.5 281.5 59.5c0 26 -4.33301 50.667 -13 74s-23.334 42.166 -44.001 56.499s-49.334 21.5 -86.001 21.5
c-24 0 -47.333 -3.33301 -70 -10s-43.667 -15.167 -63 -25.5s-35.666 -20.166 -48.999 -29.499l-20 33c12.667 9.33301 29.834 19.5 51.501 30.5s46 20.5 73 28.5s54.5 12 82.5 12c43.333 0 78.333 -8.33301 105 -25s46.167 -39 58.5 -67s18.5 -59 18.5 -93v-307h-37l-5 72
h-2c-28 -22 -59.5 -41.5 -94.5 -58.5s-70.5 -25.5 -106.5 -25.5zM267 26.001c30.667 0 61.998 7.33203 93.998 21.999s65 36.334 99 65.001v154c-81.333 -7.33301 -145.666 -17.5 -192.999 -30.5s-80.833 -29 -100.5 -48s-29.5 -41.167 -29.5 -66.5
c0 -23.333 6.33301 -42 19 -56s28.834 -24.167 48.501 -30.5s40.5 -9.5 62.5 -9.5zM288.998 572l-24 23l134 159l34 -31z" />
    <glyph glyph-name="acircumflex" unicode="&#xe2;" 
d="M259 -12c-28.667 0 -55.667 4.83398 -81 14.501s-46 24.167 -62 43.5s-24 43.666 -24 72.999c0 54 28.833 94.833 86.5 122.5s151.5 47.5 281.5 59.5c0 26 -4.33301 50.667 -13 74s-23.334 42.166 -44.001 56.499s-49.334 21.5 -86.001 21.5
c-24 0 -47.333 -3.33301 -70 -10s-43.667 -15.167 -63 -25.5s-35.666 -20.166 -48.999 -29.499l-20 33c12.667 9.33301 29.834 19.5 51.501 30.5s46 20.5 73 28.5s54.5 12 82.5 12c43.333 0 78.333 -8.33301 105 -25s46.167 -39 58.5 -67s18.5 -59 18.5 -93v-307h-37l-5 72
h-2c-28 -22 -59.5 -41.5 -94.5 -58.5s-70.5 -25.5 -106.5 -25.5zM267 26.001c30.667 0 61.998 7.33203 93.998 21.999s65 36.334 99 65.001v154c-81.333 -7.33301 -145.666 -17.5 -192.999 -30.5s-80.833 -29 -100.5 -48s-29.5 -41.167 -29.5 -66.5
c0 -23.333 6.33301 -42 19 -56s28.834 -24.167 48.501 -30.5s40.5 -9.5 62.5 -9.5zM203.998 572l-22 21l117 144h42l117 -144l-22 -21l-114 126h-4z" />
    <glyph glyph-name="atilde" unicode="&#xe3;" 
d="M259 -12c-28.667 0 -55.667 4.83398 -81 14.501s-46 24.167 -62 43.5s-24 43.666 -24 72.999c0 54 28.833 94.833 86.5 122.5s151.5 47.5 281.5 59.5c0 26 -4.33301 50.667 -13 74s-23.334 42.166 -44.001 56.499s-49.334 21.5 -86.001 21.5
c-24 0 -47.333 -3.33301 -70 -10s-43.667 -15.167 -63 -25.5s-35.666 -20.166 -48.999 -29.499l-20 33c12.667 9.33301 29.834 19.5 51.501 30.5s46 20.5 73 28.5s54.5 12 82.5 12c43.333 0 78.333 -8.33301 105 -25s46.167 -39 58.5 -67s18.5 -59 18.5 -93v-307h-37l-5 72
h-2c-28 -22 -59.5 -41.5 -94.5 -58.5s-70.5 -25.5 -106.5 -25.5zM267 26.001c30.667 0 61.998 7.33203 93.998 21.999s65 36.334 99 65.001v154c-81.333 -7.33301 -145.666 -17.5 -192.999 -30.5s-80.833 -29 -100.5 -48s-29.5 -41.167 -29.5 -66.5
c0 -23.333 6.33301 -42 19 -56s28.834 -24.167 48.501 -30.5s40.5 -9.5 62.5 -9.5zM395.998 579c-19.333 0 -35.5029 4.83496 -48.5029 14.502s-24.833 20.834 -35.5 33.501s-21.167 23.834 -31.5 33.501s-22.5 14.5 -36.5 14.5c-18 0 -31.167 -8.83301 -39.5 -26.5
s-13.166 -39.834 -14.499 -66.501l-34 2c1.33301 21.333 4.83301 41.5 10.5 60.5s14.667 34.667 27 47s29.5 18.5 51.5 18.5c19.333 0 35.333 -4.83301 48 -14.5s24.334 -20.834 35.001 -33.501s21.334 -23.834 32.001 -33.501s23 -14.5 37 -14.5c18 0 31 9.16699 39 27.5
s12.667 40.166 14 65.499l34 -2c-1.33301 -20.667 -4.83301 -40.5 -10.5 -59.5s-14.5 -34.833 -26.5 -47.5s-29 -19 -51 -19z" />
    <glyph glyph-name="adieresis" unicode="&#xe4;" 
d="M259 -12c-28.667 0 -55.667 4.83398 -81 14.501s-46 24.167 -62 43.5s-24 43.666 -24 72.999c0 54 28.833 94.833 86.5 122.5s151.5 47.5 281.5 59.5c0 26 -4.33301 50.667 -13 74s-23.334 42.166 -44.001 56.499s-49.334 21.5 -86.001 21.5
c-24 0 -47.333 -3.33301 -70 -10s-43.667 -15.167 -63 -25.5s-35.666 -20.166 -48.999 -29.499l-20 33c12.667 9.33301 29.834 19.5 51.501 30.5s46 20.5 73 28.5s54.5 12 82.5 12c43.333 0 78.333 -8.33301 105 -25s46.167 -39 58.5 -67s18.5 -59 18.5 -93v-307h-37l-5 72
h-2c-28 -22 -59.5 -41.5 -94.5 -58.5s-70.5 -25.5 -106.5 -25.5zM267 26.001c30.667 0 61.998 7.33203 93.998 21.999s65 36.334 99 65.001v154c-81.333 -7.33301 -145.666 -17.5 -192.999 -30.5s-80.833 -29 -100.5 -48s-29.5 -41.167 -29.5 -66.5
c0 -23.333 6.33301 -42 19 -56s28.834 -24.167 48.501 -30.5s40.5 -9.5 62.5 -9.5zM230.998 598c-11.333 0 -20.833 4 -28.5 12s-11.5 18 -11.5 30c0 11.333 3.83301 21 11.5 29s17.167 12 28.5 12c12 0 21.667 -4 29 -12s11 -17.667 11 -29c0 -12 -3.83301 -22 -11.5 -30
s-17.167 -12 -28.5 -12zM408.998 598c-12 0 -21.667 4 -29 12s-11 18 -11 30c0 11.333 3.83301 21 11.5 29s17.167 12 28.5 12s20.833 -4 28.5 -12s11.5 -17.667 11.5 -29c0 -12 -3.83301 -22 -11.5 -30s-17.167 -12 -28.5 -12z" />
    <glyph glyph-name="aring" unicode="&#xe5;" 
d="M259 -12c-28.667 0 -55.667 4.83398 -81 14.501s-46 24.167 -62 43.5s-24 43.666 -24 72.999c0 54 28.833 94.833 86.5 122.5s151.5 47.5 281.5 59.5c0 26 -4.33301 50.667 -13 74s-23.334 42.166 -44.001 56.499s-49.334 21.5 -86.001 21.5
c-24 0 -47.333 -3.33301 -70 -10s-43.667 -15.167 -63 -25.5s-35.666 -20.166 -48.999 -29.499l-20 33c12.667 9.33301 29.834 19.5 51.501 30.5s46 20.5 73 28.5s54.5 12 82.5 12c43.333 0 78.333 -8.33301 105 -25s46.167 -39 58.5 -67s18.5 -59 18.5 -93v-307h-37l-5 72
h-2c-28 -22 -59.5 -41.5 -94.5 -58.5s-70.5 -25.5 -106.5 -25.5zM267 26.001c30.667 0 61.998 7.33203 93.998 21.999s65 36.334 99 65.001v154c-81.333 -7.33301 -145.666 -17.5 -192.999 -30.5s-80.833 -29 -100.5 -48s-29.5 -41.167 -29.5 -66.5
c0 -23.333 6.33301 -42 19 -56s28.834 -24.167 48.501 -30.5s40.5 -9.5 62.5 -9.5zM319.998 570c-28.667 0 -52 8.66699 -70 26s-27 39 -27 65c0 26.667 9 48.667 27 66s41.333 26 70 26c29.333 0 52.833 -8.66699 70.5 -26s26.5 -39.333 26.5 -66
c0 -26 -8.83301 -47.667 -26.5 -65s-41.167 -26 -70.5 -26zM319.998 596c18.667 0 34.167 6.33301 46.5 19s18.5 28 18.5 46c0 18.667 -6.16699 34.334 -18.5 47.001s-27.833 19 -46.5 19c-18 0 -33.333 -6.33301 -46 -19s-19 -28.334 -19 -47.001
c0 -18 6.33301 -33.333 19 -46s28 -19 46 -19z" />
    <glyph glyph-name="ae" unicode="&#xe6;" 
d="M143 -12c-35.333 0 -65 10.8311 -89 32.498s-36 52.834 -36 93.501c0 32.667 9.16699 61.334 27.5 86.001s47.833 45.167 88.5 61.5s94.667 28.166 162 35.499v-34c-62 -7.33301 -109.833 -17.666 -143.5 -30.999s-57.167 -29.666 -70.5 -48.999s-20 -41.666 -20 -66.999
c0 -28.667 8.16699 -50.834 24.5 -66.501s37.833 -23.5 64.5 -23.5s54.5 9.5 83.5 28.5s52.833 44.167 71.5 75.5l20 -28c-24 -32.667 -51.5 -59.834 -82.5 -81.501s-64.5 -32.5 -100.5 -32.5zM459 -12.002c-38.667 0 -71.335 11.001 -98.002 33.001s-47 52.167 -61 90.5
s-21 82.166 -21 131.499v47c0.666992 59.333 -8.16602 101.333 -26.499 126s-43.5 37 -75.5 37c-22 0 -44.5 -4.5 -67.5 -13.5s-41.5 -18.833 -55.5 -29.5l-19 32c16 10.667 37 21.667 63 33s53.667 17 83 17c35.333 0 64.333 -11.833 87 -35.5s37.667 -61.5 45 -113.5h-16
c13.333 52 34.833 89.833 64.5 113.5s60.834 35.5 93.501 35.5c33.333 0 60.666 -9.83301 81.999 -29.5s37 -45.5 47 -77.5s15 -67 15 -105v-21c0 -7.33301 -0.666992 -16 -2 -26h-301v38h274l-9 -14c0 64.667 -8.66699 113.667 -26 147s-44.333 50 -81 50
c-22.667 0 -44.334 -6.83301 -65.001 -20.5s-37.5 -36.167 -50.5 -67.5s-19.5 -73 -19.5 -125c0 -42 5.16699 -79.167 15.5 -111.5s25.833 -57.5 46.5 -75.5s47.334 -27 80.001 -27c22 0 42 3.66699 60 11s33.333 15.333 46 24l18 -33
c-15.333 -10.667 -33.166 -20.167 -53.499 -28.5s-44.5 -12.5 -72.5 -12.5z" />
    <glyph glyph-name="ccedilla" unicode="&#xe7;" 
d="M347 -12c-49.333 0 -93.665 9.83105 -132.998 29.498s-70.333 48.334 -93 86.001s-34 82.834 -34 135.501c0 53.333 11.833 99 35.5 137s55.334 66.833 95.001 86.5s83.5 29.5 131.5 29.5c40 0 73.833 -7.33301 101.5 -22s51.167 -31.667 70.5 -51l-25 -30
c-20.667 19.333 -42.834 34.833 -66.501 46.5s-50.167 17.5 -79.5 17.5c-42.667 0 -80.334 -9 -113.001 -27s-58 -43.167 -76 -75.5s-27 -69.5 -27 -111.5s8.83301 -79 26.5 -111s42.667 -56.833 75 -74.5s70.166 -26.5 113.499 -26.5c32.667 0 62.5 6.5 89.5 19.5
s51.167 29.5 72.5 49.5l23 -31c-24.667 -22.667 -52.5 -41.167 -83.5 -55.5s-65.5 -21.5 -103.5 -21.5zM272.001 -219.002l-7.00098 29.9971c43.333 3.33301 73 9.33301 89 18s24 20.334 24 35.001s-6.16699 25.834 -18.5 33.501s-32.166 13.5 -59.499 17.5l34 92h35
l-23 -72c22 -5.33301 39.333 -13.166 52 -23.499s19 -25.5 19 -45.5c0 -26 -12.333 -45.833 -37 -59.5s-60.667 -22.167 -108 -25.5z" />
    <glyph glyph-name="egrave" unicode="&#xe8;" 
d="M330 -12c-46 0 -88.334 10.001 -127.001 30.001s-69.334 48.833 -92.001 86.5s-34 82.834 -34 135.501c0 52 11.333 96.833 34 134.5s52.334 66.667 89.001 87s75.667 30.5 117 30.5c44 0 82 -8.83301 114 -26.5s56.833 -43.167 74.5 -76.5s26.5 -73 26.5 -119v-18.5
c0 -6.33301 -0.666992 -12.5 -2 -18.5h-431v38h411l-18 -18c0 68 -16.167 118.5 -48.5 151.5s-74.166 49.5 -125.499 49.5c-33.333 0 -64.833 -8.33301 -94.5 -25s-54 -40.834 -73 -72.501s-28.5 -70.167 -28.5 -115.5c0 -46 9.66699 -85 29 -117s45 -56.333 77 -73
s67 -25 105 -25c32.667 0 62 4.83301 88 14.5s50.333 22.167 73 37.5l18 -33c-21.333 -14.667 -46.5 -27.834 -75.5 -39.501s-64.5 -17.5 -106.5 -17.5zM349.999 572.001l-144 151l34 31l134 -159z" />
    <glyph glyph-name="eacute" unicode="&#xe9;" 
d="M330 -12c-46 0 -88.334 10.001 -127.001 30.001s-69.334 48.833 -92.001 86.5s-34 82.834 -34 135.501c0 52 11.333 96.833 34 134.5s52.334 66.667 89.001 87s75.667 30.5 117 30.5c44 0 82 -8.83301 114 -26.5s56.833 -43.167 74.5 -76.5s26.5 -73 26.5 -119v-18.5
c0 -6.33301 -0.666992 -12.5 -2 -18.5h-431v38h411l-18 -18c0 68 -16.167 118.5 -48.5 151.5s-74.166 49.5 -125.499 49.5c-33.333 0 -64.833 -8.33301 -94.5 -25s-54 -40.834 -73 -72.501s-28.5 -70.167 -28.5 -115.5c0 -46 9.66699 -85 29 -117s45 -56.333 77 -73
s67 -25 105 -25c32.667 0 62 4.83301 88 14.5s50.333 22.167 73 37.5l18 -33c-21.333 -14.667 -46.5 -27.834 -75.5 -39.501s-64.5 -17.5 -106.5 -17.5zM287.999 572.001l-24 23l134 159l34 -31z" />
    <glyph glyph-name="ecircumflex" unicode="&#xea;" 
d="M330 -12c-46 0 -88.334 10.001 -127.001 30.001s-69.334 48.833 -92.001 86.5s-34 82.834 -34 135.501c0 52 11.333 96.833 34 134.5s52.334 66.667 89.001 87s75.667 30.5 117 30.5c44 0 82 -8.83301 114 -26.5s56.833 -43.167 74.5 -76.5s26.5 -73 26.5 -119v-18.5
c0 -6.33301 -0.666992 -12.5 -2 -18.5h-431v38h411l-18 -18c0 68 -16.167 118.5 -48.5 151.5s-74.166 49.5 -125.499 49.5c-33.333 0 -64.833 -8.33301 -94.5 -25s-54 -40.834 -73 -72.501s-28.5 -70.167 -28.5 -115.5c0 -46 9.66699 -85 29 -117s45 -56.333 77 -73
s67 -25 105 -25c32.667 0 62 4.83301 88 14.5s50.333 22.167 73 37.5l18 -33c-21.333 -14.667 -46.5 -27.834 -75.5 -39.501s-64.5 -17.5 -106.5 -17.5zM202.999 572.001l-22 21l117 144h42l117 -144l-22 -21l-114 126h-4z" />
    <glyph glyph-name="edieresis" unicode="&#xeb;" 
d="M330 -12c-46 0 -88.334 10.001 -127.001 30.001s-69.334 48.833 -92.001 86.5s-34 82.834 -34 135.501c0 52 11.333 96.833 34 134.5s52.334 66.667 89.001 87s75.667 30.5 117 30.5c44 0 82 -8.83301 114 -26.5s56.833 -43.167 74.5 -76.5s26.5 -73 26.5 -119v-18.5
c0 -6.33301 -0.666992 -12.5 -2 -18.5h-431v38h411l-18 -18c0 68 -16.167 118.5 -48.5 151.5s-74.166 49.5 -125.499 49.5c-33.333 0 -64.833 -8.33301 -94.5 -25s-54 -40.834 -73 -72.501s-28.5 -70.167 -28.5 -115.5c0 -46 9.66699 -85 29 -117s45 -56.333 77 -73
s67 -25 105 -25c32.667 0 62 4.83301 88 14.5s50.333 22.167 73 37.5l18 -33c-21.333 -14.667 -46.5 -27.834 -75.5 -39.501s-64.5 -17.5 -106.5 -17.5zM229.999 598.001c-11.333 0 -20.833 4 -28.5 12s-11.5 18 -11.5 30c0 11.333 3.83301 21 11.5 29s17.167 12 28.5 12
c12 0 21.667 -4 29 -12s11 -17.667 11 -29c0 -12 -3.83301 -22 -11.5 -30s-17.167 -12 -28.5 -12zM407.999 598.001c-12 0 -21.667 4 -29 12s-11 18 -11 30c0 11.333 3.83301 21 11.5 29s17.167 12 28.5 12s20.833 -4 28.5 -12s11.5 -17.667 11.5 -29
c0 -12 -3.83301 -22 -11.5 -30s-17.167 -12 -28.5 -12z" />
    <glyph glyph-name="igrave" unicode="&#xec;" 
d="M338 0v442h-241v38h285v-480h-44zM380 572l-144 151l34 31l134 -159z" />
    <glyph glyph-name="iacute" unicode="&#xed;" 
d="M338 0v442h-241v38h285v-480h-44zM318 572l-24 23l134 159l34 -31z" />
    <glyph glyph-name="icircumflex" unicode="&#xee;" 
d="M338 0v442h-241v38h285v-480h-44zM233 572l-22 21l117 144h42l117 -144l-22 -21l-114 126h-4z" />
    <glyph glyph-name="idieresis" unicode="&#xef;" 
d="M338 0v442h-241v38h285v-480h-44zM260 598c-11.333 0 -20.833 4 -28.5 12s-11.5 18 -11.5 30c0 11.333 3.83301 21 11.5 29s17.167 12 28.5 12c12 0 21.667 -4 29 -12s11 -17.667 11 -29c0 -12 -3.83301 -22 -11.5 -30s-17.167 -12 -28.5 -12zM438 598
c-12 0 -21.667 4 -29 12s-11 18 -11 30c0 11.333 3.83301 21 11.5 29s17.167 12 28.5 12s20.833 -4 28.5 -12s11.5 -17.667 11.5 -29c0 -12 -3.83301 -22 -11.5 -30s-17.167 -12 -28.5 -12z" />
    <glyph glyph-name="eth" unicode="&#xf0;" 
d="M299 -12c-40 0 -77.6621 9.33496 -112.995 28.002s-64 45.167 -86 79.5s-33 75.5 -33 123.5c0 44 9.66699 82.667 29 116s46.333 59.5 81 78.5s75.667 28.5 123 28.5c36.667 0 71.667 -9.66699 105 -29s59.666 -44 78.999 -74l1 -43c-26.667 40 -56.334 68 -89.001 84
s-64.334 24 -95.001 24c-42.667 0 -78 -8.5 -106 -25.5s-48.833 -39.5 -62.5 -67.5s-20.5 -58.667 -20.5 -92c0 -37.333 8.5 -70.5 25.5 -99.5s39.667 -51.667 68 -68s59.833 -24.5 94.5 -24.5c43.333 0 78.333 10 105 30s46.167 47 58.5 81s18.5 71.667 18.5 113
c0 63.333 -7.16699 118.166 -21.5 164.499s-34.833 86.166 -61.5 119.499s-58.334 62.833 -95.001 88.5s-77 49.167 -121 70.5l22 30c45.333 -20.667 87.5 -44.834 126.5 -72.501s73.167 -60.167 102.5 -97.5s52.166 -80.666 68.499 -129.999s24.5 -106.666 24.5 -171.999
c0 -53.333 -9.33301 -99.833 -28 -139.5s-45.167 -70.334 -79.5 -92.001s-74.5 -32.5 -120.5 -32.5zM195.005 513.002l-17 30l310 161l17 -29z" />
    <glyph glyph-name="ntilde" unicode="&#xf1;" 
d="M105 0v480.001h38l5 -92h4c27.333 30 56 54.833 86 74.5s64.333 29.5 103 29.5c58.667 0 102.167 -16 130.5 -48s42.5 -80.333 42.5 -145v-299h-45v293c0 54 -10.5 94 -31.5 120s-55.5 39 -103.5 39c-34 0 -64.5 -8.83301 -91.5 -26.5s-57.833 -44.834 -92.5 -81.501
v-344h-45zM395 579.001c-19.333 0 -35.5029 4.83496 -48.5029 14.502s-24.833 20.834 -35.5 33.501s-21.167 23.834 -31.5 33.501s-22.5 14.5 -36.5 14.5c-18 0 -31.167 -8.83301 -39.5 -26.5s-13.166 -39.834 -14.499 -66.501l-34 2c1.33301 21.333 4.83301 41.5 10.5 60.5
s14.667 34.667 27 47s29.5 18.5 51.5 18.5c19.333 0 35.333 -4.83301 48 -14.5s24.334 -20.834 35.001 -33.501s21.334 -23.834 32.001 -33.501s23 -14.5 37 -14.5c18 0 31 9.16699 39 27.5s12.667 40.166 14 65.499l34 -2c-1.33301 -20.667 -4.83301 -40.5 -10.5 -59.5
s-14.5 -34.833 -26.5 -47.5s-29 -19 -51 -19z" />
    <glyph glyph-name="ograve" unicode="&#xf2;" 
d="M300 -12c-42 0 -80.667 9.83301 -116 29.5s-63.666 48.334 -84.999 86.001s-32 82.834 -32 135.501c0 53.333 10.667 99 32 137s49.666 66.833 84.999 86.5s74 29.5 116 29.5s80.667 -9.83301 116 -29.5s63.666 -48.5 84.999 -86.5s32 -83.667 32 -137
c0 -52.667 -10.667 -97.834 -32 -135.501s-49.666 -66.334 -84.999 -86.001s-74 -29.5 -116 -29.5zM300 27c36 0 68.167 8.83301 96.5 26.5s50.333 42.5 66 74.5s23.5 69 23.5 111s-7.83301 79.167 -23.5 111.5s-37.667 57.5 -66 75.5s-60.5 27 -96.5 27s-68 -9 -96 -27
s-50 -43.167 -66 -75.5s-24 -69.5 -24 -111.5s8 -79 24 -111s38 -56.833 66 -74.5s60 -26.5 96 -26.5zM331 572l-144 151l34 31l134 -159z" />
    <glyph glyph-name="oacute" unicode="&#xf3;" 
d="M300 -12c-42 0 -80.667 9.83301 -116 29.5s-63.666 48.334 -84.999 86.001s-32 82.834 -32 135.501c0 53.333 10.667 99 32 137s49.666 66.833 84.999 86.5s74 29.5 116 29.5s80.667 -9.83301 116 -29.5s63.666 -48.5 84.999 -86.5s32 -83.667 32 -137
c0 -52.667 -10.667 -97.834 -32 -135.501s-49.666 -66.334 -84.999 -86.001s-74 -29.5 -116 -29.5zM300 27c36 0 68.167 8.83301 96.5 26.5s50.333 42.5 66 74.5s23.5 69 23.5 111s-7.83301 79.167 -23.5 111.5s-37.667 57.5 -66 75.5s-60.5 27 -96.5 27s-68 -9 -96 -27
s-50 -43.167 -66 -75.5s-24 -69.5 -24 -111.5s8 -79 24 -111s38 -56.833 66 -74.5s60 -26.5 96 -26.5zM269 572l-24 23l134 159l34 -31z" />
    <glyph glyph-name="ocircumflex" unicode="&#xf4;" 
d="M300 -12c-42 0 -80.667 9.83301 -116 29.5s-63.666 48.334 -84.999 86.001s-32 82.834 -32 135.501c0 53.333 10.667 99 32 137s49.666 66.833 84.999 86.5s74 29.5 116 29.5s80.667 -9.83301 116 -29.5s63.666 -48.5 84.999 -86.5s32 -83.667 32 -137
c0 -52.667 -10.667 -97.834 -32 -135.501s-49.666 -66.334 -84.999 -86.001s-74 -29.5 -116 -29.5zM300 27c36 0 68.167 8.83301 96.5 26.5s50.333 42.5 66 74.5s23.5 69 23.5 111s-7.83301 79.167 -23.5 111.5s-37.667 57.5 -66 75.5s-60.5 27 -96.5 27s-68 -9 -96 -27
s-50 -43.167 -66 -75.5s-24 -69.5 -24 -111.5s8 -79 24 -111s38 -56.833 66 -74.5s60 -26.5 96 -26.5zM184 572l-22 21l117 144h42l117 -144l-22 -21l-114 126h-4z" />
    <glyph glyph-name="otilde" unicode="&#xf5;" 
d="M300 -12c-42 0 -80.667 9.83301 -116 29.5s-63.666 48.334 -84.999 86.001s-32 82.834 -32 135.501c0 53.333 10.667 99 32 137s49.666 66.833 84.999 86.5s74 29.5 116 29.5s80.667 -9.83301 116 -29.5s63.666 -48.5 84.999 -86.5s32 -83.667 32 -137
c0 -52.667 -10.667 -97.834 -32 -135.501s-49.666 -66.334 -84.999 -86.001s-74 -29.5 -116 -29.5zM300 27c36 0 68.167 8.83301 96.5 26.5s50.333 42.5 66 74.5s23.5 69 23.5 111s-7.83301 79.167 -23.5 111.5s-37.667 57.5 -66 75.5s-60.5 27 -96.5 27s-68 -9 -96 -27
s-50 -43.167 -66 -75.5s-24 -69.5 -24 -111.5s8 -79 24 -111s38 -56.833 66 -74.5s60 -26.5 96 -26.5zM376 579c-19.333 0 -35.5029 4.83496 -48.5029 14.502s-24.833 20.834 -35.5 33.501s-21.167 23.834 -31.5 33.501s-22.5 14.5 -36.5 14.5
c-18 0 -31.167 -8.83301 -39.5 -26.5s-13.166 -39.834 -14.499 -66.501l-34 2c1.33301 21.333 4.83301 41.5 10.5 60.5s14.667 34.667 27 47s29.5 18.5 51.5 18.5c19.333 0 35.333 -4.83301 48 -14.5s24.334 -20.834 35.001 -33.501s21.334 -23.834 32.001 -33.501
s23 -14.5 37 -14.5c18 0 31 9.16699 39 27.5s12.667 40.166 14 65.499l34 -2c-1.33301 -20.667 -4.83301 -40.5 -10.5 -59.5s-14.5 -34.833 -26.5 -47.5s-29 -19 -51 -19z" />
    <glyph glyph-name="odieresis" unicode="&#xf6;" 
d="M300 -12c-42 0 -80.667 9.83301 -116 29.5s-63.666 48.334 -84.999 86.001s-32 82.834 -32 135.501c0 53.333 10.667 99 32 137s49.666 66.833 84.999 86.5s74 29.5 116 29.5s80.667 -9.83301 116 -29.5s63.666 -48.5 84.999 -86.5s32 -83.667 32 -137
c0 -52.667 -10.667 -97.834 -32 -135.501s-49.666 -66.334 -84.999 -86.001s-74 -29.5 -116 -29.5zM300 27c36 0 68.167 8.83301 96.5 26.5s50.333 42.5 66 74.5s23.5 69 23.5 111s-7.83301 79.167 -23.5 111.5s-37.667 57.5 -66 75.5s-60.5 27 -96.5 27s-68 -9 -96 -27
s-50 -43.167 -66 -75.5s-24 -69.5 -24 -111.5s8 -79 24 -111s38 -56.833 66 -74.5s60 -26.5 96 -26.5zM211 598c-11.333 0 -20.833 4 -28.5 12s-11.5 18 -11.5 30c0 11.333 3.83301 21 11.5 29s17.167 12 28.5 12c12 0 21.667 -4 29 -12s11 -17.667 11 -29
c0 -12 -3.83301 -22 -11.5 -30s-17.167 -12 -28.5 -12zM389 598c-12 0 -21.667 4 -29 12s-11 18 -11 30c0 11.333 3.83301 21 11.5 29s17.167 12 28.5 12s20.833 -4 28.5 -12s11.5 -17.667 11.5 -29c0 -12 -3.83301 -22 -11.5 -30s-17.167 -12 -28.5 -12z" />
    <glyph glyph-name="divide" unicode="&#xf7;" 
d="M300 469c-10.667 0 -19.667 3.83301 -27 11.5s-11 17.5 -11 29.5c0 11.333 3.66699 20.666 11 27.999s16.333 11 27 11s19.667 -3.66699 27 -11s11 -16.666 11 -27.999c0 -12 -3.66699 -21.833 -11 -29.5s-16.333 -11.5 -27 -11.5zM300 109
c-10.667 0 -19.667 3.83301 -27 11.5s-11 17.5 -11 29.5c0 11.333 3.66699 20.666 11 27.999s16.333 11 27 11s19.667 -3.66699 27 -11s11 -16.666 11 -27.999c0 -12 -3.66699 -21.833 -11 -29.5s-16.333 -11.5 -27 -11.5zM95 311v38h410v-38h-410z" />
    <glyph glyph-name="oslash" unicode="&#xf8;" 
d="M300 -12c-42 0 -80.667 9.83301 -116 29.5s-63.666 48.334 -84.999 86.001s-32 82.834 -32 135.501c0 54 10.667 99.833 32 137.5s49.666 66.334 84.999 86.001s74 29.5 116 29.5s80.667 -9.83301 116 -29.5s63.666 -48.334 84.999 -86.001s32 -83.5 32 -137.5
c0 -52.667 -10.667 -97.834 -32 -135.501s-49.666 -66.334 -84.999 -86.001s-74 -29.5 -116 -29.5zM300 26c36 0 68.167 9 96.5 27s50.333 43 66 75s23.5 69 23.5 111s-7.83301 79.167 -23.5 111.5s-37.667 57.666 -66 75.999s-60.5 27.5 -96.5 27.5s-68 -9.16699 -96 -27.5
s-50 -43.666 -66 -75.999s-24 -69.5 -24 -111.5s8 -79 24 -111s38 -57 66 -75s60 -27 96 -27zM96 -24l-28 24l436 503l28 -25z" />
    <glyph glyph-name="ugrave" unicode="&#xf9;" 
d="M259 -12c-58.667 0 -101.999 16 -129.999 48s-42 80.333 -42 145v299h44v-293c0 -54 10.5 -94 31.5 -120s55.5 -39 103.5 -39c34 0 65 8.83301 93 26.5s58.333 45.167 91 82.5v343h44v-480h-37l-5 93h-4c-26 -30 -54.333 -55 -85 -75s-65.334 -30 -104.001 -30z
M325.001 572l-144 151l34 31l134 -159z" />
    <glyph glyph-name="uacute" unicode="&#xfa;" 
d="M259 -12c-58.667 0 -101.999 16 -129.999 48s-42 80.333 -42 145v299h44v-293c0 -54 10.5 -94 31.5 -120s55.5 -39 103.5 -39c34 0 65 8.83301 93 26.5s58.333 45.167 91 82.5v343h44v-480h-37l-5 93h-4c-26 -30 -54.333 -55 -85 -75s-65.334 -30 -104.001 -30z
M263.001 572l-24 23l134 159l34 -31z" />
    <glyph glyph-name="ucircumflex" unicode="&#xfb;" 
d="M259 -12c-58.667 0 -101.999 16 -129.999 48s-42 80.333 -42 145v299h44v-293c0 -54 10.5 -94 31.5 -120s55.5 -39 103.5 -39c34 0 65 8.83301 93 26.5s58.333 45.167 91 82.5v343h44v-480h-37l-5 93h-4c-26 -30 -54.333 -55 -85 -75s-65.334 -30 -104.001 -30z
M178.001 572l-22 21l117 144h42l117 -144l-22 -21l-114 126h-4z" />
    <glyph glyph-name="udieresis" unicode="&#xfc;" 
d="M259 -12c-58.667 0 -101.999 16 -129.999 48s-42 80.333 -42 145v299h44v-293c0 -54 10.5 -94 31.5 -120s55.5 -39 103.5 -39c34 0 65 8.83301 93 26.5s58.333 45.167 91 82.5v343h44v-480h-37l-5 93h-4c-26 -30 -54.333 -55 -85 -75s-65.334 -30 -104.001 -30z
M205.001 598c-11.333 0 -20.833 4 -28.5 12s-11.5 18 -11.5 30c0 11.333 3.83301 21 11.5 29s17.167 12 28.5 12c12 0 21.667 -4 29 -12s11 -17.667 11 -29c0 -12 -3.83301 -22 -11.5 -30s-17.167 -12 -28.5 -12zM383.001 598c-12 0 -21.667 4 -29 12s-11 18 -11 30
c0 11.333 3.83301 21 11.5 29s17.167 12 28.5 12s20.833 -4 28.5 -12s11.5 -17.667 11.5 -29c0 -12 -3.83301 -22 -11.5 -30s-17.167 -12 -28.5 -12z" />
    <glyph glyph-name="yacute" unicode="&#xfd;" 
d="M124 -219c-9.33301 0 -19.332 0.998047 -29.999 2.99805s-19.667 4.33301 -27 7l12 39c6 -2 13.167 -3.83301 21.5 -5.5s16.833 -2.5 25.5 -2.5c37.333 0 68.166 12.167 92.499 36.5s43.5 54.5 57.5 90.5l17 42l-233 489h46l140 -302l31 -66.5
c11.333 -24.333 23 -47.166 35 -68.499h4l28.5 68.5l27.5 66.5l125 302h43l-226 -540c-9.33301 -26.667 -22.333 -52.167 -39 -76.5s-37.5 -44.166 -62.5 -59.499s-54.5 -23 -88.5 -23zM270.001 571.998l-24 23l134 159l34 -31z" />
    <glyph glyph-name="thorn" unicode="&#xfe;" 
d="M105 -217l0.000976562 936h45v-217l-3 -94h2c25.333 24.667 53.666 44.834 84.999 60.501s62.666 23.5 93.999 23.5c45.333 0 83 -10 113 -30s52.833 -48.5 68.5 -85.5s23.5 -80.167 23.5 -129.5c0 -54 -10.5 -100.333 -31.5 -139s-48.667 -68.334 -83 -89.001
s-71.166 -31 -110.499 -31c-24.667 0 -51.167 6 -79.5 18s-54.833 28.667 -79.5 50h-2l3 -98v-175h-45zM306.001 27c34 0 64.666 9.33301 91.999 28s48.833 44.5 64.5 77.5s23.5 71.167 23.5 114.5c0 39.333 -5.66699 74.5 -17 105.5s-29 55.5 -53 73.5s-55.667 27 -95 27
c-25.333 0 -52.666 -7.16699 -81.999 -21.5s-59 -36.5 -89 -66.5v-267c28 -25.333 56 -43.5 84 -54.5s52 -16.5 72 -16.5z" />
    <glyph glyph-name="ydieresis" unicode="&#xff;" 
d="M124 -219c-9.33301 0 -19.332 0.998047 -29.999 2.99805s-19.667 4.33301 -27 7l12 39c6 -2 13.167 -3.83301 21.5 -5.5s16.833 -2.5 25.5 -2.5c37.333 0 68.166 12.167 92.499 36.5s43.5 54.5 57.5 90.5l17 42l-233 489h46l140 -302l31 -66.5
c11.333 -24.333 23 -47.166 35 -68.499h4l28.5 68.5l27.5 66.5l125 302h43l-226 -540c-9.33301 -26.667 -22.333 -52.167 -39 -76.5s-37.5 -44.166 -62.5 -59.499s-54.5 -23 -88.5 -23zM212.001 597.998c-11.333 0 -20.833 4 -28.5 12s-11.5 18 -11.5 30
c0 11.333 3.83301 21 11.5 29s17.167 12 28.5 12c12 0 21.667 -4 29 -12s11 -17.667 11 -29c0 -12 -3.83301 -22 -11.5 -30s-17.167 -12 -28.5 -12zM390.001 597.998c-12 0 -21.667 4 -29 12s-11 18 -11 30c0 11.333 3.83301 21 11.5 29s17.167 12 28.5 12
s20.833 -4 28.5 -12s11.5 -17.667 11.5 -29c0 -12 -3.83301 -22 -11.5 -30s-17.167 -12 -28.5 -12z" />
    <glyph glyph-name="Amacron" unicode="&#x100;" 
d="M45 0l232 659h46l232 -659h-49l-131 388l-38 113.5c-12 36.333 -23.667 74.5 -35 114.5h-4l-35.5 -114.5l-37.5 -113.5l-134 -388h-46zM151 226v39h295v-39h-295zM176 743v36h248v-36h-248z" />
    <glyph glyph-name="amacron" unicode="&#x101;" 
d="M259 -12c-28.667 0 -55.667 4.83398 -81 14.501s-46 24.167 -62 43.5s-24 43.666 -24 72.999c0 54 28.833 94.833 86.5 122.5s151.5 47.5 281.5 59.5c0 26 -4.33301 50.667 -13 74s-23.334 42.166 -44.001 56.499s-49.334 21.5 -86.001 21.5
c-24 0 -47.333 -3.33301 -70 -10s-43.667 -15.167 -63 -25.5s-35.666 -20.166 -48.999 -29.499l-20 33c12.667 9.33301 29.834 19.5 51.501 30.5s46 20.5 73 28.5s54.5 12 82.5 12c43.333 0 78.333 -8.33301 105 -25s46.167 -39 58.5 -67s18.5 -59 18.5 -93v-307h-37l-5 72
h-2c-28 -22 -59.5 -41.5 -94.5 -58.5s-70.5 -25.5 -106.5 -25.5zM267 26.001c30.667 0 61.998 7.33203 93.998 21.999s65 36.334 99 65.001v154c-81.333 -7.33301 -145.666 -17.5 -192.999 -30.5s-80.833 -29 -100.5 -48s-29.5 -41.167 -29.5 -66.5
c0 -23.333 6.33301 -42 19 -56s28.834 -24.167 48.501 -30.5s40.5 -9.5 62.5 -9.5zM196.998 606v36h246v-36h-246z" />
    <glyph glyph-name="Abreve" unicode="&#x102;" 
d="M45 0l232 659h46l232 -659h-49l-131 388l-38 113.5c-12 36.333 -23.667 74.5 -35 114.5h-4l-35.5 -114.5l-37.5 -113.5l-134 -388h-46zM151 226v39h295v-39h-295zM300 710c-29.333 0 -53.499 6.16699 -72.499 18.5s-33.667 28.166 -44 47.499
s-16.833 38.666 -19.5 57.999l33 5c3.33301 -25.333 13.333 -47.666 30 -66.999s41 -29 73 -29s56.333 9.66699 73 29s26.667 41.666 30 66.999l33 -5c-2 -19.333 -8.33301 -38.666 -19 -57.999s-25.334 -35.166 -44.001 -47.499s-43 -18.5 -73 -18.5z" />
    <glyph glyph-name="abreve" unicode="&#x103;" 
d="M259 -12c-28.667 0 -55.667 4.83398 -81 14.501s-46 24.167 -62 43.5s-24 43.666 -24 72.999c0 54 28.833 94.833 86.5 122.5s151.5 47.5 281.5 59.5c0 26 -4.33301 50.667 -13 74s-23.334 42.166 -44.001 56.499s-49.334 21.5 -86.001 21.5
c-24 0 -47.333 -3.33301 -70 -10s-43.667 -15.167 -63 -25.5s-35.666 -20.166 -48.999 -29.499l-20 33c12.667 9.33301 29.834 19.5 51.501 30.5s46 20.5 73 28.5s54.5 12 82.5 12c43.333 0 78.333 -8.33301 105 -25s46.167 -39 58.5 -67s18.5 -59 18.5 -93v-307h-37l-5 72
h-2c-28 -22 -59.5 -41.5 -94.5 -58.5s-70.5 -25.5 -106.5 -25.5zM267 26.001c30.667 0 61.998 7.33203 93.998 21.999s65 36.334 99 65.001v154c-81.333 -7.33301 -145.666 -17.5 -192.999 -30.5s-80.833 -29 -100.5 -48s-29.5 -41.167 -29.5 -66.5
c0 -23.333 6.33301 -42 19 -56s28.834 -24.167 48.501 -30.5s40.5 -9.5 62.5 -9.5zM319.998 570c-34.667 0 -62.332 7.83301 -82.999 23.5s-36.167 34.834 -46.5 57.501s-16.833 45 -19.5 67l33 5c2.66699 -18.667 8.5 -37.167 17.5 -55.5s21.667 -33.5 38 -45.5
s36.5 -18 60.5 -18c24.667 0 45 6 61 18s28.5 27.167 37.5 45.5s14.833 36.833 17.5 55.5l33 -5c-2.66699 -22 -9.16699 -44.333 -19.5 -67s-25.833 -41.834 -46.5 -57.501s-48.334 -23.5 -83.001 -23.5z" />
    <glyph glyph-name="Aogonek" unicode="&#x104;" 
d="M520 -224c-27.333 0 -50 7.16797 -68 21.501s-27 36.833 -27 67.5c0 20 4.5 38.333 13.5 55s20 31.667 33 45s26.833 25 41.5 35h-7l-131 388l-38 113.5c-12 36.333 -23.667 74.5 -35 114.5h-4l-35.5 -114.5l-37.5 -113.5l-134 -388h-46l232 659h46l232 -659
c-24.667 -16 -45.834 -34.833 -63.501 -56.5s-26.5 -45.834 -26.5 -72.501c0 -20 6.16699 -34.833 18.5 -44.5s26.5 -14.5 42.5 -14.5c12.667 0 23.5 2.5 32.5 7.5s16.833 10.833 23.5 17.5l20 -25c-10.667 -10 -22.167 -18.5 -34.5 -25.5s-28.166 -10.5 -47.499 -10.5z
M151 226.001v39h296v-39h-296z" />
    <glyph glyph-name="aogonek" unicode="&#x105;" 
d="M462 -224c-27.333 0 -50.001 7.16895 -68.001 21.502s-27 36.833 -27 67.5c0 19.333 4 37.666 12 54.999s19.667 33.333 35 48s33 28.334 53 41.001l-5 63h-2c-28 -22 -59.5 -41.5 -94.5 -58.5s-70.5 -25.5 -106.5 -25.5c-28.667 0 -55.667 4.83301 -81 14.5
s-46 24.167 -62 43.5s-24 43.666 -24 72.999c0 54 28.833 94.833 86.5 122.5s151.5 47.5 281.5 59.5c0 26 -4.33301 50.667 -13 74s-23.334 42.166 -44.001 56.499s-49.334 21.5 -86.001 21.5c-24 0 -47.333 -3.33301 -70 -10s-43.667 -15.167 -63 -25.5
s-35.666 -20.166 -48.999 -29.499l-20 33c12.667 9.33301 29.834 19.5 51.501 30.5s46 20.5 73 28.5s54.5 12 82.5 12c43.333 0 78.333 -8.33301 105 -25s46.167 -39 58.5 -67s18.5 -59 18.5 -93v-307c-34.667 -18.667 -59.834 -39.167 -75.501 -61.5
s-23.5 -44.833 -23.5 -67.5c0 -20 6.33301 -35 19 -45s27.334 -15 44.001 -15c12.667 0 23.667 2.5 33 7.5s17 10.5 23 16.5l20 -23c-10.667 -10.667 -22.167 -19.334 -34.5 -26.001s-28.166 -10 -47.499 -10zM266.999 26.002c30.667 0 61.998 7.33203 93.998 21.999
s65 36.334 99 65.001v154c-81.333 -7.33301 -145.666 -17.5 -192.999 -30.5s-80.833 -29 -100.5 -48s-29.5 -41.167 -29.5 -66.5c0 -23.333 6.33301 -42 19 -56s28.834 -24.167 48.501 -30.5s40.5 -9.5 62.5 -9.5z" />
    <glyph glyph-name="Cacute" unicode="&#x106;" 
d="M348 -12c-40.667 0 -77.8311 7.99707 -111.498 23.9971s-62.834 39 -87.501 69s-43.667 66 -57 108s-20 89.333 -20 142c0 69.333 11.833 129.5 35.5 180.5s56.667 90.333 99 118s91.5 41.5 147.5 41.5c38.667 0 72.667 -8 102 -24s52.666 -34.333 69.999 -55l-28 -30
c-17.333 20.667 -38 37 -62 49s-51.333 18 -82 18c-48 0 -89.5 -12.167 -124.5 -36.5s-62 -58.666 -81 -102.999s-28.5 -97.166 -28.5 -158.499c0 -60.667 9.5 -113.667 28.5 -159s45.833 -80.333 80.5 -105s75.667 -37 123 -37c34 0 64.167 6.83301 90.5 20.5
s51.166 33.834 74.499 60.501l27 -29c-24.667 -28.667 -52.667 -51.5 -84 -68.5s-68.666 -25.5 -111.999 -25.5zM318.003 705.997l-20 23l124 123l29 -33z" />
    <glyph glyph-name="cacute" unicode="&#x107;" 
d="M347 -12c-49.333 0 -93.665 9.83105 -132.998 29.498s-70.333 48.334 -93 86.001s-34 82.834 -34 135.501c0 53.333 11.833 99 35.5 137s55.334 66.833 95.001 86.5s83.5 29.5 131.5 29.5c40 0 73.833 -7.33301 101.5 -22s51.167 -31.667 70.5 -51l-25 -30
c-20.667 19.333 -42.834 34.833 -66.501 46.5s-50.167 17.5 -79.5 17.5c-42.667 0 -80.334 -9 -113.001 -27s-58 -43.167 -76 -75.5s-27 -69.5 -27 -111.5s8.83301 -79 26.5 -111s42.667 -56.833 75 -74.5s70.166 -26.5 113.499 -26.5c32.667 0 62.5 6.5 89.5 19.5
s51.167 29.5 72.5 49.5l23 -31c-24.667 -22.667 -52.5 -41.167 -83.5 -55.5s-65.5 -21.5 -103.5 -21.5zM318.001 571.998l-24 23l134 159l34 -31z" />
    <glyph glyph-name="Ccircumflex" unicode="&#x108;" 
d="M348 -12c-40.667 0 -77.8311 7.99707 -111.498 23.9971s-62.834 39 -87.501 69s-43.667 66 -57 108s-20 89.333 -20 142c0 69.333 11.833 129.5 35.5 180.5s56.667 90.333 99 118s91.5 41.5 147.5 41.5c38.667 0 72.667 -8 102 -24s52.666 -34.333 69.999 -55l-28 -30
c-17.333 20.667 -38 37 -62 49s-51.333 18 -82 18c-48 0 -89.5 -12.167 -124.5 -36.5s-62 -58.666 -81 -102.999s-28.5 -97.166 -28.5 -158.499c0 -60.667 9.5 -113.667 28.5 -159s45.833 -80.333 80.5 -105s75.667 -37 123 -37c34 0 64.167 6.83301 90.5 20.5
s51.166 33.834 74.499 60.501l27 -29c-24.667 -28.667 -52.667 -51.5 -84 -68.5s-68.666 -25.5 -111.999 -25.5zM227.003 706.997l-20 19l113 113h44l113 -113l-20 -19l-113 98h-4z" />
    <glyph glyph-name="ccircumflex" unicode="&#x109;" 
d="M347 -12c-49.333 0 -93.665 9.83105 -132.998 29.498s-70.333 48.334 -93 86.001s-34 82.834 -34 135.501c0 53.333 11.833 99 35.5 137s55.334 66.833 95.001 86.5s83.5 29.5 131.5 29.5c40 0 73.833 -7.33301 101.5 -22s51.167 -31.667 70.5 -51l-25 -30
c-20.667 19.333 -42.834 34.833 -66.501 46.5s-50.167 17.5 -79.5 17.5c-42.667 0 -80.334 -9 -113.001 -27s-58 -43.167 -76 -75.5s-27 -69.5 -27 -111.5s8.83301 -79 26.5 -111s42.667 -56.833 75 -74.5s70.166 -26.5 113.499 -26.5c32.667 0 62.5 6.5 89.5 19.5
s51.167 29.5 72.5 49.5l23 -31c-24.667 -22.667 -52.5 -41.167 -83.5 -55.5s-65.5 -21.5 -103.5 -21.5zM233.001 571.998l-22 21l117 144h42l117 -144l-22 -21l-114 126h-4z" />
    <glyph glyph-name="Cdotaccent" unicode="&#x10a;" 
d="M348 -12c-40.667 0 -77.8311 7.99707 -111.498 23.9971s-62.834 39 -87.501 69s-43.667 66 -57 108s-20 89.333 -20 142c0 69.333 11.833 129.5 35.5 180.5s56.667 90.333 99 118s91.5 41.5 147.5 41.5c38.667 0 72.667 -8 102 -24s52.666 -34.333 69.999 -55l-28 -30
c-17.333 20.667 -38 37 -62 49s-51.333 18 -82 18c-48 0 -89.5 -12.167 -124.5 -36.5s-62 -58.666 -81 -102.999s-28.5 -97.166 -28.5 -158.499c0 -60.667 9.5 -113.667 28.5 -159s45.833 -80.333 80.5 -105s75.667 -37 123 -37c34 0 64.167 6.83301 90.5 20.5
s51.166 33.834 74.499 60.501l27 -29c-24.667 -28.667 -52.667 -51.5 -84 -68.5s-68.666 -25.5 -111.999 -25.5zM342.003 720.997c-10.667 0 -20.167 3.83301 -28.5 11.5s-12.5 17.834 -12.5 30.501c0 12 4.16699 21.667 12.5 29s17.833 11 28.5 11
c11.333 0 21 -3.66699 29 -11s12 -17 12 -29c0 -12.667 -4 -22.834 -12 -30.501s-17.667 -11.5 -29 -11.5z" />
    <glyph glyph-name="cdotaccent" unicode="&#x10b;" 
d="M347 -12c-49.333 0 -93.665 9.83105 -132.998 29.498s-70.333 48.334 -93 86.001s-34 82.834 -34 135.501c0 53.333 11.833 99 35.5 137s55.334 66.833 95.001 86.5s83.5 29.5 131.5 29.5c40 0 73.833 -7.33301 101.5 -22s51.167 -31.667 70.5 -51l-25 -30
c-20.667 19.333 -42.834 34.833 -66.501 46.5s-50.167 17.5 -79.5 17.5c-42.667 0 -80.334 -9 -113.001 -27s-58 -43.167 -76 -75.5s-27 -69.5 -27 -111.5s8.83301 -79 26.5 -111s42.667 -56.833 75 -74.5s70.166 -26.5 113.499 -26.5c32.667 0 62.5 6.5 89.5 19.5
s51.167 29.5 72.5 49.5l23 -31c-24.667 -22.667 -52.5 -41.167 -83.5 -55.5s-65.5 -21.5 -103.5 -21.5zM349.001 596.998c-12.667 0 -23.667 4.33301 -33 13s-14 20.334 -14 35.001s4.66699 26.334 14 35.001s20.333 13 33 13c13.333 0 24.5 -4.33301 33.5 -13
s13.5 -20.334 13.5 -35.001s-4.5 -26.334 -13.5 -35.001s-20.167 -13 -33.5 -13z" />
    <glyph glyph-name="Ccaron" unicode="&#x10c;" 
d="M348 -12c-40.667 0 -77.8311 7.99707 -111.498 23.9971s-62.834 39 -87.501 69s-43.667 66 -57 108s-20 89.333 -20 142c0 69.333 11.833 129.5 35.5 180.5s56.667 90.333 99 118s91.5 41.5 147.5 41.5c38.667 0 72.667 -8 102 -24s52.666 -34.333 69.999 -55l-28 -30
c-17.333 20.667 -38 37 -62 49s-51.333 18 -82 18c-48 0 -89.5 -12.167 -124.5 -36.5s-62 -58.666 -81 -102.999s-28.5 -97.166 -28.5 -158.499c0 -60.667 9.5 -113.667 28.5 -159s45.833 -80.333 80.5 -105s75.667 -37 123 -37c34 0 64.167 6.83301 90.5 20.5
s51.166 33.834 74.499 60.501l27 -29c-24.667 -28.667 -52.667 -51.5 -84 -68.5s-68.666 -25.5 -111.999 -25.5zM320.003 708.997l-113 114l20 18l113 -98h4l113 98l20 -18l-113 -114h-44z" />
    <glyph glyph-name="ccaron" unicode="&#x10d;" 
d="M347 -12c-49.333 0 -93.665 9.83105 -132.998 29.498s-70.333 48.334 -93 86.001s-34 82.834 -34 135.501c0 53.333 11.833 99 35.5 137s55.334 66.833 95.001 86.5s83.5 29.5 131.5 29.5c40 0 73.833 -7.33301 101.5 -22s51.167 -31.667 70.5 -51l-25 -30
c-20.667 19.333 -42.834 34.833 -66.501 46.5s-50.167 17.5 -79.5 17.5c-42.667 0 -80.334 -9 -113.001 -27s-58 -43.167 -76 -75.5s-27 -69.5 -27 -111.5s8.83301 -79 26.5 -111s42.667 -56.833 75 -74.5s70.166 -26.5 113.499 -26.5c32.667 0 62.5 6.5 89.5 19.5
s51.167 29.5 72.5 49.5l23 -31c-24.667 -22.667 -52.5 -41.167 -83.5 -55.5s-65.5 -21.5 -103.5 -21.5zM328.001 572.998l-117 144l22 20l114 -125h4l114 125l22 -20l-117 -144h-42z" />
    <glyph glyph-name="Dcaron" unicode="&#x10e;" 
d="M96 0l0.00195312 659h152c67.333 0 123.166 -13.333 167.499 -40s77.166 -64.667 98.499 -114s32 -107 32 -173c0 -66.667 -10.667 -125 -32 -175s-54 -88.667 -98 -116s-99.667 -41 -167 -41h-153zM142.002 39l102 0.000976562c59.333 0 107.666 12.5 144.999 37.5
s64.833 59.5 82.5 103.5s26.5 94.667 26.5 152s-8.83301 107.666 -26.5 150.999s-45.167 77 -82.5 101s-85.666 36 -144.999 36h-102v-581zM278.002 709.001l-113 114l20 18l113 -98h4l113 98l20 -18l-113 -114h-44z" />
    <glyph glyph-name="dcaron" unicode="&#x10f;" 
d="M274 -12c-61.333 0 -111.331 21.666 -149.998 64.999s-58 105.333 -58 186c0 52 10.333 96.833 31 134.5s48 66.834 82 87.501s70.667 31 110 31c29.333 0 56.666 -6 81.999 -18s49.666 -28.667 72.999 -50h2l-2 97v198h43v-719h-36l-5 71h-2
c-21.333 -22 -46.5 -41.333 -75.5 -58s-60.5 -25 -94.5 -25zM281.002 26.999c27.333 0 54.667 7.66699 82 23s54.333 37 81 65v267c-26.667 25.333 -52.5 43.5 -77.5 54.5s-49.833 16.5 -74.5 16.5c-33.333 0 -63.833 -9.33301 -91.5 -28s-49.5 -44.167 -65.5 -76.5
s-24 -68.833 -24 -109.5c0 -63.333 15 -114.5 45 -153.5s71.667 -58.5 125 -58.5zM571.003 547.999l-2 265h42v-71l-8 -194h-32z" />
    <glyph glyph-name="Dcroat" unicode="&#x110;" 
d="M96 0l0.00195312 331h-77v33l77 5v290h152c67.333 0 123.166 -13.333 167.499 -40s77.166 -64.667 98.499 -114s32 -107 32 -173c0 -66.667 -10.667 -125 -32 -175s-54 -88.667 -98 -116s-99.667 -41 -167 -41h-153zM142.002 39l102 0.000976562
c59.333 0 107.666 12.5 144.999 37.5s64.833 59.5 82.5 103.5s26.5 94.667 26.5 152s-8.83301 107.666 -26.5 150.999s-45.167 77 -82.5 101s-85.666 36 -144.999 36h-102v-251h165v-38h-165v-292z" />
    <glyph glyph-name="dcroat" unicode="&#x111;" 
d="M279 -12c-62.667 0 -113.664 20.667 -152.997 62s-59 101 -59 179c0 50 10.667 93.167 32 129.5s49.166 64.333 83.499 84s71.166 29.5 110.499 29.5c31.333 0 59.5 -6 84.5 -18s49.5 -28.667 73.5 -50h2l-3 97v218h45v-719h-38l-5 71h-2
c-20.667 -22 -45.834 -41.333 -75.501 -58s-61.5 -25 -95.5 -25zM285.003 27c28 0 55.833 7.66699 83.5 23s54.834 37 81.501 65v247c-26.667 25.333 -52.667 43.5 -78 54.5s-50.333 16.5 -75 16.5c-34 0 -64.833 -9 -92.5 -27s-49.667 -42.5 -66 -73.5
s-24.5 -65.5 -24.5 -103.5c0 -60 15.167 -108.667 45.5 -146s72.166 -56 125.499 -56zM266.003 578v38h304v-33l-76 -5h-228z" />
    <glyph glyph-name="Emacron" unicode="&#x112;" 
d="M127 0v659h390v-40h-344v-249h290v-40h-290v-290h354v-40h-400zM212 743v36h248v-36h-248z" />
    <glyph glyph-name="emacron" unicode="&#x113;" 
d="M330 -12c-46 0 -88.334 10.001 -127.001 30.001s-69.334 48.833 -92.001 86.5s-34 82.834 -34 135.501c0 52 11.333 96.833 34 134.5s52.334 66.667 89.001 87s75.667 30.5 117 30.5c44 0 82 -8.83301 114 -26.5s56.833 -43.167 74.5 -76.5s26.5 -73 26.5 -119v-18.5
c0 -6.33301 -0.666992 -12.5 -2 -18.5h-431v38h411l-18 -18c0 68 -16.167 118.5 -48.5 151.5s-74.166 49.5 -125.499 49.5c-33.333 0 -64.833 -8.33301 -94.5 -25s-54 -40.834 -73 -72.501s-28.5 -70.167 -28.5 -115.5c0 -46 9.66699 -85 29 -117s45 -56.333 77 -73
s67 -25 105 -25c32.667 0 62 4.83301 88 14.5s50.333 22.167 73 37.5l18 -33c-21.333 -14.667 -46.5 -27.834 -75.5 -39.501s-64.5 -17.5 -106.5 -17.5zM195.999 606.001v36h246v-36h-246z" />
    <glyph glyph-name="Ebreve" unicode="&#x114;" 
d="M127 0v659h390v-40h-344v-249h290v-40h-290v-290h354v-40h-400zM336 710c-29.333 0 -53.499 6.16699 -72.499 18.5s-33.667 28.166 -44 47.499s-16.833 38.666 -19.5 57.999l33 5c3.33301 -25.333 13.333 -47.666 30 -66.999s41 -29 73 -29s56.333 9.66699 73 29
s26.667 41.666 30 66.999l33 -5c-2 -19.333 -8.33301 -38.666 -19 -57.999s-25.334 -35.166 -44.001 -47.499s-43 -18.5 -73 -18.5z" />
    <glyph glyph-name="ebreve" unicode="&#x115;" 
d="M330 -12c-46 0 -88.334 10.001 -127.001 30.001s-69.334 48.833 -92.001 86.5s-34 82.834 -34 135.501c0 52 11.333 96.833 34 134.5s52.334 66.667 89.001 87s75.667 30.5 117 30.5c44 0 82 -8.83301 114 -26.5s56.833 -43.167 74.5 -76.5s26.5 -73 26.5 -119v-18.5
c0 -6.33301 -0.666992 -12.5 -2 -18.5h-431v38h411l-18 -18c0 68 -16.167 118.5 -48.5 151.5s-74.166 49.5 -125.499 49.5c-33.333 0 -64.833 -8.33301 -94.5 -25s-54 -40.834 -73 -72.501s-28.5 -70.167 -28.5 -115.5c0 -46 9.66699 -85 29 -117s45 -56.333 77 -73
s67 -25 105 -25c32.667 0 62 4.83301 88 14.5s50.333 22.167 73 37.5l18 -33c-21.333 -14.667 -46.5 -27.834 -75.5 -39.501s-64.5 -17.5 -106.5 -17.5zM318.999 570.001c-34.667 0 -62.332 7.83301 -82.999 23.5s-36.167 34.834 -46.5 57.501s-16.833 45 -19.5 67l33 5
c2.66699 -18.667 8.5 -37.167 17.5 -55.5s21.667 -33.5 38 -45.5s36.5 -18 60.5 -18c24.667 0 45 6 61 18s28.5 27.167 37.5 45.5s14.833 36.833 17.5 55.5l33 -5c-2.66699 -22 -9.16699 -44.333 -19.5 -67s-25.833 -41.834 -46.5 -57.501s-48.334 -23.5 -83.001 -23.5z" />
    <glyph glyph-name="Edotaccent" unicode="&#x116;" 
d="M127 0v659h390v-40h-344v-249h290v-40h-290v-290h354v-40h-400zM336 721c-10.667 0 -20.167 3.83301 -28.5 11.5s-12.5 17.834 -12.5 30.501c0 12 4.16699 21.667 12.5 29s17.833 11 28.5 11c11.333 0 21 -3.66699 29 -11s12 -17 12 -29
c0 -12.667 -4 -22.834 -12 -30.501s-17.667 -11.5 -29 -11.5z" />
    <glyph glyph-name="edotaccent" unicode="&#x117;" 
d="M330 -12c-46 0 -88.334 10.001 -127.001 30.001s-69.334 48.833 -92.001 86.5s-34 82.834 -34 135.501c0 52 11.333 96.833 34 134.5s52.334 66.667 89.001 87s75.667 30.5 117 30.5c44 0 82 -8.83301 114 -26.5s56.833 -43.167 74.5 -76.5s26.5 -73 26.5 -119v-18.5
c0 -6.33301 -0.666992 -12.5 -2 -18.5h-431v38h411l-18 -18c0 68 -16.167 118.5 -48.5 151.5s-74.166 49.5 -125.499 49.5c-33.333 0 -64.833 -8.33301 -94.5 -25s-54 -40.834 -73 -72.501s-28.5 -70.167 -28.5 -115.5c0 -46 9.66699 -85 29 -117s45 -56.333 77 -73
s67 -25 105 -25c32.667 0 62 4.83301 88 14.5s50.333 22.167 73 37.5l18 -33c-21.333 -14.667 -46.5 -27.834 -75.5 -39.501s-64.5 -17.5 -106.5 -17.5zM318.999 597.001c-12.667 0 -23.667 4.33301 -33 13s-14 20.334 -14 35.001s4.66699 26.334 14 35.001s20.333 13 33 13
c13.333 0 24.5 -4.33301 33.5 -13s13.5 -20.334 13.5 -35.001s-4.5 -26.334 -13.5 -35.001s-20.167 -13 -33.5 -13z" />
    <glyph glyph-name="Eogonek" unicode="&#x118;" 
d="M469 -224c-27.333 0 -50.001 7.16406 -68.001 21.4971s-27 36.833 -27 67.5c0 19.333 4 37.5 12 54.5s18.833 32.167 32.5 45.5s28.5 25 44.5 35h-336v659h390v-40h-344v-249h290v-40h-290v-290h354v-40h-2c-18 -3.33301 -35.5 -11.666 -52.5 -24.999
s-31 -29.166 -42 -47.499s-16.5 -37.166 -16.5 -56.499c0 -20 6.16699 -34.833 18.5 -44.5s26.5 -14.5 42.5 -14.5c12.667 0 23.5 2.5 32.5 7.5s16.833 10.833 23.5 17.5l20 -25c-10.667 -10 -22.167 -18.5 -34.5 -25.5s-28.166 -10.5 -47.499 -10.5z" />
    <glyph glyph-name="eogonek" unicode="&#x119;" 
d="M426 -224c-26.667 0 -49.165 7.33398 -67.498 22.001s-27.5 37 -27.5 67c0 32.667 10.333 61.5 31 86.5s46.334 47.5 77.001 67.5l3 -5c-26.667 -14 -48.5 -21.833 -65.5 -23.5s-32.5 -2.5 -46.5 -2.5c-46 0 -88.333 10 -127 30s-69.334 48.833 -92.001 86.5
s-34 82.5 -34 134.5c0 52.667 11.333 97.834 34 135.501s52.334 66.667 89.001 87s75.667 30.5 117 30.5c44 0 82 -8.83301 114 -26.5s56.833 -43.167 74.5 -76.5s26.5 -73 26.5 -119v-18.5c0 -6.33301 -0.666992 -12.5 -2 -18.5h-431v38h411l-18 -18
c0 68 -16.167 118.5 -48.5 151.5s-74.166 49.5 -125.499 49.5c-33.333 0 -64.833 -8.33301 -94.5 -25s-54 -40.834 -73 -72.501s-28.5 -70.167 -28.5 -115.5c0 -46 9.66699 -85 29 -117s45 -56.333 77 -73s67 -25 105 -25c33.333 0 63.166 4.83301 89.499 14.5
s50.166 22.167 71.499 37.5l18 -33c-34 -24.667 -61.333 -46.5 -82 -65.5s-35.834 -37 -45.501 -54s-14.5 -35.167 -14.5 -54.5c0 -20 6.5 -35 19.5 -45s27.167 -15 42.5 -15c13.333 0 24.666 2.5 33.999 7.5s17 10.5 23 16.5l20 -23
c-10 -10.667 -21.333 -19.334 -34 -26.001s-29 -10 -49 -10z" />
    <glyph glyph-name="Ecaron" unicode="&#x11a;" 
d="M127 0v659h390v-40h-344v-249h290v-40h-290v-290h354v-40h-400zM314 709l-113 114l20 18l113 -98h4l113 98l20 -18l-113 -114h-44z" />
    <glyph glyph-name="ecaron" unicode="&#x11b;" 
d="M330 -12c-46 0 -88.334 10.001 -127.001 30.001s-69.334 48.833 -92.001 86.5s-34 82.834 -34 135.501c0 52 11.333 96.833 34 134.5s52.334 66.667 89.001 87s75.667 30.5 117 30.5c44 0 82 -8.83301 114 -26.5s56.833 -43.167 74.5 -76.5s26.5 -73 26.5 -119v-18.5
c0 -6.33301 -0.666992 -12.5 -2 -18.5h-431v38h411l-18 -18c0 68 -16.167 118.5 -48.5 151.5s-74.166 49.5 -125.499 49.5c-33.333 0 -64.833 -8.33301 -94.5 -25s-54 -40.834 -73 -72.501s-28.5 -70.167 -28.5 -115.5c0 -46 9.66699 -85 29 -117s45 -56.333 77 -73
s67 -25 105 -25c32.667 0 62 4.83301 88 14.5s50.333 22.167 73 37.5l18 -33c-21.333 -14.667 -46.5 -27.834 -75.5 -39.501s-64.5 -17.5 -106.5 -17.5zM297.999 573.001l-117 144l22 20l114 -125h4l114 125l22 -20l-117 -144h-42z" />
    <glyph glyph-name="Gcircumflex" unicode="&#x11c;" 
d="M334 -12c-54.667 0 -102.665 13.998 -143.998 41.998s-73.5 67.667 -96.5 119s-34.5 112 -34.5 182c0 69.333 11.833 129.5 35.5 180.5s56.834 90.333 99.501 118s92.334 41.5 149.001 41.5c43.333 0 79.166 -8.5 107.499 -25.5s50.833 -34.833 67.5 -53.5l-27 -30
c-16 18.667 -36 34.5 -60 47.5s-53.333 19.5 -88 19.5c-48.667 0 -90.5 -12.167 -125.5 -36.5s-62.167 -58.666 -81.5 -102.999s-29 -97.166 -29 -158.499c0 -60.667 9.16699 -113.667 27.5 -159s44.666 -80.333 78.999 -105s75.5 -37 123.5 -37
c29.333 0 56.666 4.33301 81.999 13s45.666 21 60.999 37v205h-152v39h197v-261c-20 -22 -46.167 -40 -78.5 -54s-69.833 -21 -112.5 -21zM215.002 706.998l-20 19l113 113h44l113 -113l-20 -19l-113 98h-4z" />
    <glyph glyph-name="gcircumflex" unicode="&#x11d;" 
d="M308 -231c-50 0 -91.499 5.83398 -124.499 17.501s-57.833 28 -74.5 49s-25 45.167 -25 72.5c0 18.667 7 38.167 21 58.5s34 38.5 60 54.5v4c-12 6 -23.333 15.333 -34 28s-16 29 -16 49c0 15.333 5 31.166 15 47.499s24.333 30.833 43 43.5v4
c-15.333 12.667 -28.666 29.334 -39.999 50.001s-17 45.334 -17 74.001c0 32.667 8.16699 62 24.5 88s38 46.333 65 61s56.833 22 89.5 22c25.333 0 47.333 -4 66 -12h200v-38h-145c14.667 -14 27.667 -31.5 39 -52.5s17 -44.167 17 -69.5
c0 -32.667 -7.83301 -61.667 -23.5 -87s-37 -45 -64 -59s-56.833 -21 -89.5 -21c-14.667 0 -29.834 1.83301 -45.501 5.5s-30.834 9.16699 -45.501 16.5c-14 -8.66699 -25.333 -18.834 -34 -30.501s-13 -23.834 -13 -36.501c0 -23.333 10 -40.333 30 -51s47 -16 81 -16h119
c61.333 0 105.833 -8.33301 133.5 -25s41.5 -44.334 41.5 -83.001c0 -27.333 -10.5 -53.666 -31.5 -78.999s-50.333 -45.833 -88 -61.5s-82.5 -23.5 -134.5 -23.5zM295.001 188.001c24 0 46.167 5.66699 66.5 17s36.5 27 48.5 47s18 43 18 69s-6 49.167 -18 69.5
s-28.167 36.166 -48.5 47.499s-42.5 17 -66.5 17c-24.667 0 -47 -5.66699 -67 -17s-36.167 -27.166 -48.5 -47.499s-18.5 -43.5 -18.5 -69.5s6.16699 -49 18.5 -69s28.5 -35.667 48.5 -47s42.333 -17 67 -17zM305.001 -194.999c44 0 81.833 6 113.5 18
s55.834 27.5 72.501 46.5s25 38.5 25 58.5c0 27.333 -10.333 46 -31 56s-52 15 -94 15h-114c-12 0 -24.5 0.666992 -37.5 2s-24.833 3.66602 -35.5 6.99902c-28.667 -15.333 -48.834 -31.666 -60.501 -48.999s-17.5 -34.666 -17.5 -51.999
c0 -28.667 14.833 -52.834 44.5 -72.501s74.5 -29.5 134.5 -29.5zM193.001 572.001l-22 21l117 144h42l117 -144l-22 -21l-114 126h-4z" />
    <glyph glyph-name="Gbreve" unicode="&#x11e;" 
d="M334 -12c-54.667 0 -102.665 13.998 -143.998 41.998s-73.5 67.667 -96.5 119s-34.5 112 -34.5 182c0 69.333 11.833 129.5 35.5 180.5s56.834 90.333 99.501 118s92.334 41.5 149.001 41.5c43.333 0 79.166 -8.5 107.499 -25.5s50.833 -34.833 67.5 -53.5l-27 -30
c-16 18.667 -36 34.5 -60 47.5s-53.333 19.5 -88 19.5c-48.667 0 -90.5 -12.167 -125.5 -36.5s-62.167 -58.666 -81.5 -102.999s-29 -97.166 -29 -158.499c0 -60.667 9.16699 -113.667 27.5 -159s44.666 -80.333 78.999 -105s75.5 -37 123.5 -37
c29.333 0 56.666 4.33301 81.999 13s45.666 21 60.999 37v205h-152v39h197v-261c-20 -22 -46.167 -40 -78.5 -54s-69.833 -21 -112.5 -21zM330.002 709.998c-29.333 0 -53.499 6.16699 -72.499 18.5s-33.667 28.166 -44 47.499s-16.833 38.666 -19.5 57.999l33 5
c3.33301 -25.333 13.333 -47.666 30 -66.999s41 -29 73 -29s56.333 9.66699 73 29s26.667 41.666 30 66.999l33 -5c-2 -19.333 -8.33301 -38.666 -19 -57.999s-25.334 -35.166 -44.001 -47.499s-43 -18.5 -73 -18.5z" />
    <glyph glyph-name="gbreve" unicode="&#x11f;" 
d="M308 -231c-50 0 -91.499 5.83398 -124.499 17.501s-57.833 28 -74.5 49s-25 45.167 -25 72.5c0 18.667 7 38.167 21 58.5s34 38.5 60 54.5v4c-12 6 -23.333 15.333 -34 28s-16 29 -16 49c0 15.333 5 31.166 15 47.499s24.333 30.833 43 43.5v4
c-15.333 12.667 -28.666 29.334 -39.999 50.001s-17 45.334 -17 74.001c0 32.667 8.16699 62 24.5 88s38 46.333 65 61s56.833 22 89.5 22c25.333 0 47.333 -4 66 -12h200v-38h-145c14.667 -14 27.667 -31.5 39 -52.5s17 -44.167 17 -69.5
c0 -32.667 -7.83301 -61.667 -23.5 -87s-37 -45 -64 -59s-56.833 -21 -89.5 -21c-14.667 0 -29.834 1.83301 -45.501 5.5s-30.834 9.16699 -45.501 16.5c-14 -8.66699 -25.333 -18.834 -34 -30.501s-13 -23.834 -13 -36.501c0 -23.333 10 -40.333 30 -51s47 -16 81 -16h119
c61.333 0 105.833 -8.33301 133.5 -25s41.5 -44.334 41.5 -83.001c0 -27.333 -10.5 -53.666 -31.5 -78.999s-50.333 -45.833 -88 -61.5s-82.5 -23.5 -134.5 -23.5zM295.001 188.001c24 0 46.167 5.66699 66.5 17s36.5 27 48.5 47s18 43 18 69s-6 49.167 -18 69.5
s-28.167 36.166 -48.5 47.499s-42.5 17 -66.5 17c-24.667 0 -47 -5.66699 -67 -17s-36.167 -27.166 -48.5 -47.499s-18.5 -43.5 -18.5 -69.5s6.16699 -49 18.5 -69s28.5 -35.667 48.5 -47s42.333 -17 67 -17zM305.001 -194.999c44 0 81.833 6 113.5 18
s55.834 27.5 72.501 46.5s25 38.5 25 58.5c0 27.333 -10.333 46 -31 56s-52 15 -94 15h-114c-12 0 -24.5 0.666992 -37.5 2s-24.833 3.66602 -35.5 6.99902c-28.667 -15.333 -48.834 -31.666 -60.501 -48.999s-17.5 -34.666 -17.5 -51.999
c0 -28.667 14.833 -52.834 44.5 -72.501s74.5 -29.5 134.5 -29.5zM309.001 570.001c-34.667 0 -62.332 7.83301 -82.999 23.5s-36.167 34.834 -46.5 57.501s-16.833 45 -19.5 67l33 5c2.66699 -18.667 8.5 -37.167 17.5 -55.5s21.667 -33.5 38 -45.5s36.5 -18 60.5 -18
c24.667 0 45 6 61 18s28.5 27.167 37.5 45.5s14.833 36.833 17.5 55.5l33 -5c-2.66699 -22 -9.16699 -44.333 -19.5 -67s-25.833 -41.834 -46.5 -57.501s-48.334 -23.5 -83.001 -23.5z" />
    <glyph glyph-name="Gdotaccent" unicode="&#x120;" 
d="M334 -12c-54.667 0 -102.665 13.998 -143.998 41.998s-73.5 67.667 -96.5 119s-34.5 112 -34.5 182c0 69.333 11.833 129.5 35.5 180.5s56.834 90.333 99.501 118s92.334 41.5 149.001 41.5c43.333 0 79.166 -8.5 107.499 -25.5s50.833 -34.833 67.5 -53.5l-27 -30
c-16 18.667 -36 34.5 -60 47.5s-53.333 19.5 -88 19.5c-48.667 0 -90.5 -12.167 -125.5 -36.5s-62.167 -58.666 -81.5 -102.999s-29 -97.166 -29 -158.499c0 -60.667 9.16699 -113.667 27.5 -159s44.666 -80.333 78.999 -105s75.5 -37 123.5 -37
c29.333 0 56.666 4.33301 81.999 13s45.666 21 60.999 37v205h-152v39h197v-261c-20 -22 -46.167 -40 -78.5 -54s-69.833 -21 -112.5 -21zM330.002 720.998c-10.667 0 -20.167 3.83301 -28.5 11.5s-12.5 17.834 -12.5 30.501c0 12 4.16699 21.667 12.5 29s17.833 11 28.5 11
c11.333 0 21 -3.66699 29 -11s12 -17 12 -29c0 -12.667 -4 -22.834 -12 -30.501s-17.667 -11.5 -29 -11.5z" />
    <glyph glyph-name="gdotaccent" unicode="&#x121;" 
d="M308 -231c-50 0 -91.499 5.83398 -124.499 17.501s-57.833 28 -74.5 49s-25 45.167 -25 72.5c0 18.667 7 38.167 21 58.5s34 38.5 60 54.5v4c-12 6 -23.333 15.333 -34 28s-16 29 -16 49c0 15.333 5 31.166 15 47.499s24.333 30.833 43 43.5v4
c-15.333 12.667 -28.666 29.334 -39.999 50.001s-17 45.334 -17 74.001c0 32.667 8.16699 62 24.5 88s38 46.333 65 61s56.833 22 89.5 22c25.333 0 47.333 -4 66 -12h200v-38h-145c14.667 -14 27.667 -31.5 39 -52.5s17 -44.167 17 -69.5
c0 -32.667 -7.83301 -61.667 -23.5 -87s-37 -45 -64 -59s-56.833 -21 -89.5 -21c-14.667 0 -29.834 1.83301 -45.501 5.5s-30.834 9.16699 -45.501 16.5c-14 -8.66699 -25.333 -18.834 -34 -30.501s-13 -23.834 -13 -36.501c0 -23.333 10 -40.333 30 -51s47 -16 81 -16h119
c61.333 0 105.833 -8.33301 133.5 -25s41.5 -44.334 41.5 -83.001c0 -27.333 -10.5 -53.666 -31.5 -78.999s-50.333 -45.833 -88 -61.5s-82.5 -23.5 -134.5 -23.5zM295.001 188.001c24 0 46.167 5.66699 66.5 17s36.5 27 48.5 47s18 43 18 69s-6 49.167 -18 69.5
s-28.167 36.166 -48.5 47.499s-42.5 17 -66.5 17c-24.667 0 -47 -5.66699 -67 -17s-36.167 -27.166 -48.5 -47.499s-18.5 -43.5 -18.5 -69.5s6.16699 -49 18.5 -69s28.5 -35.667 48.5 -47s42.333 -17 67 -17zM305.001 -194.999c44 0 81.833 6 113.5 18
s55.834 27.5 72.501 46.5s25 38.5 25 58.5c0 27.333 -10.333 46 -31 56s-52 15 -94 15h-114c-12 0 -24.5 0.666992 -37.5 2s-24.833 3.66602 -35.5 6.99902c-28.667 -15.333 -48.834 -31.666 -60.501 -48.999s-17.5 -34.666 -17.5 -51.999
c0 -28.667 14.833 -52.834 44.5 -72.501s74.5 -29.5 134.5 -29.5zM309.001 597.001c-12.667 0 -23.667 4.33301 -33 13s-14 20.334 -14 35.001s4.66699 26.334 14 35.001s20.333 13 33 13c13.333 0 24.5 -4.33301 33.5 -13s13.5 -20.334 13.5 -35.001
s-4.5 -26.334 -13.5 -35.001s-20.167 -13 -33.5 -13z" />
    <glyph glyph-name="Gcommaaccent" unicode="&#x122;" 
d="M334 -12c-54.667 0 -102.665 13.998 -143.998 41.998s-73.5 67.667 -96.5 119s-34.5 112 -34.5 182c0 69.333 11.833 129.5 35.5 180.5s56.834 90.333 99.501 118s92.334 41.5 149.001 41.5c43.333 0 79.166 -8.5 107.499 -25.5s50.833 -34.833 67.5 -53.5l-27 -30
c-16 18.667 -36 34.5 -60 47.5s-53.333 19.5 -88 19.5c-48.667 0 -90.5 -12.167 -125.5 -36.5s-62.167 -58.666 -81.5 -102.999s-29 -97.166 -29 -158.499c0 -60.667 9.16699 -113.667 27.5 -159s44.666 -80.333 78.999 -105s75.5 -37 123.5 -37
c29.333 0 56.666 4.33301 81.999 13s45.666 21 60.999 37v205h-152v39h197v-261c-20 -22 -46.167 -40 -78.5 -54s-69.833 -21 -112.5 -21zM257.002 -219.002l-7 30c43.333 3.33301 73 9.33301 89 18s24 20 24 34c0 15.333 -6.83301 26.5 -20.5 33.5s-32.5 11.5 -56.5 13.5
l13 29c38 -6 64.667 -14.333 80 -25s23 -26.667 23 -48c0 -26 -12.333 -45.833 -37 -59.5s-60.667 -22.167 -108 -25.5z" />
    <glyph glyph-name="gcommaaccent" unicode="&#x123;" 
d="M308 -231c-50 0 -91.499 5.83398 -124.499 17.501s-57.833 28 -74.5 49s-25 45.167 -25 72.5c0 18.667 7 38.167 21 58.5s34 38.5 60 54.5v4c-12 6 -23.333 15.333 -34 28s-16 29 -16 49c0 15.333 5 31.166 15 47.499s24.333 30.833 43 43.5v4
c-15.333 12.667 -28.666 29.334 -39.999 50.001s-17 45.334 -17 74.001c0 32.667 8.16699 62 24.5 88s38 46.333 65 61s56.833 22 89.5 22c25.333 0 47.333 -4 66 -12h200v-38h-145c14.667 -14 27.667 -31.5 39 -52.5s17 -44.167 17 -69.5
c0 -32.667 -7.83301 -61.667 -23.5 -87s-37 -45 -64 -59s-56.833 -21 -89.5 -21c-14.667 0 -29.834 1.83301 -45.501 5.5s-30.834 9.16699 -45.501 16.5c-14 -8.66699 -25.333 -18.834 -34 -30.501s-13 -23.834 -13 -36.501c0 -23.333 10 -40.333 30 -51s47 -16 81 -16h119
c61.333 0 105.833 -8.33301 133.5 -25s41.5 -44.334 41.5 -83.001c0 -27.333 -10.5 -53.666 -31.5 -78.999s-50.333 -45.833 -88 -61.5s-82.5 -23.5 -134.5 -23.5zM295.001 188.001c24 0 46.167 5.66699 66.5 17s36.5 27 48.5 47s18 43 18 69s-6 49.167 -18 69.5
s-28.167 36.166 -48.5 47.499s-42.5 17 -66.5 17c-24.667 0 -47 -5.66699 -67 -17s-36.167 -27.166 -48.5 -47.499s-18.5 -43.5 -18.5 -69.5s6.16699 -49 18.5 -69s28.5 -35.667 48.5 -47s42.333 -17 67 -17zM305.001 -194.999c44 0 81.833 6 113.5 18
s55.834 27.5 72.501 46.5s25 38.5 25 58.5c0 27.333 -10.333 46 -31 56s-52 15 -94 15h-114c-12 0 -24.5 0.666992 -37.5 2s-24.833 3.66602 -35.5 6.99902c-28.667 -15.333 -48.834 -31.666 -60.501 -48.999s-17.5 -34.666 -17.5 -51.999
c0 -28.667 14.833 -52.834 44.5 -72.501s74.5 -29.5 134.5 -29.5zM344.001 579.001c-38 5.33301 -64.667 13.499 -80 24.499s-23 27.167 -23 48.5c0 26.667 12.5 46.834 37.5 60.501s60.833 21.834 107.5 24.501l7 -30c-43.333 -2.66699 -73 -8.33398 -89 -17.001
s-24 -20.667 -24 -36c0 -14.667 6.83301 -25.5 20.5 -32.5s32.5 -11.5 56.5 -13.5z" />
    <glyph glyph-name="Hcircumflex" unicode="&#x124;" 
d="M88 0v659h47v-289h330v289h47v-659h-47v330h-330v-330h-47zM185 707l-20 19l113 113h44l113 -113l-20 -19l-113 98h-4z" />
    <glyph glyph-name="hcircumflex" unicode="&#x125;" 
d="M105 0v719.001h45v-208l-3 -126h2c28.667 31.333 58.167 57 88.5 77s64.833 30 103.5 30c58.667 0 102.167 -16 130.5 -48s42.5 -80.333 42.5 -145v-299h-45v293c0 54 -10.5 94 -31.5 120s-55.5 39 -103.5 39c-34 0 -64.5 -8.83301 -91.5 -26.5
s-57.833 -44.834 -92.5 -81.501v-344h-45zM8 767.001l-20 19l113 113h44l113 -113l-20 -19l-113 98h-4z" />
    <glyph glyph-name="Hbar" unicode="&#x126;" 
d="M14 493v32l75 5h497v-37h-572zM88 0v659h47v-289h330v289h47v-659h-47v330h-330v-330h-47z" />
    <glyph glyph-name="hbar" unicode="&#x127;" 
d="M105 0v719.001h45v-228l-3 -126h2c28.667 31.333 58.167 57 88.5 77s64.833 30 103.5 30c58.667 0 102.167 -15.833 130.5 -47.5s42.5 -80.167 42.5 -145.5v-279h-45v273c0 54 -10.5 94 -31.5 120s-55.5 39 -103.5 39c-34 0 -64.5 -8.83301 -91.5 -26.5
s-57.833 -44.834 -92.5 -81.501v-324h-45zM29 578.001v33l78 5h272v-38h-350z" />
    <glyph glyph-name="Itilde" unicode="&#x128;" 
d="M107 0v40h170v579h-170v40h386v-40h-170v-579h170v-40h-386zM377 718c-18.667 0 -34.8359 4.16602 -48.5029 12.499s-25.834 17.5 -36.501 27.5s-21.334 19 -32.001 27s-23 12 -37 12c-14.667 0 -27 -6.83301 -37 -20.5s-16 -32.167 -18 -55.5l-33 3
c2 31.333 10.333 57.5 25 78.5s35.667 31.5 63 31.5c18.667 0 34.834 -4 48.501 -12s25.834 -17.167 36.501 -27.5s21.334 -19.5 32.001 -27.5s23 -12 37 -12c14.667 0 26.834 7 36.501 21s15.834 32.667 18.501 56l33 -3c-1.33301 -31.333 -9.5 -57.666 -24.5 -78.999
s-36.167 -32 -63.5 -32z" />
    <glyph glyph-name="itilde" unicode="&#x129;" 
d="M338 0v442h-241v38h285v-480h-44zM425 579c-19.333 0 -35.5029 4.83496 -48.5029 14.502s-24.833 20.834 -35.5 33.501s-21.167 23.834 -31.5 33.501s-22.5 14.5 -36.5 14.5c-18 0 -31.167 -8.83301 -39.5 -26.5s-13.166 -39.834 -14.499 -66.501l-34 2
c1.33301 21.333 4.83301 41.5 10.5 60.5s14.667 34.667 27 47s29.5 18.5 51.5 18.5c19.333 0 35.333 -4.83301 48 -14.5s24.334 -20.834 35.001 -33.501s21.334 -23.834 32.001 -33.501s23 -14.5 37 -14.5c18 0 31 9.16699 39 27.5s12.667 40.166 14 65.499l34 -2
c-1.33301 -20.667 -4.83301 -40.5 -10.5 -59.5s-14.5 -34.833 -26.5 -47.5s-29 -19 -51 -19z" />
    <glyph glyph-name="Imacron" unicode="&#x12a;" 
d="M107 0v40h170v579h-170v40h386v-40h-170v-579h170v-40h-386zM176 743v36h248v-36h-248z" />
    <glyph glyph-name="imacron" unicode="&#x12b;" 
d="M338 0v442h-241v38h285v-480h-44zM226 606v36h246v-36h-246z" />
    <glyph glyph-name="Ibreve" unicode="&#x12c;" 
d="M107 0v40h170v579h-170v40h386v-40h-170v-579h170v-40h-386zM300 710c-29.333 0 -53.499 6.16699 -72.499 18.5s-33.667 28.166 -44 47.499s-16.833 38.666 -19.5 57.999l33 5c3.33301 -25.333 13.333 -47.666 30 -66.999s41 -29 73 -29s56.333 9.66699 73 29
s26.667 41.666 30 66.999l33 -5c-2 -19.333 -8.33301 -38.666 -19 -57.999s-25.334 -35.166 -44.001 -47.499s-43 -18.5 -73 -18.5z" />
    <glyph glyph-name="ibreve" unicode="&#x12d;" 
d="M338 0v442h-241v38h285v-480h-44zM349 570c-34.667 0 -62.332 7.83301 -82.999 23.5s-36.167 34.834 -46.5 57.501s-16.833 45 -19.5 67l33 5c2.66699 -18.667 8.5 -37.167 17.5 -55.5s21.667 -33.5 38 -45.5s36.5 -18 60.5 -18c24.667 0 45 6 61 18
s28.5 27.167 37.5 45.5s14.833 36.833 17.5 55.5l33 -5c-2.66699 -22 -9.16699 -44.333 -19.5 -67s-25.833 -41.834 -46.5 -57.501s-48.334 -23.5 -83.001 -23.5z" />
    <glyph glyph-name="Iogonek" unicode="&#x12e;" 
d="M313 -224c-27.333 0 -50.0029 7.16699 -68.0029 21.5s-27 36.833 -27 67.5c0 16.667 3.33301 33 10 49s15.334 31.167 26.001 45.5s21.667 27.833 33 40.5h-180v40h170v579h-170v40h386v-40h-170v-579h170v-40h-163c-23.333 -23.333 -41.166 -45.833 -53.499 -67.5
s-18.5 -42.167 -18.5 -61.5c0 -20 6.16699 -34.833 18.5 -44.5s26.5 -14.5 42.5 -14.5c12.667 0 23.5 2.5 32.5 7.5s16.833 10.833 23.5 17.5l20 -25c-10.667 -10 -22.167 -18.5 -34.5 -25.5s-28.166 -10.5 -47.499 -10.5z" />
    <glyph glyph-name="iogonek" unicode="&#x12f;" 
d="M354 -224c-27.333 0 -50.002 7.16699 -68.002 21.5s-27 36.833 -27 67.5c0 26.667 7.83301 51.334 23.5 74.001s36.5 43 62.5 61h-7v442h-241v38h285v-487c-26.667 -16 -47.5 -34.833 -62.5 -56.5s-22.5 -43.5 -22.5 -65.5c0 -20 6.33301 -35 19 -45
s27.334 -15 44.001 -15c12.667 0 23.5 2.5 32.5 7.5s16.833 10.5 23.5 16.5l20 -23c-10.667 -10.667 -22.167 -19.334 -34.5 -26.001s-28.166 -10 -47.499 -10zM348.998 597c-12.667 0 -23.667 4.33301 -33 13s-14 20.334 -14 35.001s4.66699 26.334 14 35.001
s20.333 13 33 13c13.333 0 24.5 -4.33301 33.5 -13s13.5 -20.334 13.5 -35.001s-4.5 -26.334 -13.5 -35.001s-20.167 -13 -33.5 -13z" />
    <glyph glyph-name="Idotaccent" unicode="&#x130;" 
d="M107 0v40h170v579h-170v40h386v-40h-170v-579h170v-40h-386zM300 721c-10.667 0 -20.167 3.83301 -28.5 11.5s-12.5 17.834 -12.5 30.501c0 12 4.16699 21.667 12.5 29s17.833 11 28.5 11c11.333 0 21 -3.66699 29 -11s12 -17 12 -29c0 -12.667 -4 -22.834 -12 -30.501
s-17.667 -11.5 -29 -11.5z" />
    <glyph glyph-name="dotlessi" unicode="&#x131;" 
d="M338 0v442h-241v38h285v-480h-44z" />
    <glyph glyph-name="IJ" unicode="&#x132;" 
d="M134 0v659h46v-659h-46zM356 -156c-11.333 0 -22.5 1.50098 -33.5 4.50098s-20.5 5.83301 -28.5 8.5l10 39c6 -2 13.667 -4 23 -6s18.666 -3 27.999 -3c27.333 0 45 9.83301 53 29.5s12 44.5 12 74.5v668h46v-674c0 -31.333 -3.83301 -57.333 -11.5 -78
s-19.667 -36.334 -36 -47.001s-37.166 -16 -62.499 -16z" />
    <glyph glyph-name="ij" unicode="&#x133;" 
d="M132 0v480h45v-480h-45zM155 596c-12 0 -22.5 4.33301 -31.5 13s-13.5 20 -13.5 34s4.5 25.167 13.5 33.5s19.5 12.5 31.5 12.5c13.333 0 24.333 -4.16699 33 -12.5s13 -19.5 13 -33.5s-4.33301 -25.333 -13 -34s-19.667 -13 -33 -13zM379 -229
c-11.333 0 -22.5 1.33105 -33.5 3.99805s-20.5 5.33398 -28.5 8.00098l11 36c6 -2 13.5 -4.16699 22.5 -6.5s18.167 -3.5 27.5 -3.5c27.333 0 44.833 9.83301 52.5 29.5s11.5 44.834 11.5 75.501v566h45v-569c0 -31.333 -3.83301 -57.333 -11.5 -78
s-19.5 -36.167 -35.5 -46.5s-36.333 -15.5 -61 -15.5zM465 595.998c-12 0 -22.5 4.33301 -31.5 13s-13.5 20 -13.5 34s4.5 25.167 13.5 33.5s19.5 12.5 31.5 12.5c13.333 0 24.333 -4.16699 33 -12.5s13 -19.5 13 -33.5s-4.33301 -25.333 -13 -34s-19.667 -13 -33 -13z" />
    <glyph glyph-name="Jcircumflex" unicode="&#x134;" 
d="M277 -12c-36 0 -70.833 9.16699 -104.5 27.5s-60.167 45.833 -79.5 82.5l33 27c19.333 -32.667 42.5 -56.667 69.5 -72s54.167 -23 81.5 -23c54.667 0 94.5 14.667 119.5 44s37.5 74 37.5 134v413h-287v39h333v-457c0 -39.333 -6.16699 -75.333 -18.5 -108
s-33.333 -58.667 -63 -78s-70.167 -29 -121.5 -29zM206 707l-20 19l113 113h44l113 -113l-20 -19l-113 98h-4z" />
    <glyph glyph-name="jcircumflex" unicode="&#x135;" 
d="M194 -229c-22.667 0 -45.6689 3.16895 -69.002 9.50195s-44 13.833 -62 22.5l18 35c15.333 -8 33.333 -14.833 54 -20.5s41.334 -8.5 62.001 -8.5c38 0 67 6.16699 87 18.5s34 29.666 42 51.999s12 48.166 12 77.499v485h-241v38h285v-517
c0 -29.333 -3.16699 -55.833 -9.5 -79.5s-16.666 -44 -30.999 -61s-33.5 -29.833 -57.5 -38.5s-54 -13 -90 -13zM232.998 572.002l-22 21l117 144h42l117 -144l-22 -21l-114 126h-4z" />
    <glyph glyph-name="Kcommaaccent" unicode="&#x136;" 
d="M115 0v659h47v-366h2l325 366h54l-381 -432v-227h-47zM518 0l-233 404l30 37l256 -441h-53zM269 -219l-7 30c43.333 3.33301 73 9.33301 89 18s24 20 24 34c0 15.333 -6.83301 26.5 -20.5 33.5s-32.5 11.5 -56.5 13.5l13 29c38 -6 64.667 -14.333 80 -25
s23 -26.667 23 -48c0 -26 -12.333 -45.833 -37 -59.5s-60.667 -22.167 -108 -25.5z" />
    <glyph glyph-name="kcommaaccent" unicode="&#x137;" 
d="M123 0v719h45v-528h4l308 289h55l-367 -344v-136h-45zM516 0l-218 279l29 30l240 -309h-51zM265 -219l-7 30c43.333 3.33301 73 9.33301 89 18s24 20 24 34c0 15.333 -6.83301 26.5 -20.5 33.5s-32.5 11.5 -56.5 13.5l13 29c38 -6 64.667 -14.333 80 -25
s23 -26.667 23 -48c0 -26 -12.333 -45.833 -37 -59.5s-60.667 -22.167 -108 -25.5z" />
    <glyph glyph-name="kgreenlandic" unicode="&#x138;" 
d="M123 0v480h45v-291l2 2l310 289h55l-197 -186l229 -294h-51l-209 266l-139 -132v-134h-45z" />
    <glyph glyph-name="Lacute" unicode="&#x139;" 
d="M150 0v659h44v-619h345v-40h-389zM163 706l-20 23l124 123l29 -33z" />
    <glyph glyph-name="lacute" unicode="&#x13a;" 
d="M413 -12c-44.667 0 -79.498 12.499 -104.498 37.499s-37.5 64.833 -37.5 119.5v536h-181v38h225v-580c0 -38 9 -66.167 27 -84.5s44 -27.5 78 -27.5c15.333 0 31.166 2 47.499 6s33.5 10.333 51.5 19l14 -34c-20 -9.33301 -38.833 -16.666 -56.5 -21.999
s-38.834 -8 -63.501 -8zM268.002 765.999l-20 23l124 123l29 -33z" />
    <glyph glyph-name="Lcommaaccent" unicode="&#x13b;" 
d="M150 0v659h44v-619h345v-40h-389zM280 -219l-7 30c43.333 3.33301 73 9.33301 89 18s24 20 24 34c0 15.333 -6.83301 26.5 -20.5 33.5s-32.5 11.5 -56.5 13.5l13 29c38 -6 64.667 -14.333 80 -25s23 -26.667 23 -48c0 -26 -12.333 -45.833 -37 -59.5
s-60.667 -22.167 -108 -25.5z" />
    <glyph glyph-name="lcommaaccent" unicode="&#x13c;" 
d="M413 -12c-44.667 0 -79.498 12.499 -104.498 37.499s-37.5 64.833 -37.5 119.5v536h-181v38h225v-580c0 -38 9 -66.167 27 -84.5s44 -27.5 78 -27.5c15.333 0 31.166 2 47.499 6s33.5 10.333 51.5 19l14 -34c-20 -9.33301 -38.833 -16.666 -56.5 -21.999
s-38.834 -8 -63.501 -8zM319.002 -219.001l-7 30c43.333 3.33301 73 9.33301 89 18s24 20 24 34c0 15.333 -6.83301 26.5 -20.5 33.5s-32.5 11.5 -56.5 13.5l13 29c38 -6 64.667 -14.333 80 -25s23 -26.667 23 -48c0 -26 -12.333 -45.833 -37 -59.5
s-60.667 -22.167 -108 -25.5z" />
    <glyph glyph-name="Lcaron" unicode="&#x13d;" 
d="M150 0v659h44v-619h345v-40h-389zM389 517l-2 265h42v-71l-8 -194h-32z" />
    <glyph glyph-name="lcaron" unicode="&#x13e;" 
d="M413 -12c-44.667 0 -79.498 12.499 -104.498 37.499s-37.5 64.833 -37.5 119.5v536h-181v38h225v-580c0 -38 9 -66.167 27 -84.5s44 -27.5 78 -27.5c15.333 0 31.166 2 47.499 6s33.5 10.333 51.5 19l14 -34c-20 -9.33301 -38.833 -16.666 -56.5 -21.999
s-38.834 -8 -63.501 -8zM398.002 547.999l-2 265h42v-71l-8 -194h-32z" />
    <glyph glyph-name="Ldot" unicode="&#x13f;" 
d="M150 0v659h44v-619h345v-40h-389zM462 296c-12.667 0 -23.667 4.33301 -33 13s-14 20.334 -14 35.001s4.66699 26.334 14 35.001s20.333 13 33 13c13.333 0 24.5 -4.33301 33.5 -13s13.5 -20.334 13.5 -35.001s-4.5 -26.334 -13.5 -35.001s-20.167 -13 -33.5 -13z" />
    <glyph glyph-name="ldot" unicode="&#x140;" 
d="M381 -12c-44.667 0 -79.498 12.499 -104.498 37.499s-37.5 64.833 -37.5 119.5v536h-181v38h225v-580c0 -38 9 -66.167 27 -84.5s44 -27.5 78 -27.5c15.333 0 31.166 2 47.499 6s33.5 10.333 51.5 19l14 -34c-20 -9.33301 -38.833 -16.666 -56.5 -21.999
s-38.834 -8 -63.501 -8zM577.002 295.999c-12.667 0 -23.667 4.33301 -33 13s-14 20.334 -14 35.001s4.66699 26.334 14 35.001s20.333 13 33 13c13.333 0 24.5 -4.33301 33.5 -13s13.5 -20.334 13.5 -35.001s-4.5 -26.334 -13.5 -35.001s-20.167 -13 -33.5 -13z" />
    <glyph glyph-name="Lslash" unicode="&#x141;" 
d="M37 188l-17 31l134 69l37 17l232 122l17 -32l-249 -131l-37 -16zM150 0v659h44v-619h345v-40h-389z" />
    <glyph glyph-name="lslash" unicode="&#x142;" 
d="M150 295l-17 32l141 84l36 16l168 96l16 -32l-184 -106l-36 -17zM414 -12c-45.333 0 -80.499 12.5 -105.499 37.5s-37.5 64.833 -37.5 119.5v536h-182v38h226v-580c0 -38 9 -66.167 27 -84.5s44 -27.5 78 -27.5c15.333 0 31.166 2 47.499 6s33.5 10.333 51.5 19l14 -34
c-20.667 -10 -39.667 -17.5 -57 -22.5s-38 -7.5 -62 -7.5z" />
    <glyph glyph-name="Nacute" unicode="&#x143;" 
d="M92 0v659h49l257 -466l70 -130h2c-0.666992 31.333 -1.83398 63 -3.50098 95s-2.5 64 -2.5 96v405h44v-659h-49l-257 466l-70 130h-2c0.666992 -32 1.83398 -63.167 3.50098 -93.5s2.5 -61.5 2.5 -93.5v-409h-44zM286 706l-20 23l124 123l29 -33z" />
    <glyph glyph-name="nacute" unicode="&#x144;" 
d="M105 0v480.001h38l5 -92h4c27.333 30 56 54.833 86 74.5s64.333 29.5 103 29.5c58.667 0 102.167 -16 130.5 -48s42.5 -80.333 42.5 -145v-299h-45v293c0 54 -10.5 94 -31.5 120s-55.5 39 -103.5 39c-34 0 -64.5 -8.83301 -91.5 -26.5s-57.833 -44.834 -92.5 -81.501
v-344h-45zM288 572.001l-24 23l134 159l34 -31z" />
    <glyph glyph-name="Ncommaaccent" unicode="&#x145;" 
d="M92 0v659h49l257 -466l70 -130h2c-0.666992 31.333 -1.83398 63 -3.50098 95s-2.5 64 -2.5 96v405h44v-659h-49l-257 466l-70 130h-2c0.666992 -32 1.83398 -63.167 3.50098 -93.5s2.5 -61.5 2.5 -93.5v-409h-44zM223 -219l-7 30c43.333 3.33301 73 9.33301 89 18
s24 20 24 34c0 15.333 -6.83301 26.5 -20.5 33.5s-32.5 11.5 -56.5 13.5l13 29c38 -6 64.667 -14.333 80 -25s23 -26.667 23 -48c0 -26 -12.333 -45.833 -37 -59.5s-60.667 -22.167 -108 -25.5z" />
    <glyph glyph-name="ncommaaccent" unicode="&#x146;" 
d="M105 0v480.001h38l5 -92h4c27.333 30 56 54.833 86 74.5s64.333 29.5 103 29.5c58.667 0 102.167 -16 130.5 -48s42.5 -80.333 42.5 -145v-299h-45v293c0 54 -10.5 94 -31.5 120s-55.5 39 -103.5 39c-34 0 -64.5 -8.83301 -91.5 -26.5s-57.833 -44.834 -92.5 -81.501
v-344h-45zM240 -218.999l-7 30c43.333 3.33301 73 9.33301 89 18s24 20 24 34c0 15.333 -6.83301 26.5 -20.5 33.5s-32.5 11.5 -56.5 13.5l13 29c38 -6 64.667 -14.333 80 -25s23 -26.667 23 -48c0 -26 -12.333 -45.833 -37 -59.5s-60.667 -22.167 -108 -25.5z" />
    <glyph glyph-name="Ncaron" unicode="&#x147;" 
d="M92 0v659h49l257 -466l70 -130h2c-0.666992 31.333 -1.83398 63 -3.50098 95s-2.5 64 -2.5 96v405h44v-659h-49l-257 466l-70 130h-2c0.666992 -32 1.83398 -63.167 3.50098 -93.5s2.5 -61.5 2.5 -93.5v-409h-44zM288 709l-113 114l20 18l113 -98h4l113 98l20 -18
l-113 -114h-44z" />
    <glyph glyph-name="ncaron" unicode="&#x148;" 
d="M105 0v480.001h38l5 -92h4c27.333 30 56 54.833 86 74.5s64.333 29.5 103 29.5c58.667 0 102.167 -16 130.5 -48s42.5 -80.333 42.5 -145v-299h-45v293c0 54 -10.5 94 -31.5 120s-55.5 39 -103.5 39c-34 0 -64.5 -8.83301 -91.5 -26.5s-57.833 -44.834 -92.5 -81.501
v-344h-45zM298 573.001l-117 144l22 20l114 -125h4l114 125l22 -20l-117 -144h-42z" />
    <glyph glyph-name="napostrophe" unicode="&#x149;" 
d="M184 0v479.998h38l5 -83h4c26 26.667 53 49.167 81 67.5s60.333 27.5 97 27.5c54.667 0 95.167 -15.167 121.5 -45.5s39.5 -76.5 39.5 -138.5v-308h-44v302c0 50.667 -9.66699 88.334 -29 113.001s-51 37 -95 37c-32 0 -60.667 -8.16699 -86 -24.5
s-54.333 -41.166 -87 -74.499v-353h-45zM13 384.998l-20.001 30.001c30.667 21.333 54.834 47.666 72.501 78.999s26.5 67 26.5 107l-27 68l52 -59c-8 -10 -16.667 -18.167 -26 -24.5s-19 -9.5 -29 -9.5c-17.333 0 -31.5 5.66699 -42.5 17s-16.5 25.666 -16.5 42.999
c0 18.667 5.66699 34 17 46s26 18 44 18c20 0 37.333 -8.66699 52 -26s22 -41.333 22 -72c0 -47.333 -11.667 -90.166 -35 -128.499s-53.333 -67.833 -90 -88.5z" />
    <glyph glyph-name="Eng" unicode="&#x14a;" 
d="M388 -12c-11.333 0 -23.667 1.00195 -37 3.00195s-24.666 5.33301 -33.999 10l14 43c8 -3.33301 16 -6 24 -8s17.667 -3 29 -3c21.333 0 40.5 9.33301 57.5 28s30.5 50 40.5 94s15 104.667 15 182c0 75.333 -7.5 134.166 -22.5 176.499s-36.333 72.166 -64 89.499
s-59.167 26 -94.5 26c-19.333 0 -39.833 -4.83301 -61.5 -14.5s-42.334 -22.5 -62.001 -38.5s-36.5 -33.333 -50.5 -52v-524h-46v659h45v-87c15.333 17.333 32.666 33.5 51.999 48.5s40 27.167 62 36.5s44.333 14 67 14c42.667 0 80.834 -10.667 114.501 -32
s60.167 -56.5 79.5 -105.5s29 -114.5 29 -196.5c0 -88 -7 -157.5 -21 -208.5s-32.833 -87.167 -56.5 -108.5s-50.167 -32 -79.5 -32z" />
    <glyph glyph-name="eng" unicode="&#x14b;" 
d="M398 -181c-12.667 0 -25.4961 1.50098 -38.4961 4.50098s-23.5 6.16699 -31.5 9.5l10 36c7.33301 -2.66699 16.166 -5.16699 26.499 -7.5s21.166 -3.5 32.499 -3.5c30 0 49.5 10.5 58.5 31.5s13.5 48.167 13.5 81.5v322c0 54 -10.5 94 -31.5 120s-55.5 39 -103.5 39
c-34 0 -64.5 -8.83301 -91.5 -26.5s-57.833 -44.834 -92.5 -81.501v-344h-45v480h38l5 -92h4c27.333 30 56 54.833 86 74.5s64.333 29.5 103 29.5c58.667 0 102.167 -16 130.5 -48s42.5 -80.333 42.5 -145v-331c0 -32.667 -4.33301 -60.167 -13 -82.5
s-21.334 -39 -38.001 -50s-38.334 -16.5 -65.001 -16.5z" />
    <glyph glyph-name="Omacron" unicode="&#x14c;" 
d="M300 -12c-48 0 -90.5 14 -127.5 42s-66 67.833 -87 119.5s-31.5 112.5 -31.5 182.5c0 69.333 10.5 129.5 31.5 180.5s50 90.167 87 117.5s79.5 41 127.5 41s90.5 -13.667 127.5 -41s66 -66.5 87 -117.5s31.5 -111.167 31.5 -180.5c0 -70 -10.5 -130.833 -31.5 -182.5
s-50 -91.5 -87 -119.5s-79.5 -42 -127.5 -42zM300 30c39.333 0 73.833 12.333 103.5 37s52.834 59.667 69.501 105s25 98.666 25 159.999c0 60.667 -8.33301 113.334 -25 158.001s-39.834 79 -69.501 103s-64.167 36 -103.5 36s-73.833 -12 -103.5 -36
s-52.834 -58.333 -69.501 -103s-25 -97.334 -25 -158.001c0 -61.333 8.33301 -114.666 25 -159.999s39.834 -80.333 69.501 -105s64.167 -37 103.5 -37zM176 743v36h248v-36h-248z" />
    <glyph glyph-name="omacron" unicode="&#x14d;" 
d="M300 -12c-42 0 -80.667 9.83301 -116 29.5s-63.666 48.334 -84.999 86.001s-32 82.834 -32 135.501c0 53.333 10.667 99 32 137s49.666 66.833 84.999 86.5s74 29.5 116 29.5s80.667 -9.83301 116 -29.5s63.666 -48.5 84.999 -86.5s32 -83.667 32 -137
c0 -52.667 -10.667 -97.834 -32 -135.501s-49.666 -66.334 -84.999 -86.001s-74 -29.5 -116 -29.5zM300 27c36 0 68.167 8.83301 96.5 26.5s50.333 42.5 66 74.5s23.5 69 23.5 111s-7.83301 79.167 -23.5 111.5s-37.667 57.5 -66 75.5s-60.5 27 -96.5 27s-68 -9 -96 -27
s-50 -43.167 -66 -75.5s-24 -69.5 -24 -111.5s8 -79 24 -111s38 -56.833 66 -74.5s60 -26.5 96 -26.5zM177 606v36h246v-36h-246z" />
    <glyph glyph-name="Obreve" unicode="&#x14e;" 
d="M300 -12c-48 0 -90.5 14 -127.5 42s-66 67.833 -87 119.5s-31.5 112.5 -31.5 182.5c0 69.333 10.5 129.5 31.5 180.5s50 90.167 87 117.5s79.5 41 127.5 41s90.5 -13.667 127.5 -41s66 -66.5 87 -117.5s31.5 -111.167 31.5 -180.5c0 -70 -10.5 -130.833 -31.5 -182.5
s-50 -91.5 -87 -119.5s-79.5 -42 -127.5 -42zM300 30c39.333 0 73.833 12.333 103.5 37s52.834 59.667 69.501 105s25 98.666 25 159.999c0 60.667 -8.33301 113.334 -25 158.001s-39.834 79 -69.501 103s-64.167 36 -103.5 36s-73.833 -12 -103.5 -36
s-52.834 -58.333 -69.501 -103s-25 -97.334 -25 -158.001c0 -61.333 8.33301 -114.666 25 -159.999s39.834 -80.333 69.501 -105s64.167 -37 103.5 -37zM300 710c-29.333 0 -53.499 6.16699 -72.499 18.5s-33.667 28.166 -44 47.499s-16.833 38.666 -19.5 57.999l33 5
c3.33301 -25.333 13.333 -47.666 30 -66.999s41 -29 73 -29s56.333 9.66699 73 29s26.667 41.666 30 66.999l33 -5c-2 -19.333 -8.33301 -38.666 -19 -57.999s-25.334 -35.166 -44.001 -47.499s-43 -18.5 -73 -18.5z" />
    <glyph glyph-name="obreve" unicode="&#x14f;" 
d="M300 -12c-42 0 -80.667 9.83301 -116 29.5s-63.666 48.334 -84.999 86.001s-32 82.834 -32 135.501c0 53.333 10.667 99 32 137s49.666 66.833 84.999 86.5s74 29.5 116 29.5s80.667 -9.83301 116 -29.5s63.666 -48.5 84.999 -86.5s32 -83.667 32 -137
c0 -52.667 -10.667 -97.834 -32 -135.501s-49.666 -66.334 -84.999 -86.001s-74 -29.5 -116 -29.5zM300 27c36 0 68.167 8.83301 96.5 26.5s50.333 42.5 66 74.5s23.5 69 23.5 111s-7.83301 79.167 -23.5 111.5s-37.667 57.5 -66 75.5s-60.5 27 -96.5 27s-68 -9 -96 -27
s-50 -43.167 -66 -75.5s-24 -69.5 -24 -111.5s8 -79 24 -111s38 -56.833 66 -74.5s60 -26.5 96 -26.5zM300 570c-34.667 0 -62.332 7.83301 -82.999 23.5s-36.167 34.834 -46.5 57.501s-16.833 45 -19.5 67l33 5c2.66699 -18.667 8.5 -37.167 17.5 -55.5
s21.667 -33.5 38 -45.5s36.5 -18 60.5 -18c24.667 0 45 6 61 18s28.5 27.167 37.5 45.5s14.833 36.833 17.5 55.5l33 -5c-2.66699 -22 -9.16699 -44.333 -19.5 -67s-25.833 -41.834 -46.5 -57.501s-48.334 -23.5 -83.001 -23.5z" />
    <glyph glyph-name="Ohungarumlaut" unicode="&#x150;" 
d="M300 -12c-48 0 -90.5 14 -127.5 42s-66 67.833 -87 119.5s-31.5 112.5 -31.5 182.5c0 69.333 10.5 129.5 31.5 180.5s50 90.167 87 117.5s79.5 41 127.5 41s90.5 -13.667 127.5 -41s66 -66.5 87 -117.5s31.5 -111.167 31.5 -180.5c0 -70 -10.5 -130.833 -31.5 -182.5
s-50 -91.5 -87 -119.5s-79.5 -42 -127.5 -42zM300 30c39.333 0 73.833 12.333 103.5 37s52.834 59.667 69.501 105s25 98.666 25 159.999c0 60.667 -8.33301 113.334 -25 158.001s-39.834 79 -69.501 103s-64.167 36 -103.5 36s-73.833 -12 -103.5 -36
s-52.834 -58.333 -69.501 -103s-25 -97.334 -25 -158.001c0 -61.333 8.33301 -114.666 25 -159.999s39.834 -80.333 69.501 -105s64.167 -37 103.5 -37zM225 708l-26 13l88 148l34 -21zM369 708l-26 13l88 148l34 -21z" />
    <glyph glyph-name="ohungarumlaut" unicode="&#x151;" 
d="M300 -12c-42 0 -80.667 9.83301 -116 29.5s-63.666 48.334 -84.999 86.001s-32 82.834 -32 135.501c0 53.333 10.667 99 32 137s49.666 66.833 84.999 86.5s74 29.5 116 29.5s80.667 -9.83301 116 -29.5s63.666 -48.5 84.999 -86.5s32 -83.667 32 -137
c0 -52.667 -10.667 -97.834 -32 -135.501s-49.666 -66.334 -84.999 -86.001s-74 -29.5 -116 -29.5zM300 27c36 0 68.167 8.83301 96.5 26.5s50.333 42.5 66 74.5s23.5 69 23.5 111s-7.83301 79.167 -23.5 111.5s-37.667 57.5 -66 75.5s-60.5 27 -96.5 27s-68 -9 -96 -27
s-50 -43.167 -66 -75.5s-24 -69.5 -24 -111.5s8 -79 24 -111s38 -56.833 66 -74.5s60 -26.5 96 -26.5zM241 569l-27 13l86 168l35 -19zM375 569l-27 13l86 168l35 -19z" />
    <glyph glyph-name="OE" unicode="&#x152;" 
d="M301 0c-56.667 0 -104.334 13.667 -143.001 41s-67.834 66 -87.501 116s-29.5 108.333 -29.5 175c0 66 9.83301 123.667 29.5 173s48.834 87.5 87.501 114.5s86.334 40.5 143.001 40.5h278v-39h-215v-251h164v-40h-164v-290h225v-40h-288zM296 39l24 -0.00195312v582h-24
c-48 0 -87.167 -12.167 -117.5 -36.5s-52.833 -58.166 -67.5 -101.499s-22 -93.666 -22 -150.999s7.33301 -108 22 -152s37.167 -78.5 67.5 -103.5s69.5 -37.5 117.5 -37.5z" />
    <glyph glyph-name="oe" unicode="&#x153;" 
d="M178 27c23.333 0 44.166 9 62.499 27s32.666 43 42.999 75s15.5 69 15.5 111s-5.16699 79 -15.5 111s-24.666 57 -42.999 75s-39.166 27 -62.499 27c-39.333 0 -69.833 -19.5 -91.5 -58.5s-32.5 -90.833 -32.5 -155.5c0 -63.333 10.833 -114.5 32.5 -153.5
s52.167 -58.5 91.5 -58.5zM176 -12c-32 0 -60.498 9.82812 -85.498 29.4951s-44.667 48.334 -59 86.001s-21.5 82.834 -21.5 135.501c0 54 7.16699 99.833 21.5 137.5s34 66.334 59 86.001s53.833 29.5 86.5 29.5c36.667 0 67.5 -14.167 92.5 -42.5s43.5 -71.5 55.5 -129.5
h-16c11.333 58 30.166 101.167 56.499 129.5s58.5 42.5 96.5 42.5c30.667 0 56.167 -9.66699 76.5 -29s35.5 -45.166 45.5 -77.499s15 -67.5 15 -105.5v-21c0 -7.33301 -0.666992 -16 -2 -26h-275v38h248l-9 -14c0 64.667 -8.5 113.667 -25.5 147s-42.5 50 -76.5 50
c-36 0 -65.333 -18.167 -88 -54.5s-34 -89.166 -34 -158.499c0 -71.333 12.667 -124.833 38 -160.5s58 -53.5 98 -53.5c20 0 37.5 3.66699 52.5 11s28.833 15.333 41.5 24l18 -33c-13.333 -10.667 -29.333 -20.167 -48 -28.5s-40.334 -12.5 -65.001 -12.5
c-28 0 -52.833 6.33301 -74.5 19s-40 31.667 -55 57s-26.5 57.333 -34.5 96h18c-12.667 -58 -31.5 -101.167 -56.5 -129.5s-56.167 -42.5 -93.5 -42.5z" />
    <glyph glyph-name="Racute" unicode="&#x154;" 
d="M117 0v659h188c44 0 82.167 -5.66699 114.5 -17s57.5 -29.833 75.5 -55.5s27 -59.5 27 -101.5c0 -40 -9 -73.5 -27 -100.5s-43.167 -47.333 -75.5 -61s-70.5 -20.5 -114.5 -20.5h-142v-303h-46zM163 341h130c58.667 0 103.667 11.833 135 35.5s47 59.834 47 108.501
c0 49.333 -15.667 84.166 -47 104.499s-76.333 30.5 -135 30.5h-130v-279zM295 316l44 13l196 -329h-54zM281 706l-20 23l124 123l29 -33z" />
    <glyph glyph-name="racute" unicode="&#x155;" 
d="M163 0l-0.00195312 480.001h38l5 -118h2c26 38 58.167 69.167 96.5 93.5s81.5 36.5 129.5 36.5c16 0 32.333 -1.33301 49 -4s32.334 -8 47.001 -16l-12 -39c-18 6 -32.833 10.333 -44.5 13s-27.167 4 -46.5 4c-40 0 -78.167 -11.333 -114.5 -34
s-71.166 -61.334 -104.499 -116.001v-300h-45zM313.998 572.001l-24 23l134 159l34 -31z" />
    <glyph glyph-name="Rcommaaccent" unicode="&#x156;" 
d="M117 0v659h188c44 0 82.167 -5.66699 114.5 -17s57.5 -29.833 75.5 -55.5s27 -59.5 27 -101.5c0 -40 -9 -73.5 -27 -100.5s-43.167 -47.333 -75.5 -61s-70.5 -20.5 -114.5 -20.5h-142v-303h-46zM163 341h130c58.667 0 103.667 11.833 135 35.5s47 59.834 47 108.501
c0 49.333 -15.667 84.166 -47 104.499s-76.333 30.5 -135 30.5h-130v-279zM295 316l44 13l196 -329h-54zM243 -219l-7 30c43.333 3.33301 73 9.33301 89 18s24 20 24 34c0 15.333 -6.83301 26.5 -20.5 33.5s-32.5 11.5 -56.5 13.5l13 29c38 -6 64.667 -14.333 80 -25
s23 -26.667 23 -48c0 -26 -12.333 -45.833 -37 -59.5s-60.667 -22.167 -108 -25.5z" />
    <glyph glyph-name="rcommaaccent" unicode="&#x157;" 
d="M163 0l-0.00195312 480.001h38l5 -118h2c26 38 58.167 69.167 96.5 93.5s81.5 36.5 129.5 36.5c16 0 32.333 -1.33301 49 -4s32.334 -8 47.001 -16l-12 -39c-18 6 -32.833 10.333 -44.5 13s-27.167 4 -46.5 4c-40 0 -78.167 -11.333 -114.5 -34
s-71.166 -61.334 -104.499 -116.001v-300h-45zM120.998 -218.999l-7 30c43.333 3.33301 73 9.33301 89 18s24 20 24 34c0 15.333 -6.83301 26.5 -20.5 33.5s-32.5 11.5 -56.5 13.5l13 29c38 -6 64.667 -14.333 80 -25s23 -26.667 23 -48c0 -26 -12.333 -45.833 -37 -59.5
s-60.667 -22.167 -108 -25.5z" />
    <glyph glyph-name="Rcaron" unicode="&#x158;" 
d="M117 0v659h188c44 0 82.167 -5.66699 114.5 -17s57.5 -29.833 75.5 -55.5s27 -59.5 27 -101.5c0 -40 -9 -73.5 -27 -100.5s-43.167 -47.333 -75.5 -61s-70.5 -20.5 -114.5 -20.5h-142v-303h-46zM163 341h130c58.667 0 103.667 11.833 135 35.5s47 59.834 47 108.501
c0 49.333 -15.667 84.166 -47 104.499s-76.333 30.5 -135 30.5h-130v-279zM295 316l44 13l196 -329h-54zM283 709l-113 114l20 18l113 -98h4l113 98l20 -18l-113 -114h-44z" />
    <glyph glyph-name="rcaron" unicode="&#x159;" 
d="M163 0l-0.00195312 480.001h38l5 -118h2c26 38 58.167 69.167 96.5 93.5s81.5 36.5 129.5 36.5c16 0 32.333 -1.33301 49 -4s32.334 -8 47.001 -16l-12 -39c-18 6 -32.833 10.333 -44.5 13s-27.167 4 -46.5 4c-40 0 -78.167 -11.333 -114.5 -34
s-71.166 -61.334 -104.499 -116.001v-300h-45zM323.998 573.001l-117 144l22 20l114 -125h4l114 125l22 -20l-117 -144h-42z" />
    <glyph glyph-name="Sacute" unicode="&#x15a;" 
d="M309 -12c-50 0 -94.5029 9.33105 -133.503 27.998s-72.167 42.334 -99.5 71.001l30 32c25.333 -27.333 55.5 -49 90.5 -65s72.833 -24 113.5 -24c52.667 0 94.667 12.167 126 36.5s47 55.833 47 94.5c0 28 -5.83301 50.333 -17.5 67s-27.167 30.334 -46.5 41.001
s-41 21 -65 31l-99 45c-20.667 8.66699 -42.167 19.5 -64.5 32.5s-41.166 30 -56.499 51s-23 47.833 -23 80.5c0 32 8.66699 60.167 26 84.5s41.333 43.333 72 57s65 20.5 103 20.5c42 0 79.5 -7.83301 112.5 -23.5s60.167 -34.167 81.5 -55.5l-27 -30
c-20 20.667 -44 37 -72 49s-60 18 -96 18c-45.333 0 -82.333 -10.667 -111 -32s-43 -50 -43 -86c0 -25.333 6.83301 -46 20.5 -62s30 -29 49 -39s37.167 -18.667 54.5 -26l99 -44c26.667 -10.667 51.334 -23.167 74.001 -37.5s40.834 -32.333 54.501 -54
s20.5 -49.5 20.5 -83.5c0 -33.333 -9.16699 -63.5 -27.5 -90.5s-44 -48.167 -77 -63.5s-71.5 -23 -115.5 -23zM290.997 705.998l-20 23l124 123l29 -33z" />
    <glyph glyph-name="sacute" unicode="&#x15b;" 
d="M319 -12c-49.333 0 -93.9961 7.66406 -133.996 22.9971s-74.333 33 -103 53l23 32c26.667 -20.667 57 -37.5 91 -50.5s76.333 -19.5 127 -19.5c49.333 0 86.333 9.5 111 28.5s37 41.167 37 66.5c0 10.667 -1.83301 21 -5.5 31s-11 19.5 -22 28.5s-27.833 17.5 -50.5 25.5
s-53 16 -91 24c-60.667 12 -107.834 28.667 -141.501 50s-50.5 49.333 -50.5 84c0 35.333 15.333 65.5 46 90.5s78 37.5 142 37.5c32 0 65 -5.5 99 -16.5s62.333 -25.167 85 -42.5l-24 -32c-20.667 16 -44.834 28.833 -72.501 38.5s-57.834 14.5 -90.501 14.5
c-35.333 0 -63 -4 -83 -12s-34.333 -18.667 -43 -32s-13 -27.666 -13 -42.999c0 -25.333 12.833 -45.333 38.5 -60s65.5 -27.667 119.5 -39c55.333 -11.333 97.666 -23.666 126.999 -36.999s49.333 -28.666 60 -45.999s16 -38 16 -62s-7.66699 -46.167 -23 -66.5
s-37.833 -36.833 -67.5 -49.5s-65.5 -19 -107.5 -19zM267.004 571.997l-24 23l134 159l34 -31z" />
    <glyph glyph-name="Scircumflex" unicode="&#x15c;" 
d="M309 -12c-50 0 -94.5029 9.33105 -133.503 27.998s-72.167 42.334 -99.5 71.001l30 32c25.333 -27.333 55.5 -49 90.5 -65s72.833 -24 113.5 -24c52.667 0 94.667 12.167 126 36.5s47 55.833 47 94.5c0 28 -5.83301 50.333 -17.5 67s-27.167 30.334 -46.5 41.001
s-41 21 -65 31l-99 45c-20.667 8.66699 -42.167 19.5 -64.5 32.5s-41.166 30 -56.499 51s-23 47.833 -23 80.5c0 32 8.66699 60.167 26 84.5s41.333 43.333 72 57s65 20.5 103 20.5c42 0 79.5 -7.83301 112.5 -23.5s60.167 -34.167 81.5 -55.5l-27 -30
c-20 20.667 -44 37 -72 49s-60 18 -96 18c-45.333 0 -82.333 -10.667 -111 -32s-43 -50 -43 -86c0 -25.333 6.83301 -46 20.5 -62s30 -29 49 -39s37.167 -18.667 54.5 -26l99 -44c26.667 -10.667 51.334 -23.167 74.001 -37.5s40.834 -32.333 54.501 -54
s20.5 -49.5 20.5 -83.5c0 -33.333 -9.16699 -63.5 -27.5 -90.5s-44 -48.167 -77 -63.5s-71.5 -23 -115.5 -23zM199.997 706.998l-20 19l113 113h44l113 -113l-20 -19l-113 98h-4z" />
    <glyph glyph-name="scircumflex" unicode="&#x15d;" 
d="M319 -12c-49.333 0 -93.9961 7.66406 -133.996 22.9971s-74.333 33 -103 53l23 32c26.667 -20.667 57 -37.5 91 -50.5s76.333 -19.5 127 -19.5c49.333 0 86.333 9.5 111 28.5s37 41.167 37 66.5c0 10.667 -1.83301 21 -5.5 31s-11 19.5 -22 28.5s-27.833 17.5 -50.5 25.5
s-53 16 -91 24c-60.667 12 -107.834 28.667 -141.501 50s-50.5 49.333 -50.5 84c0 35.333 15.333 65.5 46 90.5s78 37.5 142 37.5c32 0 65 -5.5 99 -16.5s62.333 -25.167 85 -42.5l-24 -32c-20.667 16 -44.834 28.833 -72.501 38.5s-57.834 14.5 -90.501 14.5
c-35.333 0 -63 -4 -83 -12s-34.333 -18.667 -43 -32s-13 -27.666 -13 -42.999c0 -25.333 12.833 -45.333 38.5 -60s65.5 -27.667 119.5 -39c55.333 -11.333 97.666 -23.666 126.999 -36.999s49.333 -28.666 60 -45.999s16 -38 16 -62s-7.66699 -46.167 -23 -66.5
s-37.833 -36.833 -67.5 -49.5s-65.5 -19 -107.5 -19zM182.004 571.997l-22 21l117 144h42l117 -144l-22 -21l-114 126h-4z" />
    <glyph glyph-name="Scedilla" unicode="&#x15e;" 
d="M309 -12c-50 0 -94.5029 9.33105 -133.503 27.998s-72.167 42.334 -99.5 71.001l30 32c25.333 -27.333 55.5 -49 90.5 -65s72.833 -24 113.5 -24c52.667 0 94.667 12.167 126 36.5s47 55.833 47 94.5c0 28 -5.83301 50.333 -17.5 67s-27.167 30.334 -46.5 41.001
s-41 21 -65 31l-99 45c-20.667 8.66699 -42.167 19.5 -64.5 32.5s-41.166 30 -56.499 51s-23 47.833 -23 80.5c0 32 8.66699 60.167 26 84.5s41.333 43.333 72 57s65 20.5 103 20.5c42 0 79.5 -7.83301 112.5 -23.5s60.167 -34.167 81.5 -55.5l-27 -30
c-20 20.667 -44 37 -72 49s-60 18 -96 18c-45.333 0 -82.333 -10.667 -111 -32s-43 -50 -43 -86c0 -25.333 6.83301 -46 20.5 -62s30 -29 49 -39s37.167 -18.667 54.5 -26l99 -44c26.667 -10.667 51.334 -23.167 74.001 -37.5s40.834 -32.333 54.501 -54
s20.5 -49.5 20.5 -83.5c0 -33.333 -9.16699 -63.5 -27.5 -90.5s-44 -48.167 -77 -63.5s-71.5 -23 -115.5 -23zM249.997 -219.002l-7.00098 29.9971c43.333 3.33301 73 9.33301 89 18s24 20.334 24 35.001s-6.16699 25.834 -18.5 33.501s-32.166 13.5 -59.499 17.5l34 92h35
l-23 -72c22 -5.33301 39.333 -13.166 52 -23.499s19 -25.5 19 -45.5c0 -26 -12.333 -45.833 -37 -59.5s-60.667 -22.167 -108 -25.5z" />
    <glyph glyph-name="scedilla" unicode="&#x15f;" 
d="M319 -12c-49.333 0 -93.9961 7.66406 -133.996 22.9971s-74.333 33 -103 53l23 32c26.667 -20.667 57 -37.5 91 -50.5s76.333 -19.5 127 -19.5c49.333 0 86.333 9.5 111 28.5s37 41.167 37 66.5c0 10.667 -1.83301 21 -5.5 31s-11 19.5 -22 28.5s-27.833 17.5 -50.5 25.5
s-53 16 -91 24c-60.667 12 -107.834 28.667 -141.501 50s-50.5 49.333 -50.5 84c0 35.333 15.333 65.5 46 90.5s78 37.5 142 37.5c32 0 65 -5.5 99 -16.5s62.333 -25.167 85 -42.5l-24 -32c-20.667 16 -44.834 28.833 -72.501 38.5s-57.834 14.5 -90.501 14.5
c-35.333 0 -63 -4 -83 -12s-34.333 -18.667 -43 -32s-13 -27.666 -13 -42.999c0 -25.333 12.833 -45.333 38.5 -60s65.5 -27.667 119.5 -39c55.333 -11.333 97.666 -23.666 126.999 -36.999s49.333 -28.666 60 -45.999s16 -38 16 -62s-7.66699 -46.167 -23 -66.5
s-37.833 -36.833 -67.5 -49.5s-65.5 -19 -107.5 -19zM238.004 -219.003l-7.00098 29.9971c43.333 3.33301 73 9.33301 89 18s24 20.334 24 35.001s-6.16699 25.834 -18.5 33.501s-32.166 13.5 -59.499 17.5l34 92h35l-23 -72c22 -5.33301 39.333 -13.166 52 -23.499
s19 -25.5 19 -45.5c0 -26 -12.333 -45.833 -37 -59.5s-60.667 -22.167 -108 -25.5z" />
    <glyph glyph-name="Scaron" unicode="&#x160;" 
d="M309 -12c-50 0 -94.5029 9.33105 -133.503 27.998s-72.167 42.334 -99.5 71.001l30 32c25.333 -27.333 55.5 -49 90.5 -65s72.833 -24 113.5 -24c52.667 0 94.667 12.167 126 36.5s47 55.833 47 94.5c0 28 -5.83301 50.333 -17.5 67s-27.167 30.334 -46.5 41.001
s-41 21 -65 31l-99 45c-20.667 8.66699 -42.167 19.5 -64.5 32.5s-41.166 30 -56.499 51s-23 47.833 -23 80.5c0 32 8.66699 60.167 26 84.5s41.333 43.333 72 57s65 20.5 103 20.5c42 0 79.5 -7.83301 112.5 -23.5s60.167 -34.167 81.5 -55.5l-27 -30
c-20 20.667 -44 37 -72 49s-60 18 -96 18c-45.333 0 -82.333 -10.667 -111 -32s-43 -50 -43 -86c0 -25.333 6.83301 -46 20.5 -62s30 -29 49 -39s37.167 -18.667 54.5 -26l99 -44c26.667 -10.667 51.334 -23.167 74.001 -37.5s40.834 -32.333 54.501 -54
s20.5 -49.5 20.5 -83.5c0 -33.333 -9.16699 -63.5 -27.5 -90.5s-44 -48.167 -77 -63.5s-71.5 -23 -115.5 -23zM292.997 708.998l-113 114l20 18l113 -98h4l113 98l20 -18l-113 -114h-44z" />
    <glyph glyph-name="scaron" unicode="&#x161;" 
d="M319 -12c-49.333 0 -93.9961 7.66406 -133.996 22.9971s-74.333 33 -103 53l23 32c26.667 -20.667 57 -37.5 91 -50.5s76.333 -19.5 127 -19.5c49.333 0 86.333 9.5 111 28.5s37 41.167 37 66.5c0 10.667 -1.83301 21 -5.5 31s-11 19.5 -22 28.5s-27.833 17.5 -50.5 25.5
s-53 16 -91 24c-60.667 12 -107.834 28.667 -141.501 50s-50.5 49.333 -50.5 84c0 35.333 15.333 65.5 46 90.5s78 37.5 142 37.5c32 0 65 -5.5 99 -16.5s62.333 -25.167 85 -42.5l-24 -32c-20.667 16 -44.834 28.833 -72.501 38.5s-57.834 14.5 -90.501 14.5
c-35.333 0 -63 -4 -83 -12s-34.333 -18.667 -43 -32s-13 -27.666 -13 -42.999c0 -25.333 12.833 -45.333 38.5 -60s65.5 -27.667 119.5 -39c55.333 -11.333 97.666 -23.666 126.999 -36.999s49.333 -28.666 60 -45.999s16 -38 16 -62s-7.66699 -46.167 -23 -66.5
s-37.833 -36.833 -67.5 -49.5s-65.5 -19 -107.5 -19zM277.004 572.997l-117 144l22 20l114 -125h4l114 125l22 -20l-117 -144h-42z" />
    <glyph glyph-name="Tcommaaccent" unicode="&#x162;" 
d="M277 0v620h-229v39h504v-39h-229v-620h-46zM223 -219l-7.00098 29.9971c43.333 3.33301 73 9.33301 89 18s24 20.334 24 35.001s-6.16699 25.834 -18.5 33.501s-32.166 13.5 -59.499 17.5l34 92h35l-23 -72c22 -5.33301 39.333 -13.166 52 -23.499s19 -25.5 19 -45.5
c0 -26 -12.333 -45.833 -37 -59.5s-60.667 -22.167 -108 -25.5z" />
    <glyph glyph-name="tcommaaccent" unicode="&#x163;" 
d="M397 -12c-44 0 -78.4971 8.00195 -103.497 24.002s-42.667 38.333 -53 67s-15.5 62.334 -15.5 101.001v262h-145v34l146 4l6 159h37v-159h256v-38h-256v-266c0 -30.667 3.66699 -57.334 11 -80.001s20.666 -39.834 39.999 -51.501s47 -17.5 83 -17.5
c25.333 0 48.166 2.16699 68.499 6.5s40.166 10.5 59.499 18.5l12 -34c-22 -8.66699 -44.5 -15.834 -67.5 -21.501s-49.167 -8.5 -78.5 -8.5zM320.003 -218.998l-7.00098 29.9971c43.333 3.33301 73 9.33301 89 18s24 20.334 24 35.001s-6.16699 25.834 -18.5 33.501
s-32.166 13.5 -59.499 17.5l34 92h35l-23 -72c22 -5.33301 39.333 -13.166 52 -23.499s19 -25.5 19 -45.5c0 -26 -12.333 -45.833 -37 -59.5s-60.667 -22.167 -108 -25.5z" />
    <glyph glyph-name="Tcaron" unicode="&#x164;" 
d="M277 0v620h-229v39h504v-39h-229v-620h-46zM278 709l-113 114l20 18l113 -98h4l113 98l20 -18l-113 -114h-44z" />
    <glyph glyph-name="tcaron" unicode="&#x165;" 
d="M397 -12c-44 0 -78.4971 8.00195 -103.497 24.002s-42.667 38.333 -53 67s-15.5 62.334 -15.5 101.001v262h-145v34l146 4l6 159h37v-159h256v-38h-256v-266c0 -30.667 3.66699 -57.334 11 -80.001s20.666 -39.834 39.999 -51.501s47 -17.5 83 -17.5
c25.333 0 48.166 2.16699 68.499 6.5s40.166 10.5 59.499 18.5l12 -34c-22 -8.66699 -44.5 -15.834 -67.5 -21.501s-49.167 -8.5 -78.5 -8.5zM408.003 548.002l-2 265h42v-71l-8 -194h-32z" />
    <glyph glyph-name="Tbar" unicode="&#x166;" 
d="M131 328v35l85 2h253v-37h-338zM277 0v620h-229v39h504v-39h-229v-620h-46z" />
    <glyph glyph-name="tbar" unicode="&#x167;" 
d="M80 233v33l146 5h279v-38h-425zM397 -12c-44 0 -78.4971 8.00195 -103.497 24.002s-42.667 38.333 -53 67s-15.5 62.334 -15.5 101.001v262h-145v34l146 4l6 159h37v-159h256v-38h-256v-266c0 -30.667 3.66699 -57.334 11 -80.001s20.666 -39.834 39.999 -51.501
s47 -17.5 83 -17.5c25.333 0 48.166 2.16699 68.499 6.5s40.166 10.5 59.499 18.5l12 -34c-22 -8.66699 -44.5 -15.834 -67.5 -21.501s-49.167 -8.5 -78.5 -8.5z" />
    <glyph glyph-name="Utilde" unicode="&#x168;" 
d="M300 -12c-27.333 0 -53.667 4.16699 -79 12.5s-48 22.166 -68 41.499s-35.667 45.833 -47 79.5s-17 75.5 -17 125.5v412h46v-407c0 -56.667 7.66699 -101.167 23 -133.5s35.5 -55.166 60.5 -68.499s52.167 -20 81.5 -20c30 0 57.667 6.66699 83 20
s45.833 36.166 61.5 68.499s23.5 76.833 23.5 133.5v407h43v-412c0 -50 -5.66699 -91.833 -17 -125.5s-27 -60.167 -47 -79.5s-42.5 -33.166 -67.5 -41.499s-51.5 -12.5 -79.5 -12.5zM376.999 718c-18.667 0 -34.8359 4.16602 -48.5029 12.499s-25.834 17.5 -36.501 27.5
s-21.334 19 -32.001 27s-23 12 -37 12c-14.667 0 -27 -6.83301 -37 -20.5s-16 -32.167 -18 -55.5l-33 3c2 31.333 10.333 57.5 25 78.5s35.667 31.5 63 31.5c18.667 0 34.834 -4 48.501 -12s25.834 -17.167 36.501 -27.5s21.334 -19.5 32.001 -27.5s23 -12 37 -12
c14.667 0 26.834 7 36.501 21s15.834 32.667 18.501 56l33 -3c-1.33301 -31.333 -9.5 -57.666 -24.5 -78.999s-36.167 -32 -63.5 -32z" />
    <glyph glyph-name="utilde" unicode="&#x169;" 
d="M259 -12c-58.667 0 -101.999 16 -129.999 48s-42 80.333 -42 145v299h44v-293c0 -54 10.5 -94 31.5 -120s55.5 -39 103.5 -39c34 0 65 8.83301 93 26.5s58.333 45.167 91 82.5v343h44v-480h-37l-5 93h-4c-26 -30 -54.333 -55 -85 -75s-65.334 -30 -104.001 -30z
M370.001 579c-19.333 0 -35.5029 4.83496 -48.5029 14.502s-24.833 20.834 -35.5 33.501s-21.167 23.834 -31.5 33.501s-22.5 14.5 -36.5 14.5c-18 0 -31.167 -8.83301 -39.5 -26.5s-13.166 -39.834 -14.499 -66.501l-34 2c1.33301 21.333 4.83301 41.5 10.5 60.5
s14.667 34.667 27 47s29.5 18.5 51.5 18.5c19.333 0 35.333 -4.83301 48 -14.5s24.334 -20.834 35.001 -33.501s21.334 -23.834 32.001 -33.501s23 -14.5 37 -14.5c18 0 31 9.16699 39 27.5s12.667 40.166 14 65.499l34 -2c-1.33301 -20.667 -4.83301 -40.5 -10.5 -59.5
s-14.5 -34.833 -26.5 -47.5s-29 -19 -51 -19z" />
    <glyph glyph-name="Umacron" unicode="&#x16a;" 
d="M300 -12c-27.333 0 -53.667 4.16699 -79 12.5s-48 22.166 -68 41.499s-35.667 45.833 -47 79.5s-17 75.5 -17 125.5v412h46v-407c0 -56.667 7.66699 -101.167 23 -133.5s35.5 -55.166 60.5 -68.499s52.167 -20 81.5 -20c30 0 57.667 6.66699 83 20
s45.833 36.166 61.5 68.499s23.5 76.833 23.5 133.5v407h43v-412c0 -50 -5.66699 -91.833 -17 -125.5s-27 -60.167 -47 -79.5s-42.5 -33.166 -67.5 -41.499s-51.5 -12.5 -79.5 -12.5zM175.999 743v36h248v-36h-248z" />
    <glyph glyph-name="umacron" unicode="&#x16b;" 
d="M259 -12c-58.667 0 -101.999 16 -129.999 48s-42 80.333 -42 145v299h44v-293c0 -54 10.5 -94 31.5 -120s55.5 -39 103.5 -39c34 0 65 8.83301 93 26.5s58.333 45.167 91 82.5v343h44v-480h-37l-5 93h-4c-26 -30 -54.333 -55 -85 -75s-65.334 -30 -104.001 -30z
M171.001 606v36h246v-36h-246z" />
    <glyph glyph-name="Ubreve" unicode="&#x16c;" 
d="M300 -12c-27.333 0 -53.667 4.16699 -79 12.5s-48 22.166 -68 41.499s-35.667 45.833 -47 79.5s-17 75.5 -17 125.5v412h46v-407c0 -56.667 7.66699 -101.167 23 -133.5s35.5 -55.166 60.5 -68.499s52.167 -20 81.5 -20c30 0 57.667 6.66699 83 20
s45.833 36.166 61.5 68.499s23.5 76.833 23.5 133.5v407h43v-412c0 -50 -5.66699 -91.833 -17 -125.5s-27 -60.167 -47 -79.5s-42.5 -33.166 -67.5 -41.499s-51.5 -12.5 -79.5 -12.5zM299.999 710c-29.333 0 -53.499 6.16699 -72.499 18.5s-33.667 28.166 -44 47.499
s-16.833 38.666 -19.5 57.999l33 5c3.33301 -25.333 13.333 -47.666 30 -66.999s41 -29 73 -29s56.333 9.66699 73 29s26.667 41.666 30 66.999l33 -5c-2 -19.333 -8.33301 -38.666 -19 -57.999s-25.334 -35.166 -44.001 -47.499s-43 -18.5 -73 -18.5z" />
    <glyph glyph-name="ubreve" unicode="&#x16d;" 
d="M259 -12c-58.667 0 -101.999 16 -129.999 48s-42 80.333 -42 145v299h44v-293c0 -54 10.5 -94 31.5 -120s55.5 -39 103.5 -39c34 0 65 8.83301 93 26.5s58.333 45.167 91 82.5v343h44v-480h-37l-5 93h-4c-26 -30 -54.333 -55 -85 -75s-65.334 -30 -104.001 -30z
M294.001 570c-34.667 0 -62.332 7.83301 -82.999 23.5s-36.167 34.834 -46.5 57.501s-16.833 45 -19.5 67l33 5c2.66699 -18.667 8.5 -37.167 17.5 -55.5s21.667 -33.5 38 -45.5s36.5 -18 60.5 -18c24.667 0 45 6 61 18s28.5 27.167 37.5 45.5s14.833 36.833 17.5 55.5
l33 -5c-2.66699 -22 -9.16699 -44.333 -19.5 -67s-25.833 -41.834 -46.5 -57.501s-48.334 -23.5 -83.001 -23.5z" />
    <glyph glyph-name="Uring" unicode="&#x16e;" 
d="M300 -12c-27.333 0 -53.667 4.16699 -79 12.5s-48 22.166 -68 41.499s-35.667 45.833 -47 79.5s-17 75.5 -17 125.5v412h46v-407c0 -56.667 7.66699 -101.167 23 -133.5s35.5 -55.166 60.5 -68.499s52.167 -20 81.5 -20c30 0 57.667 6.66699 83 20
s45.833 36.166 61.5 68.499s23.5 76.833 23.5 133.5v407h43v-412c0 -50 -5.66699 -91.833 -17 -125.5s-27 -60.167 -47 -79.5s-42.5 -33.166 -67.5 -41.499s-51.5 -12.5 -79.5 -12.5zM299.999 700c-24.667 0 -45.5 7.83301 -62.5 23.5s-25.5 36.167 -25.5 61.5
c0 26 8.5 46.833 25.5 62.5s37.833 23.5 62.5 23.5c24 0 44.667 -7.83301 62 -23.5s26 -36.5 26 -62.5c0 -25.333 -8.66699 -45.833 -26 -61.5s-38 -23.5 -62 -23.5zM299.999 726c14.667 0 27.667 5 39 15s17 24.667 17 44c0 18.667 -5.66699 33.334 -17 44.001
s-24.333 16 -39 16c-16 0 -29.667 -5.33301 -41 -16s-17 -25.334 -17 -44.001c0 -19.333 5.66699 -34 17 -44s25 -15 41 -15z" />
    <glyph glyph-name="uring" unicode="&#x16f;" 
d="M259 -12c-58.667 0 -101.999 16 -129.999 48s-42 80.333 -42 145v299h44v-293c0 -54 10.5 -94 31.5 -120s55.5 -39 103.5 -39c34 0 65 8.83301 93 26.5s58.333 45.167 91 82.5v343h44v-480h-37l-5 93h-4c-26 -30 -54.333 -55 -85 -75s-65.334 -30 -104.001 -30z
M294.001 570c-28.667 0 -52 8.66699 -70 26s-27 39 -27 65c0 26.667 9 48.667 27 66s41.333 26 70 26c29.333 0 52.833 -8.66699 70.5 -26s26.5 -39.333 26.5 -66c0 -26 -8.83301 -47.667 -26.5 -65s-41.167 -26 -70.5 -26zM294.001 596c18.667 0 34.167 6.33301 46.5 19
s18.5 28 18.5 46c0 18.667 -6.16699 34.334 -18.5 47.001s-27.833 19 -46.5 19c-18 0 -33.333 -6.33301 -46 -19s-19 -28.334 -19 -47.001c0 -18 6.33301 -33.333 19 -46s28 -19 46 -19z" />
    <glyph glyph-name="Uhungarumlaut" unicode="&#x170;" 
d="M300 -12c-27.333 0 -53.667 4.16699 -79 12.5s-48 22.166 -68 41.499s-35.667 45.833 -47 79.5s-17 75.5 -17 125.5v412h46v-407c0 -56.667 7.66699 -101.167 23 -133.5s35.5 -55.166 60.5 -68.499s52.167 -20 81.5 -20c30 0 57.667 6.66699 83 20
s45.833 36.166 61.5 68.499s23.5 76.833 23.5 133.5v407h43v-412c0 -50 -5.66699 -91.833 -17 -125.5s-27 -60.167 -47 -79.5s-42.5 -33.166 -67.5 -41.499s-51.5 -12.5 -79.5 -12.5zM224.999 708l-26 13l88 148l34 -21zM368.999 708l-26 13l88 148l34 -21z" />
    <glyph glyph-name="uhungarumlaut" unicode="&#x171;" 
d="M259 -12c-58.667 0 -101.999 16 -129.999 48s-42 80.333 -42 145v299h44v-293c0 -54 10.5 -94 31.5 -120s55.5 -39 103.5 -39c34 0 65 8.83301 93 26.5s58.333 45.167 91 82.5v343h44v-480h-37l-5 93h-4c-26 -30 -54.333 -55 -85 -75s-65.334 -30 -104.001 -30z
M235.001 569l-27 13l86 168l35 -19zM369.001 569l-27 13l86 168l35 -19z" />
    <glyph glyph-name="Uogonek" unicode="&#x172;" 
d="M315 -224c-27.333 0 -50.0029 7.16797 -68.0029 21.501s-27 36.833 -27 67.5c0 18 3.5 34.5 10.5 49.5s15.833 28.667 26.5 41s21.334 23.166 32.001 32.499c-39.333 2 -74 12 -104 30s-53.5 45.667 -70.5 83s-25.5 86 -25.5 146v412h46v-407
c0 -56.667 7.5 -101.167 22.5 -133.5s35 -55.166 60 -68.499s52.167 -20 81.5 -20c30 0 57.833 6.66699 83.5 20s46.334 36.166 62.001 68.499s23.5 76.833 23.5 133.5v407h43v-412c0 -50.667 -5.5 -92.334 -16.5 -125.001s-27.167 -59 -48.5 -79s-47.333 -35.667 -78 -47
c-26.667 -10 -48 -21.833 -64 -35.5s-27.5 -28.167 -34.5 -43.5s-10.5 -30.666 -10.5 -45.999c0 -20 6.33301 -34.833 19 -44.5s27 -14.5 43 -14.5c12.667 0 23.5 2.5 32.5 7.5s16.833 10.833 23.5 17.5l20 -25c-10.667 -10 -22.167 -18.5 -34.5 -25.5
s-28.166 -10.5 -47.499 -10.5z" />
    <glyph glyph-name="uogonek" unicode="&#x173;" 
d="M452 -224c-27.333 0 -50 7.16602 -68 21.499s-27 36.833 -27 67.5c0 18 4 35 12 51s19.667 31 35 45s33 27.333 53 40l-5 92h-4c-26 -30 -54.333 -55 -85 -75s-65.334 -30 -104.001 -30c-58.667 0 -102 16 -130 48s-42 80.333 -42 145v299h44v-293
c0 -54 10.5 -94 31.5 -120s55.5 -39 103.5 -39c34 0 65 8.83301 93 26.5s58.333 45.167 91 82.5v343h44v-487c-34.667 -19.333 -59.834 -39.166 -75.501 -59.499s-23.5 -41.166 -23.5 -62.499c0 -20 6.33301 -35 19 -45s27.334 -15 44.001 -15c12.667 0 23.667 2.5 33 7.5
s17 10.5 23 16.5l20 -23c-10.667 -10.667 -22.167 -19.334 -34.5 -26.001s-28.166 -10 -47.499 -10z" />
    <glyph glyph-name="Wcircumflex" unicode="&#x174;" 
d="M122 0l-108 660h46l70 -451c2 -17.333 4.16699 -34.5 6.5 -51.5s4.83301 -33.833 7.5 -50.5s4.66699 -34.667 6 -54h3l15 54l14.5 50.5c5 17 9.5 34.167 13.5 51.5l82 279h47l82 -279l14 -51.5l14 -51l15 -53.5h4c2 18.667 4.16699 36.5 6.5 53.5l7 51
c2.33301 17 4.5 34.167 6.5 51.5l67 451h45l-106 -660h-59l-91 313l-14 57.5l-14 57.5h-3l-14 -57.5c-4.66699 -19 -10 -38.167 -16 -57.5l-88 -313h-59zM185 707l-20 19l113 113h44l113 -113l-20 -19l-113 98h-4z" />
    <glyph glyph-name="wcircumflex" unicode="&#x175;" 
d="M134 0l-123.001 479.998h47l76 -311l15.5 -64c5 -20.667 9.5 -42 13.5 -64h4c4.66699 22 9.66699 43.333 15 64l16 64l77 303h53l76 -303c5.33301 -22 10.833 -43.333 16.5 -64s10.834 -42 15.501 -64h4l15.5 64c5 20.667 9.83301 42 14.5 64l75 311h44l-121 -480h-60
l-75 290c-5.33301 22 -10.333 44.333 -15 67s-10 46.334 -16 71.001h-4c-4.66699 -24.667 -9.5 -48.667 -14.5 -72s-10.5 -45.666 -16.5 -66.999l-73 -289h-60zM183.999 571.998l-22 21l117 144h42l117 -144l-22 -21l-114 126h-4z" />
    <glyph glyph-name="Ycircumflex" unicode="&#x176;" 
d="M277 0v242l-226 417h47l118 -218l41.5 -76l42.5 -79h4l44 79l42 77l114 217h45l-226 -417v-242h-46zM185 707l-20 19l113 113h44l113 -113l-20 -19l-113 98h-4z" />
    <glyph glyph-name="ycircumflex" unicode="&#x177;" 
d="M124 -219c-9.33301 0 -19.332 0.998047 -29.999 2.99805s-19.667 4.33301 -27 7l12 39c6 -2 13.167 -3.83301 21.5 -5.5s16.833 -2.5 25.5 -2.5c37.333 0 68.166 12.167 92.499 36.5s43.5 54.5 57.5 90.5l17 42l-233 489h46l140 -302l31 -66.5
c11.333 -24.333 23 -47.166 35 -68.499h4l28.5 68.5l27.5 66.5l125 302h43l-226 -540c-9.33301 -26.667 -22.333 -52.167 -39 -76.5s-37.5 -44.166 -62.5 -59.499s-54.5 -23 -88.5 -23zM185.001 571.998l-22 21l117 144h42l117 -144l-22 -21l-114 126h-4z" />
    <glyph glyph-name="Ydieresis" unicode="&#x178;" 
d="M277 0v242l-226 417h47l118 -218l41.5 -76l42.5 -79h4l44 79l42 77l114 217h45l-226 -417v-242h-46zM220 725c-10 0 -18.667 3.33301 -26 10s-11 15.667 -11 27s3.66699 20.333 11 27s16 10 26 10c10.667 0 19.5 -3.33301 26.5 -10s10.5 -15.667 10.5 -27
s-3.5 -20.333 -10.5 -27s-15.833 -10 -26.5 -10zM380 725c-10 0 -18.667 3.33301 -26 10s-11 15.667 -11 27s3.66699 20.333 11 27s16 10 26 10c10.667 0 19.5 -3.33301 26.5 -10s10.5 -15.667 10.5 -27s-3.5 -20.333 -10.5 -27s-15.833 -10 -26.5 -10z" />
    <glyph glyph-name="Zacute" unicode="&#x179;" 
d="M70 0v27l403 594h-369v39h424v-28l-403 -592h410v-40h-465zM292 706l-20 23l124 123l29 -33z" />
    <glyph glyph-name="zacute" unicode="&#x17a;" 
d="M72 0v24l376 418h-336v38h403v-23l-376 -418h387v-39h-454zM288 572l-24 23l134 159l34 -31z" />
    <glyph glyph-name="Zdotaccent" unicode="&#x17b;" 
d="M70 0v27l403 594h-369v39h424v-28l-403 -592h410v-40h-465zM316 721c-10.667 0 -20.167 3.83301 -28.5 11.5s-12.5 17.834 -12.5 30.501c0 12 4.16699 21.667 12.5 29s17.833 11 28.5 11c11.333 0 21 -3.66699 29 -11s12 -17 12 -29c0 -12.667 -4 -22.834 -12 -30.501
s-17.667 -11.5 -29 -11.5z" />
    <glyph glyph-name="zdotaccent" unicode="&#x17c;" 
d="M72 0v24l376 418h-336v38h403v-23l-376 -418h387v-39h-454zM319 597c-12.667 0 -23.667 4.33301 -33 13s-14 20.334 -14 35.001s4.66699 26.334 14 35.001s20.333 13 33 13c13.333 0 24.5 -4.33301 33.5 -13s13.5 -20.334 13.5 -35.001s-4.5 -26.334 -13.5 -35.001
s-20.167 -13 -33.5 -13z" />
    <glyph glyph-name="Zcaron" unicode="&#x17d;" 
d="M70 0v27l403 594h-369v39h424v-28l-403 -592h410v-40h-465zM294 709l-113 114l20 18l113 -98h4l113 98l20 -18l-113 -114h-44z" />
    <glyph glyph-name="zcaron" unicode="&#x17e;" 
d="M72 0v24l376 418h-336v38h403v-23l-376 -418h387v-39h-454zM298 573l-117 144l22 20l114 -125h4l114 125l22 -20l-117 -144h-42z" />
    <glyph glyph-name="longs" unicode="&#x17f;" 
d="M260 0v537.999c0 40.667 6.66699 75.334 20 104.001s33.166 50.667 59.499 66s59.5 23 99.5 23c22 0 43.833 -2 65.5 -6s44.834 -11.667 69.501 -23l-14 -34c-22 10.667 -41.5 17.5 -58.5 20.5s-36.833 4.5 -59.5 4.5c-50.667 0 -86.667 -13.833 -108 -41.5
s-32 -64.167 -32 -109.5v-542h-42zM115 441.999v34l145 4h27v-38h-172z" />
    <glyph glyph-name="uni0180" unicode="&#x180;" 
d="M310 -12c-24.667 0 -51.5 6.00098 -80.5 18.001s-55.833 28 -80.5 48h-2l-5 -54h-37v719h45v-229l-3 -102h3c24 25.333 52.167 45.666 84.5 60.999s63.833 23 94.5 23c45.333 0 83 -9.66699 113 -29s52.667 -46.5 68 -81.5s23 -76.5 23 -124.5
c0 -52 -10.333 -96.667 -31 -134s-48 -65.833 -82 -85.5s-70.667 -29.5 -110 -29.5zM308 27.001c34 0 64.5 9.00098 91.5 27.001s48.167 42.667 63.5 74s23 67.666 23 108.999c0 37.333 -5.5 70.833 -16.5 100.5s-28.333 53 -52 70s-55.5 25.5 -95.5 25.5
c-24.667 0 -52 -7.16699 -82 -21.5s-60 -36.5 -90 -66.5v-247c28 -25.333 56.333 -43.5 85 -54.5s53 -16.5 73 -16.5zM29 578.002v34l77 4h273v-38h-350z" />
    <glyph glyph-name="uni018A" unicode="&#x18a;" 
d="M226 0l-0.000976562 651h46v-612h29c48 0 87.5 12.667 118.5 38s54 60.666 69 105.999s22.5 97.333 22.5 156c0 58 -8.16699 108.833 -24.5 152.5s-42.333 77.667 -78 102s-83.5 36.5 -143.5 36.5h-9c-38 0 -70 -7.66699 -96 -23s-46 -36.333 -60 -63
s-21 -56.667 -21 -90c0 -36.667 7.5 -66.834 22.5 -90.501s36.833 -43.834 65.5 -60.501l-24 -35c-34 17.333 -60.5 40.833 -79.5 70.5s-28.5 67.834 -28.5 114.501c0 42.667 8.5 80.334 25.5 113.001s42.5 58.334 76.5 77.001s75.667 28 125 28
c69.333 0 125.833 -13.5 169.5 -40.5s75.834 -65.333 96.501 -115s31 -108.5 31 -176.5s-10 -127.5 -30 -178.5s-49.5 -90.5 -88.5 -118.5s-87.167 -42 -144.5 -42h-70z" />
    <glyph glyph-name="uni018F" unicode="&#x18f;" 
d="M299 -12c-49.333 0 -91.502 14.665 -126.502 43.998s-61.833 69.5 -80.5 120.5s-28 109.833 -28 176.5v4.5v3.5h442v-38h-418l21 32c0 -62.667 7.66699 -116.667 23 -162s37 -80.166 65 -104.499s62 -36.5 102 -36.5c40.667 0 75.834 12.5 105.501 37.5
s52.667 60.167 69 105.5s24.5 98.666 24.5 159.999s-7.33301 114.333 -22 159s-36.667 79.334 -66 104.001s-65.333 37 -108 37c-29.333 0 -56.166 -5.83301 -80.499 -17.5s-45.833 -27.5 -64.5 -47.5l-24 31c20 21.333 44 39 72 53s60.333 21 97 21
c51.333 0 95 -13.833 131 -41.5s63.5 -66.834 82.5 -117.501s28.5 -111 28.5 -181c0 -69.333 -10.167 -129.666 -30.5 -180.999s-49 -91.166 -86 -119.499s-79.833 -42.5 -128.5 -42.5z" />
    <glyph glyph-name="florin" unicode="&#x192;" 
d="M126 -98c-14.667 0 -28.1699 2.16895 -40.5029 6.50195s-23.833 8.83301 -34.5 13.5l13 34c9.33301 -4 19.333 -7.5 30 -10.5s21.667 -4.5 33 -4.5c26 0 46.833 7.16699 62.5 21.5s28 33.833 37 58.5s15.167 53 18.5 85l39 362c5.33301 42 13.833 78.167 25.5 108.5
s28.167 53.666 49.5 69.999s48.333 24.5 81 24.5c12.667 0 24.334 -1 35.001 -3s20.334 -4.66699 29.001 -8s16.334 -7 23.001 -11l-16 -34c-9.33301 5.33301 -19.666 9.5 -30.999 12.5s-24.666 4.5 -39.999 4.5c-25.333 0 -45.833 -7.66699 -61.5 -23
s-27.334 -35.333 -35.001 -60s-12.834 -50.334 -15.501 -77.001l-41 -370c-4.66699 -41.333 -13 -77 -25 -107s-29 -53 -51 -69s-50.333 -24 -85 -24zM158.997 368.002v33l67 4h252v-37h-319z" />
    <glyph glyph-name="uni0193" unicode="&#x193;" 
d="M518 592l-39.998 3c-16 24.667 -27.333 44.667 -34 60s-10 32.666 -10 51.999c0 18.667 4.16699 34.5 12.5 47.5s19.666 23 33.999 30s30.166 10.5 47.499 10.5c10 0 19 -1.16699 27 -3.5s15.333 -5.16602 22 -8.49902l-10 -36l-16.5 6.5
c-5.66699 2.33301 -12.5 3.5 -20.5 3.5c-18 0 -31.667 -5.83301 -41 -17.5s-14 -24.834 -14 -39.501c0 -19.333 3.33301 -36.166 10 -50.499s17.667 -33.5 33 -57.5zM334.002 -12c-54.667 0 -102.665 13.998 -143.998 41.998s-73.5 67.667 -96.5 119s-34.5 112 -34.5 182
c0 69.333 11.833 129.5 35.5 180.5s56.834 90.333 99.501 118s92.334 41.5 149.001 41.5c43.333 0 79.166 -8.5 107.499 -25.5s50.833 -34.833 67.5 -53.5l-27 -30c-16 18.667 -36 34.5 -60 47.5s-53.333 19.5 -88 19.5c-48.667 0 -90.5 -12.167 -125.5 -36.5
s-62.167 -58.666 -81.5 -102.999s-29 -97.166 -29 -158.499c0 -60.667 9.16699 -113.667 27.5 -159s44.666 -80.333 78.999 -105s75.5 -37 123.5 -37c29.333 0 56.666 4.33301 81.999 13s45.666 21 60.999 37v205h-152v39h197v-261c-20 -22 -46.167 -40 -78.5 -54
s-69.833 -21 -112.5 -21z" />
    <glyph glyph-name="Ohorn" unicode="&#x1a0;" 
d="M437 614l-36 26.001c34 5.33301 58.667 15.5 74 30.5s23 34.5 23 58.5c0 8 -1 16.833 -3 26.5s-5.66699 18.834 -11 27.501l40 19c6 -10.667 10.667 -21.834 14 -33.501s5 -23.834 5 -36.501c0 -31.333 -9.66699 -56.833 -29 -76.5s-45 -33.5 -77 -41.5zM300 -11.999
c-48 0 -90.5 14 -127.5 42s-66 67.833 -87 119.5s-31.5 112.5 -31.5 182.5c0 69.333 10.5 129.5 31.5 180.5s50 90.167 87 117.5s79.5 41 127.5 41s90.5 -13.667 127.5 -41s66 -66.5 87 -117.5s31.5 -111.167 31.5 -180.5c0 -70 -10.5 -130.833 -31.5 -182.5
s-50 -91.5 -87 -119.5s-79.5 -42 -127.5 -42zM300 30.001c40 0 74.667 12.333 104 37s52.333 59.667 69 105s25 98.666 25 159.999c0 60.667 -8.33301 113.334 -25 158.001s-39.667 79 -69 103s-64 36 -104 36s-74.667 -12 -104 -36s-52.333 -58.333 -69 -103
s-25 -97.334 -25 -158.001c0 -61.333 8.33301 -114.666 25 -159.999s39.667 -80.333 69 -105s64 -37 104 -37z" />
    <glyph glyph-name="ohorn" unicode="&#x1a1;" 
d="M428 445l-36 23.999c34.667 5.33301 60.667 16.333 78 33s26 39.334 26 68.001c0 8 -1 16.833 -3 26.5s-5.66699 18.834 -11 27.501l38 20c6 -11.333 10.667 -22.833 14 -34.5s5 -23.834 5 -36.501c0 -26 -5.5 -47.667 -16.5 -65s-25 -31 -42 -41
s-34.5 -17.333 -52.5 -22zM300 -12.001c-42 0 -80.667 9.83301 -116 29.5s-63.666 48.334 -84.999 86.001s-32 82.834 -32 135.501c0 53.333 10.667 99 32 137s49.666 66.833 84.999 86.5s74 29.5 116 29.5s80.667 -9.83301 116 -29.5s63.666 -48.5 84.999 -86.5
s32 -83.667 32 -137c0 -52.667 -10.667 -97.834 -32 -135.501s-49.666 -66.334 -84.999 -86.001s-74 -29.5 -116 -29.5zM300 26.999c36 0 68.167 8.83301 96.5 26.5s50.333 42.5 66 74.5s23.5 69 23.5 111s-7.83301 79.167 -23.5 111.5s-37.667 57.5 -66 75.5
s-60.5 27 -96.5 27s-68 -9 -96 -27s-50 -43.167 -66 -75.5s-24 -69.5 -24 -111.5s8 -79 24 -111s38 -56.833 66 -74.5s60 -26.5 96 -26.5z" />
    <glyph glyph-name="Uhorn" unicode="&#x1af;" 
d="M510 633l-32 26.001c21.333 3.33301 38.5 8.5 51.5 15.5s22.667 16.5 29 28.5s9.5 26.667 9.5 44c0 8 -1.16699 16.833 -3.5 26.5s-5.83301 18.834 -10.5 27.501l39 19c6 -10.667 10.833 -21.834 14.5 -33.501s5.5 -23.834 5.5 -36.501c0 -24.667 -5 -44.667 -15 -60
s-22.833 -27.5 -38.5 -36.5s-32.167 -15.833 -49.5 -20.5zM300 -11.999c-27.333 0 -53.667 4.16699 -79 12.5s-48 22.166 -68 41.499s-35.667 45.833 -47 79.5s-17 75.5 -17 125.5v412h46v-407c0 -56.667 7.66699 -101.167 23 -133.5s35.5 -55.166 60.5 -68.499
s52.167 -20 81.5 -20c30 0 57.667 6.66699 83 20s45.833 36.166 61.5 68.499s23.5 76.833 23.5 133.5v407h43v-412c0 -50 -5.66699 -91.833 -17 -125.5s-27 -60.167 -47 -79.5s-42.5 -33.166 -67.5 -41.499s-51.5 -12.5 -79.5 -12.5z" />
    <glyph glyph-name="uhorn" unicode="&#x1b0;" 
d="M490 457l-34.001 23.001c17.333 4 32.333 9.66699 45 17s22.334 17.833 29.001 31.5s10 30.5 10 50.5c0 8 -1 16.833 -3 26.5s-5.66699 18.834 -11 27.501l38 20c6 -11.333 10.667 -22.833 14 -34.5s5 -23.834 5 -36.501c0 -26.667 -4.83301 -48.334 -14.5 -65.001
s-21.667 -29.5 -36 -38.5s-28.5 -16.167 -42.5 -21.5zM258.999 -11.999c-58.667 0 -101.999 16 -129.999 48s-42 80.333 -42 145v299h44v-293c0 -54 10.5 -94 31.5 -120s55.5 -39 103.5 -39c34 0 65 8.83301 93 26.5s58.333 45.167 91 82.5v343h44v-480h-37l-5 93h-4
c-26 -30 -54.333 -55 -85 -75s-65.334 -30 -104.001 -30z" />
    <glyph glyph-name="uni01C2" unicode="&#x1c2;" 
d="M279 -217v936h42v-936h-42zM96 330v33l184 4h224v-37h-408zM96 174v34l184 4h224v-38h-408z" />
    <glyph glyph-name="uni01CD" unicode="&#x1cd;" 
d="M45 0l232 659h46l232 -659h-49l-131 388l-38 113.5c-12 36.333 -23.667 74.5 -35 114.5h-4l-35.5 -114.5l-37.5 -113.5l-134 -388h-46zM151 226v39h295v-39h-295zM278 709l-113 114l20 18l113 -98h4l113 98l20 -18l-113 -114h-44z" />
    <glyph glyph-name="uni01CE" unicode="&#x1ce;" 
d="M259 -12c-28.667 0 -55.667 4.83398 -81 14.501s-46 24.167 -62 43.5s-24 43.666 -24 72.999c0 54 28.833 94.833 86.5 122.5s151.5 47.5 281.5 59.5c0 26 -4.33301 50.667 -13 74s-23.334 42.166 -44.001 56.499s-49.334 21.5 -86.001 21.5
c-24 0 -47.333 -3.33301 -70 -10s-43.667 -15.167 -63 -25.5s-35.666 -20.166 -48.999 -29.499l-20 33c12.667 9.33301 29.834 19.5 51.501 30.5s46 20.5 73 28.5s54.5 12 82.5 12c43.333 0 78.333 -8.33301 105 -25s46.167 -39 58.5 -67s18.5 -59 18.5 -93v-307h-37l-5 72
h-2c-28 -22 -59.5 -41.5 -94.5 -58.5s-70.5 -25.5 -106.5 -25.5zM267 26.001c30.667 0 61.998 7.33203 93.998 21.999s65 36.334 99 65.001v154c-81.333 -7.33301 -145.666 -17.5 -192.999 -30.5s-80.833 -29 -100.5 -48s-29.5 -41.167 -29.5 -66.5
c0 -23.333 6.33301 -42 19 -56s28.834 -24.167 48.501 -30.5s40.5 -9.5 62.5 -9.5zM298.998 573l-117 144l22 20l114 -125h4l114 125l22 -20l-117 -144h-42z" />
    <glyph glyph-name="uni01CF" unicode="&#x1cf;" 
d="M107 0v40h170v579h-170v40h386v-40h-170v-579h170v-40h-386zM278 709l-113 114l20 18l113 -98h4l113 98l20 -18l-113 -114h-44z" />
    <glyph glyph-name="uni01D0" unicode="&#x1d0;" 
d="M338 0v442h-241v38h285v-480h-44zM328 573l-117 144l22 20l114 -125h4l114 125l22 -20l-117 -144h-42z" />
    <glyph glyph-name="uni01D1" unicode="&#x1d1;" 
d="M300 -12c-48 0 -90.5 14 -127.5 42s-66 67.833 -87 119.5s-31.5 112.5 -31.5 182.5c0 69.333 10.5 129.5 31.5 180.5s50 90.167 87 117.5s79.5 41 127.5 41s90.5 -13.667 127.5 -41s66 -66.5 87 -117.5s31.5 -111.167 31.5 -180.5c0 -70 -10.5 -130.833 -31.5 -182.5
s-50 -91.5 -87 -119.5s-79.5 -42 -127.5 -42zM300 30c39.333 0 73.833 12.333 103.5 37s52.834 59.667 69.501 105s25 98.666 25 159.999c0 60.667 -8.33301 113.334 -25 158.001s-39.834 79 -69.501 103s-64.167 36 -103.5 36s-73.833 -12 -103.5 -36
s-52.834 -58.333 -69.501 -103s-25 -97.334 -25 -158.001c0 -61.333 8.33301 -114.666 25 -159.999s39.834 -80.333 69.501 -105s64.167 -37 103.5 -37zM278 709l-113 114l20 18l113 -98h4l113 98l20 -18l-113 -114h-44z" />
    <glyph glyph-name="uni01D2" unicode="&#x1d2;" 
d="M300 -12c-42 0 -80.667 9.83301 -116 29.5s-63.666 48.334 -84.999 86.001s-32 82.834 -32 135.501c0 53.333 10.667 99 32 137s49.666 66.833 84.999 86.5s74 29.5 116 29.5s80.667 -9.83301 116 -29.5s63.666 -48.5 84.999 -86.5s32 -83.667 32 -137
c0 -52.667 -10.667 -97.834 -32 -135.501s-49.666 -66.334 -84.999 -86.001s-74 -29.5 -116 -29.5zM300 27c36 0 68.167 8.83301 96.5 26.5s50.333 42.5 66 74.5s23.5 69 23.5 111s-7.83301 79.167 -23.5 111.5s-37.667 57.5 -66 75.5s-60.5 27 -96.5 27s-68 -9 -96 -27
s-50 -43.167 -66 -75.5s-24 -69.5 -24 -111.5s8 -79 24 -111s38 -56.833 66 -74.5s60 -26.5 96 -26.5zM279 573l-117 144l22 20l114 -125h4l114 125l22 -20l-117 -144h-42z" />
    <glyph glyph-name="uni01D3" unicode="&#x1d3;" 
d="M300 -12c-27.333 0 -53.667 4.16699 -79 12.5s-48 22.166 -68 41.499s-35.667 45.833 -47 79.5s-17 75.5 -17 125.5v412h46v-407c0 -56.667 7.66699 -101.167 23 -133.5s35.5 -55.166 60.5 -68.499s52.167 -20 81.5 -20c30 0 57.667 6.66699 83 20
s45.833 36.166 61.5 68.499s23.5 76.833 23.5 133.5v407h43v-412c0 -50 -5.66699 -91.833 -17 -125.5s-27 -60.167 -47 -79.5s-42.5 -33.166 -67.5 -41.499s-51.5 -12.5 -79.5 -12.5zM277.999 709l-113 114l20 18l113 -98h4l113 98l20 -18l-113 -114h-44z" />
    <glyph glyph-name="uni01D4" unicode="&#x1d4;" 
d="M259 -12c-58.667 0 -101.999 16 -129.999 48s-42 80.333 -42 145v299h44v-293c0 -54 10.5 -94 31.5 -120s55.5 -39 103.5 -39c34 0 65 8.83301 93 26.5s58.333 45.167 91 82.5v343h44v-480h-37l-5 93h-4c-26 -30 -54.333 -55 -85 -75s-65.334 -30 -104.001 -30z
M273.001 573l-117 144l22 20l114 -125h4l114 125l22 -20l-117 -144h-42z" />
    <glyph glyph-name="uni01D5" unicode="&#x1d5;" 
d="M300 -12c-27.333 0 -53.667 4.16699 -79 12.5s-48 22.166 -68 41.499s-35.667 45.833 -47 79.5s-17 75.5 -17 125.5v412h46v-407c0 -56.667 7.66699 -101.167 23 -133.5s35.5 -55.166 60.5 -68.499s52.167 -20 81.5 -20c30 0 57.667 6.66699 83 20
s45.833 36.166 61.5 68.499s23.5 76.833 23.5 133.5v407h43v-412c0 -50 -5.66699 -91.833 -17 -125.5s-27 -60.167 -47 -79.5s-42.5 -33.166 -67.5 -41.499s-51.5 -12.5 -79.5 -12.5zM201.999 725c-9.33301 0 -17.5 3.16699 -24.5 9.5s-10.5 14.833 -10.5 25.5
c0 11.333 3.5 20.166 10.5 26.499s15.167 9.5 24.5 9.5c10.667 0 19.334 -3.16699 26.001 -9.5s10 -15.166 10 -26.499c0 -10.667 -3.33301 -19.167 -10 -25.5s-15.334 -9.5 -26.001 -9.5zM397.999 725c-10 0 -18.5 3.16699 -25.5 9.5s-10.5 14.833 -10.5 25.5
c0 11.333 3.5 20.166 10.5 26.499s15.5 9.5 25.5 9.5s18.333 -3.16699 25 -9.5s10 -15.166 10 -26.499c0 -10.667 -3.33301 -19.167 -10 -25.5s-15 -9.5 -25 -9.5zM175.999 854v33h248v-33h-248z" />
    <glyph glyph-name="uni01D6" unicode="&#x1d6;" 
d="M259 -12c-58.667 0 -101.999 16 -129.999 48s-42 80.333 -42 145v299h44v-293c0 -54 10.5 -94 31.5 -120s55.5 -39 103.5 -39c34 0 65 8.83301 93 26.5s58.333 45.167 91 82.5v343h44v-480h-37l-5 93h-4c-26 -30 -54.333 -55 -85 -75s-65.334 -30 -104.001 -30z
M205.001 598c-9.33301 0 -17.5 3.5 -24.5 10.5s-10.5 15.5 -10.5 25.5s3.5 18.333 10.5 25s15.167 10 24.5 10c10.667 0 19.334 -3.33301 26.001 -10s10 -15 10 -25s-3.33301 -18.5 -10 -25.5s-15.334 -10.5 -26.001 -10.5zM383.001 598c-10 0 -18.5 3.5 -25.5 10.5
s-10.5 15.5 -10.5 25.5s3.5 18.333 10.5 25s15.5 10 25.5 10s18.333 -3.33301 25 -10s10 -15 10 -25s-3.33301 -18.5 -10 -25.5s-15 -10.5 -25 -10.5zM169.001 747v33h248v-33h-248z" />
    <glyph glyph-name="uni01D7" unicode="&#x1d7;" 
d="M300 -12c-27.333 0 -53.667 4.16699 -79 12.5s-48 22.166 -68 41.499s-35.667 45.833 -47 79.5s-17 75.5 -17 125.5v412h46v-407c0 -56.667 7.66699 -101.167 23 -133.5s35.5 -55.166 60.5 -68.499s52.167 -20 81.5 -20c30 0 57.667 6.66699 83 20
s45.833 36.166 61.5 68.499s23.5 76.833 23.5 133.5v407h43v-412c0 -50 -5.66699 -91.833 -17 -125.5s-27 -60.167 -47 -79.5s-42.5 -33.166 -67.5 -41.499s-51.5 -12.5 -79.5 -12.5zM201.999 725c-9.33301 0 -17.5 3.16699 -24.5 9.5s-10.5 14.833 -10.5 25.5
c0 11.333 3.5 20.166 10.5 26.499s15.167 9.5 24.5 9.5c10.667 0 19.334 -3.16699 26.001 -9.5s10 -15.166 10 -26.499c0 -10.667 -3.33301 -19.167 -10 -25.5s-15.334 -9.5 -26.001 -9.5zM397.999 725c-10 0 -18.5 3.16699 -25.5 9.5s-10.5 14.833 -10.5 25.5
c0 11.333 3.5 20.166 10.5 26.499s15.5 9.5 25.5 9.5s18.333 -3.16699 25 -9.5s10 -15.166 10 -26.499c0 -10.667 -3.33301 -19.167 -10 -25.5s-15 -9.5 -25 -9.5zM293.999 822l-22 17l94 106l31 -25z" />
    <glyph glyph-name="uni01D8" unicode="&#x1d8;" 
d="M259 -12c-58.667 0 -101.999 16 -129.999 48s-42 80.333 -42 145v299h44v-293c0 -54 10.5 -94 31.5 -120s55.5 -39 103.5 -39c34 0 65 8.83301 93 26.5s58.333 45.167 91 82.5v343h44v-480h-37l-5 93h-4c-26 -30 -54.333 -55 -85 -75s-65.334 -30 -104.001 -30z
M205.001 598c-9.33301 0 -17.5 3.5 -24.5 10.5s-10.5 15.5 -10.5 25.5s3.5 18.333 10.5 25s15.167 10 24.5 10c10.667 0 19.334 -3.33301 26.001 -10s10 -15 10 -25s-3.33301 -18.5 -10 -25.5s-15.334 -10.5 -26.001 -10.5zM383.001 598c-10 0 -18.5 3.5 -25.5 10.5
s-10.5 15.5 -10.5 25.5s3.5 18.333 10.5 25s15.5 10 25.5 10s18.333 -3.33301 25 -10s10 -15 10 -25s-3.33301 -18.5 -10 -25.5s-15 -10.5 -25 -10.5zM279.001 700l-23 18l85 104l31 -24z" />
    <glyph glyph-name="uni01D9" unicode="&#x1d9;" 
d="M300 -12c-27.333 0 -53.667 4.16699 -79 12.5s-48 22.166 -68 41.499s-35.667 45.833 -47 79.5s-17 75.5 -17 125.5v412h46v-407c0 -56.667 7.66699 -101.167 23 -133.5s35.5 -55.166 60.5 -68.499s52.167 -20 81.5 -20c30 0 57.667 6.66699 83 20
s45.833 36.166 61.5 68.499s23.5 76.833 23.5 133.5v407h43v-412c0 -50 -5.66699 -91.833 -17 -125.5s-27 -60.167 -47 -79.5s-42.5 -33.166 -67.5 -41.499s-51.5 -12.5 -79.5 -12.5zM201.999 725c-9.33301 0 -17.5 3.16699 -24.5 9.5s-10.5 14.833 -10.5 25.5
c0 11.333 3.5 20.166 10.5 26.499s15.167 9.5 24.5 9.5c10.667 0 19.334 -3.16699 26.001 -9.5s10 -15.166 10 -26.499c0 -10.667 -3.33301 -19.167 -10 -25.5s-15.334 -9.5 -26.001 -9.5zM397.999 725c-10 0 -18.5 3.16699 -25.5 9.5s-10.5 14.833 -10.5 25.5
c0 11.333 3.5 20.166 10.5 26.499s15.5 9.5 25.5 9.5s18.333 -3.16699 25 -9.5s10 -15.166 10 -26.499c0 -10.667 -3.33301 -19.167 -10 -25.5s-15 -9.5 -25 -9.5zM279.999 829l-104 94l19 20l103 -77h4l103 77l19 -20l-104 -94h-40z" />
    <glyph glyph-name="uni01DA" unicode="&#x1da;" 
d="M259 -12c-58.667 0 -101.999 16 -129.999 48s-42 80.333 -42 145v299h44v-293c0 -54 10.5 -94 31.5 -120s55.5 -39 103.5 -39c34 0 65 8.83301 93 26.5s58.333 45.167 91 82.5v343h44v-480h-37l-5 93h-4c-26 -30 -54.333 -55 -85 -75s-65.334 -30 -104.001 -30z
M205.001 598c-9.33301 0 -17.5 3.5 -24.5 10.5s-10.5 15.5 -10.5 25.5s3.5 18.333 10.5 25s15.167 10 24.5 10c10.667 0 19.334 -3.33301 26.001 -10s10 -15 10 -25s-3.33301 -18.5 -10 -25.5s-15.334 -10.5 -26.001 -10.5zM383.001 598c-10 0 -18.5 3.5 -25.5 10.5
s-10.5 15.5 -10.5 25.5s3.5 18.333 10.5 25s15.5 10 25.5 10s18.333 -3.33301 25 -10s10 -15 10 -25s-3.33301 -18.5 -10 -25.5s-15 -10.5 -25 -10.5zM275.001 710l-96 92l20 19l93 -78h4l93 78l20 -19l-96 -92h-38z" />
    <glyph glyph-name="uni01DB" unicode="&#x1db;" 
d="M300 -12c-27.333 0 -53.667 4.16699 -79 12.5s-48 22.166 -68 41.499s-35.667 45.833 -47 79.5s-17 75.5 -17 125.5v412h46v-407c0 -56.667 7.66699 -101.167 23 -133.5s35.5 -55.166 60.5 -68.499s52.167 -20 81.5 -20c30 0 57.667 6.66699 83 20
s45.833 36.166 61.5 68.499s23.5 76.833 23.5 133.5v407h43v-412c0 -50 -5.66699 -91.833 -17 -125.5s-27 -60.167 -47 -79.5s-42.5 -33.166 -67.5 -41.499s-51.5 -12.5 -79.5 -12.5zM201.999 725c-9.33301 0 -17.5 3.16699 -24.5 9.5s-10.5 14.833 -10.5 25.5
c0 11.333 3.5 20.166 10.5 26.499s15.167 9.5 24.5 9.5c10.667 0 19.334 -3.16699 26.001 -9.5s10 -15.166 10 -26.499c0 -10.667 -3.33301 -19.167 -10 -25.5s-15.334 -9.5 -26.001 -9.5zM397.999 725c-10 0 -18.5 3.16699 -25.5 9.5s-10.5 14.833 -10.5 25.5
c0 11.333 3.5 20.166 10.5 26.499s15.5 9.5 25.5 9.5s18.333 -3.16699 25 -9.5s10 -15.166 10 -26.499c0 -10.667 -3.33301 -19.167 -10 -25.5s-15 -9.5 -25 -9.5zM305.999 822l-103 98l31 25l94 -106z" />
    <glyph glyph-name="uni01DC" unicode="&#x1dc;" 
d="M259 -12c-58.667 0 -101.999 16 -129.999 48s-42 80.333 -42 145v299h44v-293c0 -54 10.5 -94 31.5 -120s55.5 -39 103.5 -39c34 0 65 8.83301 93 26.5s58.333 45.167 91 82.5v343h44v-480h-37l-5 93h-4c-26 -30 -54.333 -55 -85 -75s-65.334 -30 -104.001 -30z
M205.001 598c-9.33301 0 -17.5 3.5 -24.5 10.5s-10.5 15.5 -10.5 25.5s3.5 18.333 10.5 25s15.167 10 24.5 10c10.667 0 19.334 -3.33301 26.001 -10s10 -15 10 -25s-3.33301 -18.5 -10 -25.5s-15.334 -10.5 -26.001 -10.5zM383.001 598c-10 0 -18.5 3.5 -25.5 10.5
s-10.5 15.5 -10.5 25.5s3.5 18.333 10.5 25s15.5 10 25.5 10s18.333 -3.33301 25 -10s10 -15 10 -25s-3.33301 -18.5 -10 -25.5s-15 -10.5 -25 -10.5zM309.001 700l-93 98l31 24l85 -104z" />
    <glyph glyph-name="uni01E2" unicode="&#x1e2;" 
d="M0 0l291 659h288v-40h-214v-249h163v-40h-163v-290h224v-40h-268v619h-4l-49.5 -113.5l-50.5 -116.5l-167 -389h-50zM130 217v38h220v-38h-220zM314 743v36h248v-36h-248z" />
    <glyph glyph-name="uni01E3" unicode="&#x1e3;" 
d="M143 -12c-35.333 0 -65 10.8311 -89 32.498s-36 52.834 -36 93.501c0 32.667 9.16699 61.334 27.5 86.001s47.833 45.167 88.5 61.5s94.667 28.166 162 35.499v-34c-62 -7.33301 -109.833 -17.666 -143.5 -30.999s-57.167 -29.666 -70.5 -48.999s-20 -41.666 -20 -66.999
c0 -28.667 8.16699 -50.834 24.5 -66.501s37.833 -23.5 64.5 -23.5s54.5 9.5 83.5 28.5s52.833 44.167 71.5 75.5l20 -28c-24 -32.667 -51.5 -59.834 -82.5 -81.501s-64.5 -32.5 -100.5 -32.5zM459 -12.002c-38.667 0 -71.335 11.001 -98.002 33.001s-47 52.167 -61 90.5
s-21 82.166 -21 131.499v47c0.666992 59.333 -8.16602 101.333 -26.499 126s-43.5 37 -75.5 37c-22 0 -44.5 -4.5 -67.5 -13.5s-41.5 -18.833 -55.5 -29.5l-19 32c16 10.667 37 21.667 63 33s53.667 17 83 17c35.333 0 64.333 -11.833 87 -35.5s37.667 -61.5 45 -113.5h-16
c13.333 52 34.833 89.833 64.5 113.5s60.834 35.5 93.501 35.5c33.333 0 60.666 -9.83301 81.999 -29.5s37 -45.5 47 -77.5s15 -67 15 -105v-21c0 -7.33301 -0.666992 -16 -2 -26h-301v38h274l-9 -14c0 64.667 -8.66699 113.667 -26 147s-44.333 50 -81 50
c-22.667 0 -44.334 -6.83301 -65.001 -20.5s-37.5 -36.167 -50.5 -67.5s-19.5 -73 -19.5 -125c0 -42 5.16699 -79.167 15.5 -111.5s25.833 -57.5 46.5 -75.5s47.334 -27 80.001 -27c22 0 42 3.66699 60 11s33.333 15.333 46 24l18 -33
c-15.333 -10.667 -33.166 -20.167 -53.499 -28.5s-44.5 -12.5 -72.5 -12.5zM195.999 605.999v36h246v-36h-246z" />
    <glyph glyph-name="Gcaron" unicode="&#x1e6;" 
d="M334 -12c-54.667 0 -102.665 13.998 -143.998 41.998s-73.5 67.667 -96.5 119s-34.5 112 -34.5 182c0 69.333 11.833 129.5 35.5 180.5s56.834 90.333 99.501 118s92.334 41.5 149.001 41.5c43.333 0 79.166 -8.5 107.499 -25.5s50.833 -34.833 67.5 -53.5l-27 -30
c-16 18.667 -36 34.5 -60 47.5s-53.333 19.5 -88 19.5c-48.667 0 -90.5 -12.167 -125.5 -36.5s-62.167 -58.666 -81.5 -102.999s-29 -97.166 -29 -158.499c0 -60.667 9.16699 -113.667 27.5 -159s44.666 -80.333 78.999 -105s75.5 -37 123.5 -37
c29.333 0 56.666 4.33301 81.999 13s45.666 21 60.999 37v205h-152v39h197v-261c-20 -22 -46.167 -40 -78.5 -54s-69.833 -21 -112.5 -21zM308.002 708.998l-113 114l20 18l113 -98h4l113 98l20 -18l-113 -114h-44z" />
    <glyph glyph-name="gcaron" unicode="&#x1e7;" 
d="M308 -231c-50 0 -91.499 5.83398 -124.499 17.501s-57.833 28 -74.5 49s-25 45.167 -25 72.5c0 18.667 7 38.167 21 58.5s34 38.5 60 54.5v4c-12 6 -23.333 15.333 -34 28s-16 29 -16 49c0 15.333 5 31.166 15 47.499s24.333 30.833 43 43.5v4
c-15.333 12.667 -28.666 29.334 -39.999 50.001s-17 45.334 -17 74.001c0 32.667 8.16699 62 24.5 88s38 46.333 65 61s56.833 22 89.5 22c25.333 0 47.333 -4 66 -12h200v-38h-145c14.667 -14 27.667 -31.5 39 -52.5s17 -44.167 17 -69.5
c0 -32.667 -7.83301 -61.667 -23.5 -87s-37 -45 -64 -59s-56.833 -21 -89.5 -21c-14.667 0 -29.834 1.83301 -45.501 5.5s-30.834 9.16699 -45.501 16.5c-14 -8.66699 -25.333 -18.834 -34 -30.501s-13 -23.834 -13 -36.501c0 -23.333 10 -40.333 30 -51s47 -16 81 -16h119
c61.333 0 105.833 -8.33301 133.5 -25s41.5 -44.334 41.5 -83.001c0 -27.333 -10.5 -53.666 -31.5 -78.999s-50.333 -45.833 -88 -61.5s-82.5 -23.5 -134.5 -23.5zM295.001 188.001c24 0 46.167 5.66699 66.5 17s36.5 27 48.5 47s18 43 18 69s-6 49.167 -18 69.5
s-28.167 36.166 -48.5 47.499s-42.5 17 -66.5 17c-24.667 0 -47 -5.66699 -67 -17s-36.167 -27.166 -48.5 -47.499s-18.5 -43.5 -18.5 -69.5s6.16699 -49 18.5 -69s28.5 -35.667 48.5 -47s42.333 -17 67 -17zM305.001 -194.999c44 0 81.833 6 113.5 18
s55.834 27.5 72.501 46.5s25 38.5 25 58.5c0 27.333 -10.333 46 -31 56s-52 15 -94 15h-114c-12 0 -24.5 0.666992 -37.5 2s-24.833 3.66602 -35.5 6.99902c-28.667 -15.333 -48.834 -31.666 -60.501 -48.999s-17.5 -34.666 -17.5 -51.999
c0 -28.667 14.833 -52.834 44.5 -72.501s74.5 -29.5 134.5 -29.5zM288.001 573.001l-117 144l22 20l114 -125h4l114 125l22 -20l-117 -144h-42z" />
    <glyph glyph-name="uni01EA" unicode="&#x1ea;" 
d="M315 -224c-27.333 0 -50.002 7.16602 -68.002 21.499s-27 36.833 -27 67.5c0 26 7.5 49 22.5 69s32.5 38 52.5 54c-51.333 2.66699 -95 19.167 -131 49.5s-63.333 70.833 -82 121.5s-28 108.334 -28 173.001c0 69.333 10.5 129.5 31.5 180.5s50 90.167 87 117.5
s79.5 41 127.5 41s90.5 -13.667 127.5 -41s66 -66.5 87 -117.5s31.5 -111.167 31.5 -180.5c0 -86.667 -15.667 -158 -47 -214s-77.333 -97 -138 -123c-31.333 -14 -56.166 -32.333 -74.499 -55s-27.5 -45.667 -27.5 -69c0 -20 6.33301 -34.833 19 -44.5s27 -14.5 43 -14.5
c12.667 0 23.5 2.5 32.5 7.5s16.833 10.833 23.5 17.5l20 -25c-10.667 -10 -22.167 -18.5 -34.5 -25.5s-28.166 -10.5 -47.499 -10.5zM299.998 28.999c40 0 74.667 12.5 104 37.5s52.333 60 69 105s25 98.5 25 160.5c0 60.667 -8.33301 113.334 -25 158.001
s-39.667 79 -69 103s-64 36 -104 36s-74.667 -12 -104 -36s-52.333 -58.333 -69 -103s-25 -97.334 -25 -158.001c0 -62 8.33301 -115.5 25 -160.5s39.667 -80 69 -105s64 -37.5 104 -37.5z" />
    <glyph glyph-name="uni01EB" unicode="&#x1eb;" 
d="M327 -224c-27.333 0 -49.9971 7.16797 -67.9971 21.501s-27 36.833 -27 67.5c0 26 7 49.167 21 69.5s30.667 38.166 50 53.499c-46 0.666992 -86.833 11.5 -122.5 32.5s-63.5 50 -83.5 87s-30 80.833 -30 131.5c0 53.333 10.667 99 32 137s49.666 66.833 84.999 86.5
s74 29.5 116 29.5s80.667 -9.83301 116 -29.5s63.666 -48.5 84.999 -86.5s32 -83.667 32 -137c0 -45.333 -7.16699 -83.5 -21.5 -114.5s-34.333 -56.667 -60 -77s-55.5 -37.833 -89.5 -52.5c-27.333 -12 -49.333 -30 -66 -54s-25 -47.333 -25 -70c0 -20 6.33301 -35 19 -45
s27 -15 43 -15c13.333 0 24.5 2.5 33.5 7.5s16.833 10.5 23.5 16.5l20 -23c-10.667 -10 -22.334 -18.5 -35.001 -25.5s-28.667 -10.5 -48 -10.5zM300.003 27.001c36 0 68.167 8.83301 96.5 26.5s50.333 42.5 66 74.5s23.5 69 23.5 111s-7.83301 79.167 -23.5 111.5
s-37.667 57.5 -66 75.5s-60.5 27 -96.5 27s-68 -9 -96 -27s-50 -43.167 -66 -75.5s-24 -69.5 -24 -111.5s8 -79 24 -111s38 -56.833 66 -74.5s60 -26.5 96 -26.5z" />
    <glyph glyph-name="uni01F4" unicode="&#x1f4;" 
d="M334 -12c-54.667 0 -102.665 13.998 -143.998 41.998s-73.5 67.667 -96.5 119s-34.5 112 -34.5 182c0 69.333 11.833 129.5 35.5 180.5s56.834 90.333 99.501 118s92.334 41.5 149.001 41.5c43.333 0 79.166 -8.5 107.499 -25.5s50.833 -34.833 67.5 -53.5l-27 -30
c-16 18.667 -36 34.5 -60 47.5s-53.333 19.5 -88 19.5c-48.667 0 -90.5 -12.167 -125.5 -36.5s-62.167 -58.666 -81.5 -102.999s-29 -97.166 -29 -158.499c0 -60.667 9.16699 -113.667 27.5 -159s44.666 -80.333 78.999 -105s75.5 -37 123.5 -37
c29.333 0 56.666 4.33301 81.999 13s45.666 21 60.999 37v205h-152v39h197v-261c-20 -22 -46.167 -40 -78.5 -54s-69.833 -21 -112.5 -21zM306.002 705.998l-20 23l124 123l29 -33z" />
    <glyph glyph-name="uni01F5" unicode="&#x1f5;" 
d="M308 -231c-50 0 -91.499 5.83398 -124.499 17.501s-57.833 28 -74.5 49s-25 45.167 -25 72.5c0 18.667 7 38.167 21 58.5s34 38.5 60 54.5v4c-12 6 -23.333 15.333 -34 28s-16 29 -16 49c0 15.333 5 31.166 15 47.499s24.333 30.833 43 43.5v4
c-15.333 12.667 -28.666 29.334 -39.999 50.001s-17 45.334 -17 74.001c0 32.667 8.16699 62 24.5 88s38 46.333 65 61s56.833 22 89.5 22c25.333 0 47.333 -4 66 -12h200v-38h-145c14.667 -14 27.667 -31.5 39 -52.5s17 -44.167 17 -69.5
c0 -32.667 -7.83301 -61.667 -23.5 -87s-37 -45 -64 -59s-56.833 -21 -89.5 -21c-14.667 0 -29.834 1.83301 -45.501 5.5s-30.834 9.16699 -45.501 16.5c-14 -8.66699 -25.333 -18.834 -34 -30.501s-13 -23.834 -13 -36.501c0 -23.333 10 -40.333 30 -51s47 -16 81 -16h119
c61.333 0 105.833 -8.33301 133.5 -25s41.5 -44.334 41.5 -83.001c0 -27.333 -10.5 -53.666 -31.5 -78.999s-50.333 -45.833 -88 -61.5s-82.5 -23.5 -134.5 -23.5zM295.001 188.001c24 0 46.167 5.66699 66.5 17s36.5 27 48.5 47s18 43 18 69s-6 49.167 -18 69.5
s-28.167 36.166 -48.5 47.499s-42.5 17 -66.5 17c-24.667 0 -47 -5.66699 -67 -17s-36.167 -27.166 -48.5 -47.499s-18.5 -43.5 -18.5 -69.5s6.16699 -49 18.5 -69s28.5 -35.667 48.5 -47s42.333 -17 67 -17zM305.001 -194.999c44 0 81.833 6 113.5 18
s55.834 27.5 72.501 46.5s25 38.5 25 58.5c0 27.333 -10.333 46 -31 56s-52 15 -94 15h-114c-12 0 -24.5 0.666992 -37.5 2s-24.833 3.66602 -35.5 6.99902c-28.667 -15.333 -48.834 -31.666 -60.501 -48.999s-17.5 -34.666 -17.5 -51.999
c0 -28.667 14.833 -52.834 44.5 -72.501s74.5 -29.5 134.5 -29.5zM278.001 572.001l-24 23l134 159l34 -31z" />
    <glyph glyph-name="uni01F8" unicode="&#x1f8;" 
d="M92 0v659h49l257 -466l70 -130h2c-0.666992 31.333 -1.83398 63 -3.50098 95s-2.5 64 -2.5 96v405h44v-659h-49l-257 466l-70 130h-2c0.666992 -32 1.83398 -63.167 3.50098 -93.5s2.5 -61.5 2.5 -93.5v-409h-44zM334 706l-133 113l29 33l124 -123z" />
    <glyph glyph-name="uni01F9" unicode="&#x1f9;" 
d="M105 0v480.001h38l5 -92h4c27.333 30 56 54.833 86 74.5s64.333 29.5 103 29.5c58.667 0 102.167 -16 130.5 -48s42.5 -80.333 42.5 -145v-299h-45v293c0 54 -10.5 94 -31.5 120s-55.5 39 -103.5 39c-34 0 -64.5 -8.83301 -91.5 -26.5s-57.833 -44.834 -92.5 -81.501
v-344h-45zM350 572.001l-144 151l34 31l134 -159z" />
    </font>
</defs>
</svg>
